/* XPM */
static char *alienpool[] = {
/* columns rows colors chars-per-pixel */
"32 32 116 2",
"   c #007D00000000",
".  c #0C6900000000",
"X  c #14BF00000000",
"o  c #1C0900000000",
"O  c #24B400000000",
"+  c #2C8C00630000",
"@  c #349E004B0000",
"#  c #3BB300060000",
"$  c #2E55306B0000",
"%  c #3D512F730000",
"&  c #3D5744240000",
"*  c #31EA65920000",
"=  c #33436D810000",
"-  c #441B004F0000",
";  c #4C7B00520000",
":  c #4E3708CA0000",
">  c #46D112890000",
",  c #502711AB0000",
"<  c #5446007A0000",
"1  c #55D7083D0000",
"2  c #5C0A007E0001",
"3  c #59D308C70000",
"4  c #5650170A0000",
"5  c #5C5314290000",
"6  c #594E1CDA0000",
"7  c #435320520000",
"8  c #4BA027F00000",
"9  c #558122170000",
"0  c #5B692B9C0000",
"q  c #52F73C2B0000",
"w  c #5A7D30440000",
"e  c #642D00B30001",
"r  c #645B095B0000",
"t  c #6B7300780021",
"y  c #6BBC0CEA001C",
"u  c #627A12930000",
"i  c #64BC19DD0000",
"p  c #699C14540000",
"a  c #6C6C19090049",
"s  c #738F01930173",
"d  c #758F0B770147",
"f  c #7B4302B9032F",
"g  c #807E08420752",
"h  c #7680167701FD",
"j  c #65BB23750000",
"k  c #68A02DB00000",
"l  c #650B34B60051",
"z  c #63FE39B70009",
"x  c #6CA53DB703DA",
"c  c #739122DA0595",
"v  c #7C8B231F0C03",
"b  c #42B045B30000",
"n  c #4A4D45E60000",
"m  c #4A764D3B0000",
"M  c #4425519D0000",
"N  c #46915C640000",
"B  c #4F2654FE0000",
"V  c #4DE359BE0000",
"C  c #577E500C0000",
"Z  c #5A4B4B860000",
"A  c #45C265FE0000",
"S  c #4E84628F0000",
"D  c #49926E300000",
"F  c #4D6675720000",
"G  c #5B3065180009",
"H  c #55AB75610000",
"J  c #56AB7F750000",
"K  c #5A3771340044",
"L  c #64BA462D01D8",
"P  c #37589FFD0000",
"I  c #3CAAC5AA0000",
"U  c #3AB8CD070000",
"Y  c #3B56D4540000",
"T  c #3C73DC12002E",
"R  c #37B9E54C0000",
"E  c #36EAEE5C0000",
"W  c #3B0BE57C0016",
"Q  c #396DEACD0000",
"!  c #367CF72F000B",
"~  c #353FFE010005",
"^  c #38EDF1670072",
"/  c #413683B30000",
"(  c #47269E86001A",
")  c #4DAA97E50000",
"_  c #49239D040000",
"`  c #54648B130115",
"'  c #5EBFA02D0DF5",
"]  c #4793A5910008",
"[  c #43CFAC3E0018",
"{  c #4A47A545002E",
"}  c #4CB9AF5902E9",
"|  c #4458B6E0001A",
" . c #4423BD5E0000",
".. c #49CDB1870030",
"X. c #548BB6CC09BA",
"o. c #6E328FEB16FB",
"O. c #42B2C5E50033",
"+. c #4124C93B0000",
"@. c #84790D1F0CA0",
"#. c #8A4615431332",
"$. c #8EDD19611792",
"%. c #8E7C19D91A05",
"&. c #914018021977",
"*. c #91331C131A55",
"=. c #812631F111EF",
"-. c #8E3531271C4A",
";. c #9DEB27AD2842",
":. c #9A6F2A0D2663",
">. c #9F5329962964",
",. c #A1B32C142C7F",
"<. c #933850622958",
"1. c #AA47488639AD",
"2. c #BB3748454896",
"3. c #BDA24ADC4ACA",
"4. c #D76A6B1B68D6",
"5. c None",
/* pixels */
"5.5.5.5.5.5.5.5.5.5.5.5.5.5.5.5.5.5.5.5.5.5.5.5.5.5.5.5.5.5.5.5.",
"5.5.5.5.5.5.5.5.5.5.5.      . . . . .         5.5.5.5.5.5.5.5.5.",
"5.5.5.5.5.5.5.5.5.    . o o O O O O O X X .     5.5.5.5.5.5.5.5.",
"5.5.5.5.5.5.5.    . O # ; - - @ @ # # # + o o .     5.5.5.5.5.5.",
"5.5.5.5.5.5.    X O # ; < ; - # - ; < < ; # O o X     5.5.5.5.5.",
"5.5.5.5.5.    X O @ ; ; ; # # # # - - < < 2 - O o o .   5.5.5.5.",
"5.5.5.5.    o O @ - < < < - # @ # # - < e t e - O O o     5.5.5.",
"5.5.5.    o + @ - ; < 2 2 - @ @ # # ; 2 t t t 2 @ O O X   5.5.5.",
"5.5.5.  X + @ @ # : 1 3 < - # # - - < 2 r r t 2 - + O O .   5.5.",
"5.5.5.  + # @ + + % A D n > - - ; 2 6 B D V 9 : - @ + O X   5.5.",
"5.5.  o # # + + $ P Q E I N : ; 2 u H Y E T / 7 # # # + o     5.",
"5.5.  O - - + + * R ~ ~ ! ] 5 e t l  .~ ~ ~ U b # - - @ O X   5.",
"5.5.  @ - - + + = ^ ~ ~ ~ ..h f f l +.~ ~ ~ T m < ; < - + X   5.",
"5.  . @ - ; # # & I ! ~ W o.1.;.#.c ) Q ~ ^ ] 0 e e 2 ; + o   5.",
"5.  X # - ; ; ; , V _ ] H <.4.3.>.#.x ` X.' L y t t t < @ O . 5.",
"5.  o # - < 2 2 2 r i j y :.3.*.@.%.:.-.=.v s t t e t 2 # O . 5.",
"5.  o @ # 2 e 2 t t s t s &.:.f s @.,.&.f s t t t t t 2 # O . 5.",
"5.  X O + ; e t t t s t s @.@.s t s f s t t t t t t t 2 # O X 5.",
"5.5.  o O # ; 2 e t t t t d h h p r t t t 2 e t t t t ; + o   5.",
"5.5.  o o + # - < t t y z G ` ` H C 0 5 2 2 2 2 t t < # O X   5.",
"5.5.  X o O + O @ < r Z ..W W W T I [ D 9 ; ; ; < < ; # O .   5.",
"5.5.5.  o O + O O - 0 _ Q T ..{ { I Q U A : - # # - - - O   5.5.",
"5.5.5.  X + @ # # : q | O.K k j 0 S I I M - @ + + # - # .   5.5.",
"5.5.5.  . O # - ; 2 9 F H j t e 2 9 D F 8 - # @ @ - ; O   5.5.5.",
"5.5.5.5.  . + ; < 2 r i p r e < < 1 4 4 3 < - @ # - +     5.5.5.",
"5.5.5.5.5.  X @ ; 2 e 2 t e e < < 2 2 e 2 ; # + + + .   5.5.5.5.",
"5.5.5.5.5.    . + - ; ; ; < < 2 2 2 2 2 ; # O o o .   5.5.5.5.5.",
"5.5.5.5.5.5.5.    X O + @ @ @ # - ; ; ; @ O o .     5.5.5.5.5.5.",
"5.5.5.5.5.5.5.5.    . o X o o O O + O O o X     5.5.5.5.5.5.5.5.",
"5.5.5.5.5.5.5.5.5.5.      . X X X X .       5.5.5.5.5.5.5.5.5.5.",
"5.5.5.5.5.5.5.5.5.5.5.5.5.            5.5.5.5.5.5.5.5.5.5.5.5.5.",
"5.5.5.5.5.5.5.5.5.5.5.5.5.5.5.5.5.5.5.5.5.5.5.5.5.5.5.5.5.5.5.5."
};
