/* XPM */
static char *noname[]={
"128 128 5 1",
"+ c #ffffff",
"* c #aaaaaa",
"# c #555555",
". c None",
"o c #ff0000",
"................................................................................................................................",
"................................................................................................................................",
"................................................................................................................................",
"................................................................................................................................",
"................................................................................................................................",
"................................................................................................................................",
"................................................................................................................................",
"................................................................................................................................",
"............+++++++.........................+++++++++++++++++++++++++++++++++++++++++++++++++++++++++++++++++++++++.............",
"...........+.......+.......................+..........o........o.........o.........o.o.....o.........o.........o...+............",
"..........+.........*.....................+............o......o...........o.........o.....o...........o.........oo.o*...........",
".........+.o.........*...................+.............o.....o............o..........o...o............o........o..o..*..........",
"........+...oo***....o*.................+.....********************************************************************o..o*.........",
"........+....*o....oo.*.................+....*o.............o............ooo........oo..................o....o.....oo.*.........",
"........*...*..oooo...*.................*...*.o.............o.............ooo.....ooooo.................o...ooo......o*.........",
"........*......ooo....*.................*.....oo...........o...............ooo...o...oo..................o.o...o......*.........",
"........*oo...ooo.....*.................*.....ooo.......ooo.................ooooo.....o...................o.....o.....*.........",
"........*..o.o...o....*.................*....o...o.....ooo.................ooo.........o.................o.......o....*.........",
"........*...o.....o...#.................*...o.....ooooooo.................ooo...........o...............o.........o...#.........",
".........*.o.......o.#...................*.o.....o.......o...............o...o.........o.o.............oo..........o.#..........",
"..........*.........#.....................*.....o.........o.............o.....o.......o...o...........ooo...........#...........",
"...........*.......#.......................*....o.........o.............o.....o.......o...o...........ooo..........#............",
"............#######.........................#######################################################################.............",
"................................................................................................................................",
"................................................................................................................................",
"................................................................................................................................",
"................................................................................................................................",
"................................................................................................................................",
"................................................................................................................................",
"................................................................................................................................",
"................................................................................................................................",
"................................................................................................................................",
"................................................................................................................................",
"................................................................................................................................",
"................................................................................................................................",
"................................................................................................................................",
"................................................................................................................................",
"................................................................................................................................",
"................................................................................................................................",
"................................................................................................................................",
"............+++++++...............................+++++++++++++++++++++++++++++++++++++++++++++++++++++++++++...................",
"...........+.......*............................++...............o............o......o.......o.......o.......*..................",
"..........+.........*.........................++.................o............o.......oo..ooo.........o.....oo**................",
".........+.o.........*.......................+..oo..............o..............o........oo............o....o....**..............",
"........+...oo***.....*.....................+.....o...****************************************************o.......*.............",
"........+...o*........*....................+......o.**.........o.............o.............o.............oo........*............",
"........*...*.......oo*...................+.......**...........o..............o...........o.............ooo.......o.*...........",
"........*...o......o..*...................+......*..o.........o................o..........o............o...o.....o..*...........",
"........*...ooo...o...*..................+.o....*...o.......oo..................o.........o...........o.....ooooo....*..........",
"........*..o.ooo.o....*..................+..o..*.....o....oo.....................o.......o...........oo..........o...*..........",
"........*.o...ooo.....*.................+...o.*.......o..o........................o.....o...........oo............oooo*.........",
"........*......oo.....*.................+....ooo.......oo..........................o...o...........o.oo...............*.........",
"........*.......o...oo*.................*.ooo...oo.....oo.............ooo...........ooo...........o...o...............*.........",
"........*........o.o..*.................*o........oo..o..o...........o...o.........o...o..........o....o..............*.........",
"........*oo.......o...*.................*...........oo....###########.....ooo...ooo.....oo###########.o...ooo.........*.........",
"........*..o......o...*.................*...........o....#...........*.......o.ooo......o#...........*...o...o........*.........",
"........*...ooo...o...*.................*............o..#.............*.......ooo.......#.............**o.....o...oooo*.........",
"........*..o...o.o.o..*.................*............o.#...............*.....o...o.....#...............*o.....oo.o....*.........",
"........*.o.....o...oo*.................*.............#.................*...o.....oooo#.................*.....ooo.....*.........",
"........*o............*.................*.............#.................*..o..........#.................*....o...o....*.........",
"........*.............*.................*.............*.................*oo...........*.................*oooo.....o...*.........",
"........*.............*.................*.............*.................*.............*.................*..........o..*.........",
"........*.............*.................*.............*.................*.............*.................*...........oo*.........",
"........*.............*.................*.............*.................*.............*.................*.............*.........",
"........*.............*.................*.............*.................*.............*.................*.............*.........",
"........*.............*.................*.............*.................*.............*.................*.............*.........",
"........*...........oo*.................*.............*.................*.............*.................*.............*.........",
"........*..........ooo*.................*............o*.................*.............*.................*.............*.........",
"........*oo.......oooo*.................*...........o.*.................+.............*.................+.............*.........",
"........*..o.....ooo..*.................*..........o...*...............+.............o.*...............+..............*.........",
"........*...o...ooo...*.................*..........o....*.............+.............o...*.............+...............*.........",
"........*....o.o......*.................*...........o....*...........+..............o....*...........+o...............*.........",
"........*.....o.......*.................*...........o.....+++++++++++...............o.....+++++++++++..o..............*.........",
"........*.....o.......*.................*............o...o...........o...............o.....o........oo..o.............*.........",
"........*.....o.....oo*.................*oo...........ooo.............ooo.............ooooo...........ooo.........oooo*.........",
"........*......o...o..*.................*..o.........o...................o...........o...................o.......o....*.........",
"........*.......ooo...*.................*...o.......o.......***********...o.........o.......***********...o.....o.....*.........",
"........*.......oo....*.................*....o.....o.......................o.......o.......................o...o......*.........",
"........*.......o.....*.................*.....ooooo.........................ooooooo.........................ooo.......*.........",
"........*......o......*.................*o...o.....o.......................o.......o.......................ooo.o......*.........",
"........*.....o.......*.................*.ooo.......o...................ooo.........ooo...................ooo...ooo...*.........",
"........*o...o.o......*.................*............o.................o...........o...o.................o.........o..*.........",
"........*oooo...o.....*.................*.............ooo...........ooo...........o.....o.............ooo...........oo*.........",
"........*.oo....o.....*.................*............o...o.........o.............o.......o...........o...o............*.........",
"........*oo.....o.....*.................*...........o.....o.......o.............o.........o.........o.....o...........*.........",
"........*o......o.....*.................*..........o.oo...o.......o............o.o........o.........o......o..........*.........",
"........*.......o.....*.................*.ooo.....o....oo.###########.........o...o.......###########.......ooo.......*.........",
"........*........o....*.................*o...o...o.......#...........*.......o.....o.....#...........*.....o...o......*.........",
"........*.........oooo*.................*.....ooo.......#.............*..oooo.......oo..#.............*..oo.....o.....*.........",
"........*.............*.................*....o.........#...............*o.............o#...............*o........o....*.........",
"........*.............*.................*...o.........#.................*.............#.................*.........oooo*.........",
"........*.............*.................*..o..........#.................*.............#.................*.............*.........",
"........*.............*.................*oo...........*.................*.............*.................*.............*.........",
"........*.............*.................*.............*.................*.............*.................*.............*.........",
"........*.............*.................*.............*.................*.............*.................*.............*.........",
"........*.............*.................*.............*.................*.............*.................*.............*.........",
"........*...........oo*.................*.............*.................*.........oooo*.................*.............*.........",
"........*..........o..*.................*.............*.................*........o....*.................*.............*.........",
"........*.........o...*.................*.............*.................*.......o.....*.................*.............*.........",
"........*........o.o..*.................*.............*.................*......o......*.................*.............*.........",
"........*oo.....o...oo*.................*.............*.................+oooooo.......*.................+.............*.........",
"........*..o....o.....*.................*............o.*...............+.......o.....oo*...............+.o............*.........",
"........*...o...o.....*.................*...........o...*.............+.........o...oo..*.............+...o...........*.........",
"........*....o.o......*.................*o..........o....*...........+...........o.oo....*...........+.....o..........*.........",
"........*.....o.......*.................*.ooo.......o.....+++++++++++.ooo.........ooo....o+++++++++++.......o.....oooo*.........",
"........*.....o.......*.................*....o.......o...oo.....o........o........oo.o..o............o......oo...o....*.........",
"........*.....o...oooo*.................*.....o.......ooo.......o.........o.......o...oo..............o.....ooooo.....*.........",
"........*.....oo.o....*.................*......o.....o..........o..........o.....o....................oo...o.....o....*.........",
"........*.....ooo.....*.................*.......ooooo.......***********.....ooooo...........***********.ooo.......oo..#.........",
"........*.....oo.o....*..................*.....o.ooo.............o.........o.....o.....................ooo..........o#..........",
"........*.....o...o...*..................*..ooo...o...............o.......o.......o...................ooo............#..........",
"........*....o.....o..*...................*o......oo...............o......o........o.................o...o..........#...........",
"........*...o.......oo*...................*.......ooo...............o.....o.........o...............o.....o.........#...........",
"........*..o..........*....................*.....o...o.............o.o...oo.........o..............o.......o.......#............",
"........*.o...........#.....................*...o.....ooo.........o...ooooo.........o.............o.........o.....#.............",
".........*o..........#.......................*..o.....oo.o........o........o.........o...........o.o.........oo..#..............",
"..........*.........#.........................**......o...o.......o.........o.........o.........o...o..........##...............",
"...........*.......#............................**....o...o.......o.........o.........o.........o...o........##.................",
"............#######...............................###########################################################...................",
"................................................................................................................................",
"................................................................................................................................",
"................................................................................................................................",
"................................................................................................................................",
"................................................................................................................................",
"................................................................................................................................",
"................................................................................................................................",
"................................................................................................................................",
"................................................................................................................................"};
