/* XPM */
static char *noname[]={
"32 32 17 1",
"a c #bb2211",
"b c #cc2222",
"c c #cc0022",
"d c #cc1111",
"e c #bb1122",
"f c #dd2233",
"g c #bb2222",
"h c #ee1111",
"i c #cc3322",
"j c #dd0022",
"k c #bb1111",
"l c #bb1100",
"m c #ee3333",
"n c #bb0022",
"o c #dd2200",
"p c #cc1100",
"+ c #7f7f7f",
"++++++++++++++++++++++++++++++++",
"aaaaaaaaaaa+bbbbbbbbbbbbbbb+aaaa",
"aaaaaaaaaaa+bbbbbbbbbbbbbbb+aaaa",
"aaaaaaaaaaa+bbbbbbbbbbbbbbb+aaaa",
"++++++++++++++++++++++++++++++++",
"ccc+ddddddddddddddd+cccccccccccc",
"ccc+ddddddddddddddd+cccccccccccc",
"ccc+ddddddddddddddd+cccccccccccc",
"++++++++++++++++++++++++++++++++",
"eeeeeeeeeee+fffffffffffffff+eeee",
"eeeeeeeeeee+fffffffffffffff+eeee",
"eeeeeeeeeee+fffffffffffffff+eeee",
"++++++++++++++++++++++++++++++++",
"ggg+hhhhhhhhhhhhhhh+gggggggggggg",
"ggg+hhhhhhhhhhhhhhh+gggggggggggg",
"ggg+hhhhhhhhhhhhhhh+gggggggggggg",
"++++++++++++++++++++++++++++++++",
"iiiiiiiiiii+jjjjjjjjjjjjjjj+iiii",
"iiiiiiiiiii+jjjjjjjjjjjjjjj+iiii",
"iiiiiiiiiii+jjjjjjjjjjjjjjj+iiii",
"++++++++++++++++++++++++++++++++",
"kkk+lllllllllllllll+kkkkkkkkkkkk",
"kkk+lllllllllllllll+kkkkkkkkkkkk",
"kkk+lllllllllllllll+kkkkkkkkkkkk",
"++++++++++++++++++++++++++++++++",
"mmmmmmmmmmm+nnnnnnnnnnnnnnn+mmmm",
"mmmmmmmmmmm+nnnnnnnnnnnnnnn+mmmm",
"mmmmmmmmmmm+nnnnnnnnnnnnnnn+mmmm",
"++++++++++++++++++++++++++++++++",
"ooo+ppppppppppppppp+oooooooooooo",
"ooo+ppppppppppppppp+oooooooooooo",
"ooo+ppppppppppppppp+oooooooooooo"};
/*
    Copyright by Mark Weyer

    This program is free software; you can redistribute it and/or modify
    it under the terms of the GNU General Public License as published by
    the Free Software Foundation; either version 2 of the License, or
    (at your option) any later version.

    This program is distributed in the hope that it will be useful,
    but WITHOUT ANY WARRANTY; without even the implied warranty of
    MERCHANTABILITY or FITNESS FOR A PARTICULAR PURPOSE.  See the
    GNU General Public License for more details.

    You should have received a copy of the GNU General Public License
    along with this program; if not, write to the Free Software
    Foundation, Inc., 59 Temple Place, Suite 330, Boston, MA  02111-1307  USA
*/
