<?xml version="1.0" encoding="UTF-8" standalone="no"?>
<!-- Created with Inkscape (http://www.inkscape.org/) -->
<svg
   xmlns:svg="http://www.w3.org/2000/svg"
   xmlns="http://www.w3.org/2000/svg"
   version="1.0"
   width="100%"
   height="100%"
   viewBox="0 0 88 87.999"
   id="svg1423">
  <defs
     id="defs1502" />
  <path
     d="M 36.407414,81.761415 C 22.380673,79.721835 8.6183235,66.582012 6.4506533,53.159718 C 5.7333143,48.717926 5.7333143,39.368134 6.4506533,34.926344 C 8.120074,24.589229 17.094221,13.720791 28.167673,8.6252273 C 31.164687,7.2461197 32.935065,6.8010155 37.914918,6.174599 C 43.529607,5.4683265 44.470385,5.4683265 50.085073,6.174599 C 55.064928,6.8010155 56.835306,7.2461197 59.832319,8.6252273 C 70.905772,13.720791 79.879916,24.589229 81.549338,34.926344 C 82.266677,39.368134 82.266677,48.717926 81.549338,53.159718 C 79.839092,63.749625 70.26802,75.050259 59.024203,79.75531 C 53.201534,82.191845 44.609099,82.953993 36.407414,81.761415 z "
     style="fill:#af6c6c"
     id="path4544" />
  <path
     d="M 38.556002,82.014231 C 37.514542,81.795258 35.415697,81.265153 33.891899,80.836227 C 17.452337,76.208696 5.6553435,60.836808 5.6553435,44.04303 C 5.6553435,29.856682 14.217072,16.226943 27.194624,9.7538332 C 28.496448,9.1044923 31.372297,7.9741145 33.585399,7.2418825 C 37.203647,6.0447409 38.253369,5.9105515 43.999996,5.9105515 C 49.746623,5.9105515 50.796346,6.0447409 54.414593,7.2418825 C 61.332134,9.5306366 65.38871,11.892011 70.210347,16.436756 C 77.895387,23.680463 82.344649,33.802807 82.344649,44.04303 C 82.344649,64.214543 65.444385,81.593739 45.183473,82.25732 C 42.579824,82.342595 39.597462,82.233203 38.556002,82.014231 z "
     style="fill:#af6c6c"
     id="path4542" />
  <path
     d="M 38.556002,81.996913 L 36.662438,81.659247 L 38.319307,81.537224 C 39.805942,81.427742 39.720221,81.372735 37.484981,81.001875 C 32.04949,80.100049 26.118577,77.503871 20.799839,73.698191 C 17.659317,71.451071 12.888568,65.909178 10.906803,62.206038 C 9.150479,58.924159 7.0907905,53.157535 7.0422426,51.38621 C 7.0131763,50.325657 6.9631824,50.288826 6.6466739,51.094787 C 6.0810596,52.53508 5.656947,49.104624 5.7165619,43.571553 C 5.7613149,39.418031 6.3407254,34.815896 6.5772695,36.735139 C 6.6252099,37.124109 6.9524692,36.381532 7.3045137,35.08497 C 10.252731,24.22682 17.347751,15.186799 26.585136,10.518842 C 29.348295,9.1225258 35.646377,7.0482596 37.314604,6.9851039 L 38.556002,6.938107 L 37.372525,6.5912556 C 35.427487,6.021207 43.4548,5.4707449 47.905471,5.868973 C 50.053481,6.0611686 51.434668,6.3524488 50.974776,6.5162623 C 50.414915,6.7156852 51.040629,7.0204401 52.868339,7.4385238 C 60.206444,9.117095 67.796839,13.792984 72.641407,19.619266 C 75.856866,23.486317 79.747149,31.116427 80.646927,35.320709 C 81.019846,37.063176 81.347471,37.876796 81.406342,37.206617 C 81.658953,34.331021 82.23263,39.077451 82.23263,44.04303 C 82.23263,49.008608 81.658953,53.755037 81.406342,50.879444 C 81.347471,50.209264 81.019846,51.022885 80.646927,52.76535 C 79.750833,56.952424 75.861046,64.594746 72.677266,68.423492 C 67.456533,74.701833 58.769249,79.632372 50.515012,81.001875 C 48.295408,81.370141 48.204449,81.427643 49.680686,81.52933 C 51.310057,81.641571 51.302201,81.649727 49.207295,82.020978 C 46.644399,82.475165 41.16856,82.462794 38.556002,81.996913 z "
     style="fill:#a65353"
     id="path4540" />
  <path
     d="M 33.135195,79.123827 C 27.352513,77.637889 22.742598,75.006194 18.040173,70.506424 C 11.499326,64.247462 7.9676361,57.040439 6.6131106,47.187537 C 6.0770794,43.288417 6.7441193,37.671724 8.3303798,32.727587 C 10.390184,26.307485 15.494043,18.902112 20.698836,14.781747 C 23.882162,12.261672 30.65331,8.9119698 35.005571,7.7041708 C 39.301081,6.5121212 48.743119,6.5192246 52.99442,7.7177041 C 64.395654,10.931812 73.579464,18.85389 77.654597,28.989903 C 80.298314,35.565574 80.620853,42.336037 78.556666,47.92522 C 77.592591,50.535633 75.921915,53.126417 75.483938,52.690215 C 75.368677,52.575421 75.04947,50.476759 74.774586,48.026526 C 73.464127,36.345504 69.411651,28.473302 61.738137,22.702371 C 59.882929,21.307145 56.780529,19.572376 54.651289,18.739613 C 49.778982,16.834019 42.301759,16.354592 37.372525,17.631729 C 24.004279,21.095364 14.896633,33.470341 15.718234,47.054409 C 16.344227,57.404348 22.758018,66.803044 32.291157,71.340174 C 38.462237,74.277192 44.946327,75.026072 53.612636,73.802694 C 55.90539,73.479039 57.873801,73.36333 57.986886,73.545564 C 58.235103,73.94556 55.315806,76.215292 53.006251,77.417973 C 47.59547,80.23558 39.99938,80.887674 33.135195,79.123827 z M 34.948857,59.632204 C 32.744202,58.140158 31.959255,56.224846 32.350033,53.29093 C 32.652088,51.023137 32.640728,50.997733 31.195957,50.709947 C 29.210939,50.314548 27.097229,48.09088 26.699547,45.979627 C 25.704661,40.697867 31.611833,36.707286 36.252937,39.525849 C 38.288419,40.762005 39.585245,44.103026 38.847599,46.210485 C 38.155451,48.187955 38.181008,48.545321 38.992402,48.23522 C 39.769764,47.938123 41.417049,48.701148 42.900542,50.045476 L 43.931347,50.979582 L 45.550448,49.749626 C 49.18892,46.985648 53.616537,48.019781 55.40735,52.051845 C 56.43869,54.37393 56.275123,55.948838 54.781627,58.07658 C 52.458464,61.386329 48.287802,61.676866 45.065125,58.753446 L 43.999996,57.787225 L 42.934866,58.753446 C 40.331736,61.114852 37.586052,61.416979 34.948857,59.632204 z M 46.990083,40.53365 C 42.269682,38.399182 42.272848,31.809623 46.995385,29.495098 C 50.548771,27.753575 54.453719,29.459117 55.745731,33.316932 C 56.665879,36.064417 54.822827,39.481526 51.707802,40.803457 C 49.751926,41.633473 49.374638,41.611897 46.990083,40.53365 z "
     style="fill:#924949"
     id="path4538" />
  <path
     d="M 35.334547,59.43076 C 32.719694,57.713627 31.950267,55.430798 32.809877,51.940267 C 33.146438,50.573631 33.078266,50.407968 32.179331,50.407968 C 29.400154,50.407968 26.828821,47.657197 26.828821,44.684076 C 26.828821,42.540792 27.889103,40.790131 29.942342,39.543254 C 32.815516,37.798451 36.295258,38.894133 37.913404,42.053136 C 38.841535,43.865069 38.872789,44.933132 38.071656,47.461237 C 37.773404,48.402419 37.898085,48.52206 39.17717,48.52206 C 40.156146,48.52206 41.147213,49.018358 42.265121,50.068417 L 43.911393,51.614774 L 45.60561,50.068417 C 47.007876,48.788533 47.675919,48.52206 49.482308,48.52206 C 52.253888,48.52206 54.048373,49.752279 55.101871,52.374584 C 55.840115,54.212181 55.841677,54.497199 55.123765,56.369429 C 53.419607,60.813658 48.171971,61.677404 45.065125,58.025052 L 43.999996,56.772904 L 42.934866,58.025052 C 40.867226,60.455732 37.768209,61.028911 35.334547,59.43076 z "
     style="fill:#0e0def"
     id="path2465" />
  <path
     d="M 47.041124,40.084932 C 43.437274,38.454747 42.587666,34.23587 45.232737,31.10509 C 49.496136,26.058814 57.939508,31.204363 55.044378,37.084488 C 54.09175,39.019307 51.522125,40.984271 49.965722,40.968076 C 49.418405,40.962381 48.102336,40.564966 47.041124,40.084932 z "
     style="fill:#0e0def"
     id="path2463" />
  <path
     d="M 27.659866,73.348392 C 22.874289,71.299742 20.965253,70.011092 17.407182,66.427542 C 6.8115316,55.756027 4.9898262,38.879254 12.971826,25.337217 C 16.998177,18.506226 24.265423,12.62794 31.774859,10.127936 C 41.37415,6.932188 50.105142,7.5801787 58.911806,12.141966 C 64.757471,15.169981 71.930051,23.279202 71.930051,26.860223 C 71.930051,27.691146 71.391963,27.369552 68.753695,24.961829 C 61.992665,18.791623 54.927171,15.64428 46.84034,15.20047 C 37.6447,14.695806 29.894061,17.668697 23.390208,24.195171 C 18.037334,29.566661 15.84852,33.959691 14.640506,41.75615 C 13.698097,47.838418 15.379235,55.53747 18.968426,61.576569 C 20.953202,64.91611 25.389503,69.434239 29.242599,72.040247 C 30.850044,73.12743 32.165227,74.115118 32.165227,74.235113 C 32.165227,74.744662 29.863095,74.291568 27.659866,73.348392 z M 35.334547,59.43076 C 32.719694,57.713627 31.950267,55.430798 32.809877,51.940267 C 33.146438,50.573631 33.078266,50.407968 32.179331,50.407968 C 29.400154,50.407968 26.828821,47.657197 26.828821,44.684076 C 26.828821,42.540792 27.889103,40.790131 29.942342,39.543254 C 32.815516,37.798451 36.295258,38.894133 37.913404,42.053136 C 38.841535,43.865069 38.872789,44.933132 38.071656,47.461237 C 37.773404,48.402419 37.898085,48.52206 39.17717,48.52206 C 40.156146,48.52206 41.147213,49.018358 42.265121,50.068417 L 43.911393,51.614774 L 45.60561,50.068417 C 47.007876,48.788533 47.675919,48.52206 49.482308,48.52206 C 52.253888,48.52206 54.048373,49.752279 55.101871,52.374584 C 55.840115,54.212181 55.841677,54.497199 55.123765,56.369429 C 53.419607,60.813658 48.171971,61.677404 45.065125,58.025052 L 43.999996,56.772904 L 42.934866,58.025052 C 40.867226,60.455732 37.768209,61.028911 35.334547,59.43076 z M 38.758893,55.612232 C 40.060028,54.918699 40.879873,52.592187 40.241662,51.404502 C 39.104684,49.288629 37.221395,49.151509 35.123919,51.031885 C 32.362041,53.507894 35.437161,57.382778 38.758893,55.612232 z M 50.538205,55.104366 C 51.988126,53.759021 51.95171,51.147503 50.469541,50.180276 C 49.581266,49.600609 49.068343,49.562309 47.851508,49.984784 C 46.245892,50.542242 44.675691,52.856822 45.236132,53.840021 C 46.606785,56.24459 48.756798,56.757288 50.538205,55.104366 z M 33.940442,44.941942 C 35.256804,43.474674 35.29459,42.209235 34.05879,40.978431 C 32.779341,39.704154 30.947454,39.791034 29.540059,41.192738 C 28.117776,42.609272 28.04827,44.421748 29.365905,45.734056 C 30.596015,46.959191 32.412914,46.644582 33.940442,44.941942 z M 47.041124,40.084932 C 43.437274,38.454747 42.587666,34.23587 45.232737,31.10509 C 49.496136,26.058814 57.939508,31.204363 55.044378,37.084488 C 54.09175,39.019307 51.522125,40.984271 49.965722,40.968076 C 49.418405,40.962381 48.102336,40.564966 47.041124,40.084932 z M 50.32693,35.757966 C 52.548906,34.017228 51.579991,30.134464 48.923627,30.134464 C 47.649258,30.134464 45.616952,31.837124 45.213437,33.242851 C 44.836225,34.556945 46.570715,36.735139 47.994336,36.735139 C 48.591238,36.735139 49.640906,36.295411 50.32693,35.757966 z "
     style="fill:#66335a"
     id="path4534" />
  <path
     d="M 27.659866,73.348392 C 22.874289,71.299742 20.965253,70.011092 17.407182,66.427542 C 6.8115316,55.756027 4.9898262,38.879254 12.971826,25.337217 C 16.998177,18.506226 24.265423,12.62794 31.774859,10.127936 C 41.37415,6.932188 50.105142,7.5801787 58.911806,12.141966 C 64.757471,15.169981 71.930051,23.279202 71.930051,26.860223 C 71.930051,27.691146 71.391963,27.369552 68.753695,24.961829 C 61.992665,18.791623 54.927171,15.64428 46.84034,15.20047 C 37.6447,14.695806 29.894061,17.668697 23.390208,24.195171 C 18.037334,29.566661 15.84852,33.959691 14.640506,41.75615 C 13.698097,47.838418 15.379235,55.53747 18.968426,61.576569 C 20.953202,64.91611 25.389503,69.434239 29.242599,72.040247 C 30.850044,73.12743 32.165227,74.115118 32.165227,74.235113 C 32.165227,74.744662 29.863095,74.291568 27.659866,73.348392 z M 36.703091,59.878485 C 36.809045,59.771369 36.252112,59.293904 35.465464,58.817445 C 33.210848,57.451877 32.615532,54.670635 33.805949,51.064414 C 34.097395,50.18151 33.910563,50.040847 32.13059,49.803068 C 29.412418,49.439958 27.871175,47.838957 27.555624,45.050713 C 27.004115,40.177518 32.165091,37.438739 36.096225,40.518468 C 37.413951,41.550801 39.124571,45.81876 38.326766,46.083621 C 38.059055,46.172497 37.960429,46.439258 38.1076,46.676422 C 38.25477,46.913586 38.137013,47.10763 37.845917,47.10763 C 37.554819,47.10763 37.448306,47.319794 37.609221,47.579106 C 37.770136,47.838418 37.676194,48.050584 37.400464,48.050584 C 37.124733,48.050584 36.899134,48.262748 36.899134,48.52206 C 36.899134,48.781372 37.677708,48.993536 38.6293,48.993536 C 40.03952,48.993536 40.701467,49.3516 42.208897,50.929832 C 43.959185,52.762327 44.094023,52.819194 44.724192,51.990655 C 45.090418,51.509145 45.396833,51.001803 45.405114,50.863229 C 45.443713,50.217259 48.343588,48.993536 49.835753,48.993536 C 51.905519,48.993536 54.220916,50.813794 54.655004,52.782212 C 54.825515,53.5554 55.160718,54.067556 55.399895,53.920332 C 55.639075,53.773109 55.834766,53.983421 55.834766,54.387693 C 55.834766,54.791966 55.59895,55.122735 55.310726,55.122735 C 55.022507,55.122735 54.902574,55.423499 55.044208,55.791105 C 55.306239,56.471187 52.583392,59.700153 51.93024,59.483895 C 51.734445,59.419067 51.574249,59.53549 51.574249,59.742604 C 51.574249,59.949724 50.743386,60.108847 49.727888,60.096212 C 48.712389,60.083582 47.960119,59.945142 48.056175,59.788577 C 48.152233,59.63201 47.716207,59.270383 47.08723,58.984965 C 46.458253,58.699542 45.588329,57.925938 45.154066,57.265852 C 44.272122,55.925273 43.526606,55.699465 43.526606,56.772904 C 43.526606,57.161872 43.301008,57.480119 43.025276,57.480119 C 42.749546,57.480119 42.640687,57.668243 42.783369,57.898173 C 43.105535,58.41734 41.89924,59.47399 41.471139,59.047619 C 41.299821,58.876991 41.159651,58.997436 41.159651,59.315272 C 41.159651,59.633108 40.946626,59.762029 40.686261,59.601765 C 40.425895,59.441501 40.21287,59.492359 40.21287,59.714782 C 40.21287,59.937202 39.379825,60.108847 38.361658,60.096212 C 37.343493,60.083582 36.597137,59.985604 36.703091,59.878485 z M 38.758893,55.612232 C 40.060028,54.918699 40.879873,52.592187 40.241662,51.404502 C 39.104684,49.288629 37.221395,49.151509 35.123919,51.031885 C 32.362041,53.507894 35.437161,57.382778 38.758893,55.612232 z M 50.538205,55.104366 C 51.988126,53.759021 51.95171,51.147503 50.469541,50.180276 C 49.581266,49.600609 49.068343,49.562309 47.851508,49.984784 C 46.245892,50.542242 44.675691,52.856822 45.236132,53.840021 C 46.606785,56.24459 48.756798,56.757288 50.538205,55.104366 z M 33.940442,44.941942 C 35.256804,43.474674 35.29459,42.209235 34.05879,40.978431 C 32.779341,39.704154 30.947454,39.791034 29.540059,41.192738 C 28.117776,42.609272 28.04827,44.421748 29.365905,45.734056 C 30.596015,46.959191 32.412914,46.644582 33.940442,44.941942 z M 48.837249,40.257171 C 46.313851,39.507076 45.449931,38.805662 44.623167,36.835769 C 44.125097,35.64904 44.089518,34.854619 44.471214,33.442842 C 45.14374,30.955367 46.882009,29.662988 49.55517,29.662988 C 51.327862,29.662988 51.928631,29.921643 53.278455,31.266008 C 54.163697,32.14767 54.887983,33.221015 54.887983,33.651217 C 54.887983,34.081421 55.055361,34.330379 55.259931,34.204458 C 55.464507,34.078537 55.631884,34.384261 55.631884,34.883848 C 55.631884,35.383433 55.441714,35.792187 55.209288,35.792187 C 54.976858,35.792187 54.909305,36.110432 55.059177,36.499402 C 55.209042,36.88837 55.125319,37.206617 54.873128,37.206617 C 54.620935,37.206617 54.464044,37.36574 54.524486,37.560224 C 54.695025,38.108996 52.873952,40.016975 52.436586,39.747762 C 52.222666,39.616085 52.047639,39.745557 52.047639,40.035477 C 52.047639,40.325398 51.852808,40.442679 51.61468,40.296103 C 51.376554,40.149527 51.110272,40.21637 51.022942,40.444643 C 50.935614,40.672915 49.952051,40.588552 48.837249,40.257171 z M 50.32693,35.757966 C 52.548906,34.017228 51.579991,30.134464 48.923627,30.134464 C 47.649258,30.134464 45.616952,31.837124 45.213437,33.242851 C 44.836225,34.556945 46.570715,36.735139 47.994336,36.735139 C 48.591238,36.735139 49.640906,36.295411 50.32693,35.757966 z "
     style="fill:#713737"
     id="path4532" />
  <path
     d="M 35.58551,58.892569 C 33.210682,57.450491 32.593746,54.736638 33.805949,51.064414 C 34.097395,50.18151 33.910563,50.040847 32.13059,49.803068 C 29.412418,49.439958 27.871175,47.838957 27.555624,45.050713 C 27.266475,42.495762 28.094557,40.921013 30.333631,39.767825 C 34.648844,37.545362 39.879792,42.734583 37.651116,47.026939 C 36.640094,48.974137 36.649743,48.993536 38.6293,48.993536 C 40.03952,48.993536 40.701467,49.3516 42.208897,50.929832 C 43.959185,52.762327 44.094023,52.819194 44.724192,51.990655 C 45.090418,51.509145 45.396833,51.001803 45.405114,50.863229 C 45.443713,50.217259 48.343588,48.993536 49.835753,48.993536 C 52.90041,48.993536 55.628788,52.574004 55.012169,55.786584 C 54.669551,57.571618 51.875072,59.83789 50.019256,59.835741 C 48.249078,59.833688 45.708822,58.426778 44.960335,57.033871 C 44.272723,55.75425 43.822495,55.812779 43.031601,57.284602 C 41.680847,59.798304 38.284802,60.531673 35.58551,58.892569 z M 38.758893,55.612232 C 40.060028,54.918699 40.879873,52.592187 40.241662,51.404502 C 39.104684,49.288629 37.221395,49.151509 35.123919,51.031885 C 32.362041,53.507894 35.437161,57.382778 38.758893,55.612232 z M 50.538205,55.104366 C 51.988126,53.759021 51.95171,51.147503 50.469541,50.180276 C 49.581266,49.600609 49.068343,49.562309 47.851508,49.984784 C 46.245892,50.542242 44.675691,52.856822 45.236132,53.840021 C 46.606785,56.24459 48.756798,56.757288 50.538205,55.104366 z M 33.940442,44.941942 C 35.256804,43.474674 35.29459,42.209235 34.05879,40.978431 C 32.779341,39.704154 30.947454,39.791034 29.540059,41.192738 C 28.117776,42.609272 28.04827,44.421748 29.365905,45.734056 C 30.596015,46.959191 32.412914,46.644582 33.940442,44.941942 z M 47.313732,39.681137 C 44.948109,38.504154 43.785042,35.980786 44.459075,33.487735 C 45.870868,28.265936 53.133508,28.375918 54.8797,33.645539 C 55.584971,35.773893 54.552852,38.263592 52.431169,39.551914 C 50.508727,40.719256 49.453792,40.745895 47.313732,39.681137 z M 50.32693,35.757966 C 52.548906,34.017228 51.579991,30.134464 48.923627,30.134464 C 47.649258,30.134464 45.616952,31.837124 45.213437,33.242851 C 44.836225,34.556945 46.570715,36.735139 47.994336,36.735139 C 48.591238,36.735139 49.640906,36.295411 50.32693,35.757966 z "
     style="fill:#0503d1"
     id="path4530" />
  <path
     d="M 35.58551,58.892569 C 33.771511,57.791049 32.994223,56.077442 33.246011,53.734929 L 33.426242,52.058135 L 33.50582,53.753099 C 33.674074,57.336781 37.746554,58.497052 40.27285,55.681067 C 41.945946,53.816122 42.043628,51.899456 40.537403,50.490151 C 38.988208,49.040643 36.589079,49.132743 34.941358,50.704976 C 33.816221,51.778569 33.674875,51.819202 33.887919,51.007817 C 34.097914,50.208041 33.840354,50.031468 32.13059,49.803068 C 29.412418,49.439958 27.871175,47.838957 27.555624,45.050713 C 27.266475,42.495762 28.094557,40.921013 30.333631,39.767825 C 34.648844,37.545362 39.879792,42.734583 37.651116,47.026939 C 36.640094,48.974137 36.649743,48.993536 38.6293,48.993536 C 40.03952,48.993536 40.701467,49.3516 42.208897,50.929832 C 43.964055,52.767426 44.093177,52.821499 44.742008,51.990655 C 45.360395,51.198793 45.378173,51.247289 44.928161,52.498435 C 43.839838,55.524249 46.709443,58.234397 49.696731,57.002022 C 51.458445,56.275246 52.99442,54.41172 52.99442,53.001089 C 52.99442,51.244708 51.284323,49.542231 49.313178,49.336252 L 47.550427,49.152049 L 49.526018,49.072793 C 52.873793,48.938487 55.669827,52.36019 55.012169,55.786584 C 54.669551,57.571618 51.875072,59.83789 50.019256,59.835741 C 48.249078,59.833688 45.708822,58.426778 44.960335,57.033871 C 44.272723,55.75425 43.822495,55.812779 43.031601,57.284602 C 41.680847,59.798304 38.284802,60.531673 35.58551,58.892569 z M 33.542228,46.894125 C 36.320604,45.463179 36.596442,41.535855 34.019737,40.095436 C 31.489861,38.681194 27.904709,40.983047 27.904709,44.021598 C 27.904709,47.091028 30.546397,48.437066 33.542228,46.894125 z M 47.46781,39.819007 C 45.78786,39.091219 44.699949,37.668575 44.208187,35.556448 L 43.878868,34.142018 L 45.01979,35.792187 C 47.021591,38.687486 51.131695,38.189823 52.50584,34.885755 C 53.243874,33.111185 52.534465,30.986947 50.948815,30.223448 C 50.159151,29.84322 50.103054,29.719326 50.709494,29.694896 C 51.93776,29.645418 54.293793,31.877404 54.8797,33.645539 C 55.584971,35.773893 54.552852,38.263592 52.431169,39.551914 C 50.606844,40.659677 49.540754,40.717048 47.46781,39.819007 z M 44.491917,33.280665 C 44.467924,32.165418 46.985976,29.657548 48.105751,29.681442 C 48.642743,29.6929 48.38126,29.954926 47.415991,30.372634 C 46.459329,30.786619 45.60158,31.6409 45.185914,32.593695 C 44.76651,33.55506 44.503421,33.815486 44.491917,33.280665 z "
     style="fill:#0c06a1"
     id="path4528" />
  <path
     d="M 35.648961,58.930999 C 33.652539,57.718573 33.083404,56.725884 34.929959,57.676914 C 36.843625,58.662507 38.255389,58.614224 39.944256,57.505418 C 42.527003,55.809742 43.371648,52.603994 41.751389,50.646647 C 41.295752,50.096214 41.61529,50.383095 42.461476,51.284159 C 43.307663,52.185222 43.999996,53.325385 43.999996,53.817852 C 43.999996,54.31032 44.217952,55.118855 44.484341,55.614598 C 44.857712,56.309428 44.823838,56.460583 44.336496,56.274331 C 43.977761,56.137226 43.417162,56.567091 43.040459,57.26812 C 41.695029,59.771911 38.293657,60.537128 35.648961,58.930999 z M 47.01034,58.930999 C 46.192563,58.434364 45.348699,57.745622 45.135086,57.400464 C 44.894224,57.011278 45.227903,57.086304 46.013561,57.597989 C 48.395423,59.149255 51.581584,58.248395 53.166953,55.575433 C 54.222126,53.796387 54.1389,52.20919 52.905505,50.589419 L 51.869806,49.229275 L 53.066182,50.301156 C 54.46125,51.551053 55.346288,54.045835 55.012169,55.786584 C 54.883312,56.457949 54.049652,57.644051 53.159591,58.422371 C 51.244918,60.096678 49.207304,60.265222 47.01034,58.930999 z M 13.546539,56.927789 C 10.615154,51.886619 9.3338946,44.191392 10.347987,37.717318 C 12.355769,24.899427 22.554976,13.959631 35.242267,11.015403 C 39.811253,9.9551193 47.456799,10.262304 51.309948,11.660975 C 55.913202,13.331929 55.508324,13.579703 48.643088,13.293023 C 40.732247,12.96268 36.792792,13.732866 30.59722,16.821096 C 22.485906,20.864241 16.203063,28.685528 13.842787,37.678093 C 12.6491,42.225995 12.770622,50.082873 14.108104,54.831924 C 14.683818,56.876129 15.059992,58.643144 14.944047,58.758618 C 14.828101,58.874096 14.199223,58.050219 13.546539,56.927789 z M 32.183604,49.84591 C 30.852985,49.615483 29.627115,49.016484 28.86987,48.226713 L 27.668015,46.973234 L 28.838475,47.747647 C 29.482231,48.173575 30.834944,48.52206 31.844507,48.52206 C 33.30083,48.52206 34.012622,48.190859 35.289606,46.919039 C 37.13106,45.085029 37.428767,42.907117 36.103422,40.965468 L 35.30771,39.799738 L 36.344205,40.701581 C 36.914278,41.197595 37.625061,42.415727 37.923724,43.408544 C 38.375218,44.909401 38.331305,45.512806 37.663206,46.988396 C 36.557022,49.431556 34.870272,50.311167 32.183604,49.84591 z M 47.550244,39.853527 C 46.769048,39.514443 45.825254,38.871433 45.452923,38.424615 C 44.812599,37.656193 44.867558,37.655725 46.468282,38.415971 C 48.636525,39.445753 50.297751,39.043725 52.359578,36.990234 C 54.040293,35.316316 54.366492,33.696362 53.390308,31.871506 C 52.898163,30.951503 52.920822,30.90855 53.60279,31.468739 C 54.022645,31.813623 54.600579,32.803211 54.887085,33.667823 C 55.584488,35.772433 54.541964,38.270202 52.431169,39.551914 C 50.623952,40.64929 49.538131,40.716387 47.550244,39.853527 z "
     style="fill:#512828"
     id="path4526" />
  <path
     d="M 36.188866,59.164913 C 35.40767,58.836369 34.449053,58.18402 34.058606,57.715245 C 33.377609,56.897634 33.410392,56.894691 34.863716,57.643001 C 36.842753,58.661999 38.240268,58.624153 39.944256,57.505418 C 42.527003,55.809742 43.371648,52.603994 41.751389,50.646647 C 41.295752,50.096214 41.61529,50.383095 42.461476,51.284159 C 43.307663,52.185222 43.999996,53.325385 43.999996,53.817852 C 43.999996,54.31032 44.209326,55.102806 44.465174,55.578931 C 44.851526,56.297915 44.779041,56.405199 44.03742,56.212044 C 43.433504,56.054755 43.04713,56.284987 42.843695,56.923362 C 42.199804,58.943885 38.570231,60.166438 36.188866,59.164913 z M 47.550244,59.164913 C 46.769048,58.836369 45.810431,58.167425 45.419985,57.67837 C 44.730282,56.814483 44.74665,56.812428 45.995251,57.606126 C 48.414111,59.14373 51.582689,58.246534 53.166953,55.575433 C 54.218586,53.802355 54.139633,52.213641 52.919169,50.589419 L 51.897135,49.229275 L 53.207735,50.470342 C 54.138062,51.351313 54.588067,52.327609 54.758677,53.835137 C 54.976319,55.758215 54.848428,56.115397 53.404983,57.615758 C 51.586142,59.506329 49.60713,60.02997 47.550244,59.164913 z M 32.183604,49.84591 C 30.852985,49.615483 29.627115,49.016484 28.86987,48.226713 L 27.668015,46.973234 L 28.838475,47.747647 C 29.482231,48.173575 30.834944,48.52206 31.844507,48.52206 C 33.30083,48.52206 34.012622,48.190859 35.289606,46.919039 C 37.113234,45.102785 37.424335,42.947221 36.148859,40.965468 C 35.491475,39.94407 35.550085,39.963523 36.622249,41.122591 C 37.295266,41.85016 37.870447,42.910984 37.900428,43.479975 C 37.990295,45.185413 37.789573,46.37399 37.331596,46.848318 C 37.093742,47.094664 36.897787,47.625075 36.896142,48.027009 C 36.890753,49.342683 34.532902,50.252744 32.183604,49.84591 z M 46.038305,38.845187 L 44.710083,37.654895 L 46.435344,38.437308 C 48.646324,39.439996 50.307213,39.034302 52.359578,36.990234 C 54.020075,35.336451 54.354681,33.752757 53.441083,31.871506 C 52.998895,30.960975 53.059393,30.977577 53.963328,32.014822 C 55.474383,33.748729 55.03127,36.945827 53.033495,38.723621 C 51.027726,40.508529 47.954003,40.561945 46.038305,38.845187 z "
     style="fill:#160b5e"
     id="path4524" />
</svg>
