<?xml version="1.0" encoding="UTF-8" standalone="no"?>
<svg
   xmlns:dc="http://purl.org/dc/elements/1.1/"
   xmlns:cc="http://web.resource.org/cc/"
   xmlns:rdf="http://www.w3.org/1999/02/22-rdf-syntax-ns#"
   xmlns:svg="http://www.w3.org/2000/svg"
   xmlns="http://www.w3.org/2000/svg"
   xmlns:sodipodi="http://inkscape.sourceforge.net/DTD/sodipodi-0.dtd"
   xmlns:inkscape="http://www.inkscape.org/namespaces/inkscape"
   baseProfile="tiny"
   width="100%"
   height="100%"
   viewBox="0 0 88 87.999"
   id="svg1423"
   sodipodi:version="0.32"
   inkscape:version="0.43"
   sodipodi:docname="bantumi.svg"
   sodipodi:docbase="/Users/martin/Desktop">
  <metadata
     id="metadata1504">
    <rdf:RDF>
      <cc:Work
         rdf:about="">
        <dc:format>image/svg+xml</dc:format>
        <dc:type
           rdf:resource="http://purl.org/dc/dcmitype/StillImage" />
      </cc:Work>
    </rdf:RDF>
  </metadata>
  <defs
     id="defs1502" />
  <sodipodi:namedview
     inkscape:window-height="539"
     inkscape:window-width="726"
     inkscape:pageshadow="2"
     inkscape:pageopacity="0.0"
     borderopacity="1.0"
     bordercolor="#666666"
     pagecolor="#ffffff"
     id="base"
     inkscape:zoom="4.2500483"
     inkscape:cx="44"
     inkscape:cy="43.187365"
     inkscape:window-x="20"
     inkscape:window-y="42"
     inkscape:current-layer="svg1423" />
  <g
     id="g4560"
     transform="matrix(1.393132,0,0,1.393132,40.78164,2.343437)">
    <path
       style="fill:#d6b2b2"
       d="M -3.13985,57.006786 C -13.208344,55.542761 -23.087056,46.110903 -24.643025,36.476286 C -25.157936,33.287936 -25.157936,26.576589 -24.643025,23.388241 C -23.444703,15.968187 -17.002997,8.166745 -9.054395,4.5091135 C -6.903117,3.5191803 -5.632327,3.1996814 -2.057753,2.7500352 C 1.97251,2.2430678 2.647807,2.2430678 6.67807,2.7500352 C 10.252645,3.1996814 11.523435,3.5191803 13.674712,4.5091135 C 21.623315,8.166745 28.065019,15.968187 29.263342,23.388241 C 29.778253,26.576589 29.778253,33.287936 29.263342,36.476286 C 28.035715,44.077796 21.165532,52.189471 13.094641,55.56679 C 8.915088,57.315752 2.747377,57.862827 -3.13985,57.006786 z "
       id="path4544" />
    <path
       style="fill:#af6c6c"
       d="M -1.597579,57.188259 C -2.345146,57.031079 -3.851712,56.650566 -4.945505,56.34268 C -16.745939,53.021005 -25.213904,41.986955 -25.213904,29.932263 C -25.213904,19.749202 -19.068235,9.965679 -9.752856,5.3192348 C -8.818398,4.8531333 -6.754093,4.0417401 -5.165513,3.5161388 C -2.568309,2.6568221 -1.814811,2.5605 2.310159,2.5605 C 6.435128,2.5605 7.188627,2.6568221 9.78583,3.5161388 C 14.75129,5.1590227 17.663129,6.8540336 21.124134,10.116284 C 26.64051,15.315868 29.834222,22.581758 29.834222,29.932263 C 29.834222,44.411517 17.703093,56.886427 3.159667,57.36275 C 1.290749,57.423961 -0.850011,57.345439 -1.597579,57.188259 z "
       id="path4542" />
    <path
       style="fill:#a65353"
       d="M -1.597579,57.175828 L -2.956792,56.933449 L -1.76748,56.84586 C -0.700363,56.767273 -0.761894,56.727789 -2.366365,56.461583 C -6.267999,55.814246 -10.52525,53.950691 -14.343078,51.218947 C -16.597367,49.605948 -20.021844,45.627938 -21.444369,42.969798 C -22.705071,40.614042 -24.18353,36.474719 -24.218378,35.203249 C -24.239242,34.441977 -24.275128,34.415539 -24.50232,34.994064 C -24.908322,36.027916 -25.212753,33.565511 -25.169961,29.593833 C -25.137837,26.612406 -24.721932,23.308961 -24.552139,24.686607 C -24.517727,24.965812 -24.282818,24.432785 -24.030118,23.502104 C -21.913867,15.708047 -16.821011,9.219056 -10.190351,5.8683634 C -8.206936,4.8660779 -3.686128,3.3771549 -2.488663,3.3318213 L -1.597579,3.2980866 L -2.447087,3.0491142 C -3.843249,2.6399293 1.918813,2.2448037 5.113536,2.5306547 C 6.655393,2.668614 7.646819,2.877697 7.316705,2.9952835 C 6.914833,3.1384307 7.363975,3.3571859 8.675918,3.6572893 C 13.943262,4.8621796 19.391701,8.218566 22.869166,12.400712 C 25.177245,15.176509 27.969718,20.653456 28.615585,23.671319 C 28.883269,24.922074 29.11844,25.506096 29.160698,25.025037 C 29.342024,22.960914 29.753814,26.367935 29.753814,29.932263 C 29.753814,33.49659 29.342024,36.90361 29.160698,34.839489 C 29.11844,34.358429 28.883269,34.942452 28.615585,36.193206 C 27.972362,39.198717 25.180246,44.68443 22.894906,47.432731 C 19.147427,51.939368 12.911633,55.478544 6.986683,56.461583 C 5.393436,56.725927 5.328145,56.767202 6.387798,56.840194 C 7.557372,56.920761 7.551733,56.926616 6.047995,57.193102 C 4.20833,57.519121 0.277734,57.510241 -1.597579,57.175828 z "
       id="path4540" />
    <path
       style="fill:#924949"
       d="M -5.488672,55.113507 C -9.639522,54.04689 -12.948552,52.157841 -16.323986,48.927874 C -21.019052,44.435147 -23.554124,39.261895 -24.526412,32.189412 C -24.911179,29.390596 -24.432373,25.358894 -23.293744,21.809958 C -21.815202,17.201563 -18.151616,11.885934 -14.415579,8.928307 C -12.130565,7.1193795 -7.270187,4.7149393 -4.146103,3.8479726 C -1.062756,2.992311 5.714806,2.9974099 8.76642,3.8576869 C 16.950306,6.1647965 23.54251,11.85132 26.467669,19.127022 C 28.365348,23.847085 28.596869,28.706971 27.115181,32.718926 C 26.423161,34.592699 25.223938,36.452382 24.909555,36.139273 C 24.82682,36.056873 24.597691,34.550439 24.400377,32.791644 C 23.45972,24.406924 20.550824,18.756202 15.042722,14.613787 C 13.71104,13.612284 11.484116,12.367054 9.955732,11.769291 C 6.458356,10.401442 1.091152,10.057306 -2.447087,10.974044 C -12.042908,13.460266 -18.580441,22.343112 -17.99069,32.093852 C -17.541348,39.523111 -12.937483,46.269562 -6.094529,49.526346 C -1.664884,51.634558 2.989442,52.172109 9.21018,51.29396 C 10.855935,51.061638 12.268874,50.978581 12.350047,51.10939 C 12.528219,51.39651 10.432727,53.02574 8.774912,53.889033 C 4.891015,55.911531 -0.561512,56.379609 -5.488672,55.113507 z M -4.186813,41.122282 C -5.76933,40.051281 -6.33277,38.676456 -6.052267,36.570471 C -5.83545,34.942633 -5.843604,34.924398 -6.880671,34.717823 C -8.305531,34.434003 -9.822767,32.837838 -10.108226,31.322366 C -10.822362,27.531081 -6.582152,24.666614 -3.250735,26.689798 C -1.789652,27.57712 -0.858781,29.975328 -1.388268,31.488077 C -1.885097,32.907519 -1.866752,33.164039 -1.284328,32.941446 C -0.726332,32.728188 0.456101,33.275893 1.520963,34.240861 L 2.260882,34.911369 L 3.423084,34.028498 C 6.034805,32.044495 9.21298,32.786803 10.498438,35.681047 C 11.238741,37.347856 11.121332,38.478336 10.04929,40.005644 C 8.381707,42.381405 5.387976,42.589955 3.074716,40.491503 L 2.310159,39.797943 L 1.545601,40.491503 C -0.322944,42.186537 -2.293816,42.403406 -4.186813,41.122282 z M 4.456464,27.413205 C 1.068127,25.881069 1.0704,21.151037 4.46027,19.489654 C 7.010916,18.239577 9.813915,19.463827 10.74133,22.232994 C 11.401819,24.205158 10.078863,26.657983 7.842876,27.606874 C 6.438935,28.202666 6.168115,28.187178 4.456464,27.413205 z "
       id="path4538" />
    <path
       style="fill:#0e0def"
       d="M -9.418902,50.967859 C -12.854023,49.497323 -14.224343,48.572321 -16.778351,46.000024 C -24.383984,38.339935 -25.691617,26.225668 -19.962081,16.505098 C -17.071938,11.601764 -11.855457,7.3822887 -6.465131,5.5877683 C 0.425308,3.2938379 6.692476,3.7589702 13.013961,7.0334537 C 17.210021,9.206984 22.35855,15.02784 22.35855,17.598322 C 22.35855,18.194765 21.972306,17.963922 20.078539,16.235642 C 15.225424,11.806624 10.153762,9.547439 4.348978,9.228869 C -2.251718,8.866618 -7.815181,11.00058 -12.483693,15.685329 C -16.326024,19.541023 -17.89717,22.694371 -18.764291,28.290724 C -19.440759,32.656619 -18.234026,38.183053 -15.657679,42.517961 C -14.232993,44.915107 -11.048585,48.158252 -8.282805,50.028863 C -7.12897,50.809251 -6.184922,51.51822 -6.184922,51.604353 C -6.184922,51.970111 -7.837409,51.644877 -9.418902,50.967859 z M -3.909962,40.977684 C -5.786922,39.745114 -6.339222,38.106483 -5.722188,35.600955 C -5.480602,34.619974 -5.529536,34.50106 -6.174798,34.50106 C -8.169711,34.50106 -10.015432,32.526537 -10.015432,30.39241 C -10.015432,28.853946 -9.254354,27.597309 -7.780525,26.702292 C -5.71814,25.44986 -3.220357,26.236348 -2.05884,28.503903 C -1.392621,29.804521 -1.370187,30.571184 -1.945246,32.385876 C -2.159333,33.061463 -2.069836,33.147342 -1.1517,33.147342 C -0.448984,33.147342 0.262411,33.503588 1.064853,34.257328 L 2.246559,35.367314 L 3.46268,34.257328 C 4.469236,33.338618 4.948762,33.147342 6.245401,33.147342 C 8.234861,33.147342 9.522955,34.030402 10.279163,35.912711 C 10.80908,37.231751 10.810201,37.436339 10.294879,38.780239 C 9.071622,41.970338 5.304832,42.590341 3.074716,39.968657 L 2.310159,39.069856 L 1.545601,39.968657 C 0.061434,41.713416 -2.163062,42.124848 -3.909962,40.977684 z M 4.493102,27.091112 C 1.906233,25.920954 1.296378,22.892614 3.195029,20.645318 C 6.255327,17.023065 12.316039,20.716577 10.237894,24.937372 C 9.554091,26.326199 7.709596,27.736664 6.592399,27.725039 C 6.199531,27.720951 5.254847,27.435684 4.493102,27.091112 z "
       id="path4536" />
    <path
       style="fill:#66335a"
       d="M -9.418902,50.967859 C -12.854023,49.497323 -14.224343,48.572321 -16.778351,46.000024 C -24.383984,38.339935 -25.691617,26.225668 -19.962081,16.505098 C -17.071938,11.601764 -11.855457,7.3822887 -6.465131,5.5877683 C 0.425308,3.2938379 6.692476,3.7589702 13.013961,7.0334537 C 17.210021,9.206984 22.35855,15.02784 22.35855,17.598322 C 22.35855,18.194765 21.972306,17.963922 20.078539,16.235642 C 15.225424,11.806624 10.153762,9.547439 4.348978,9.228869 C -2.251718,8.866618 -7.815181,11.00058 -12.483693,15.685329 C -16.326024,19.541023 -17.89717,22.694371 -18.764291,28.290724 C -19.440759,32.656619 -18.234026,38.183053 -15.657679,42.517961 C -14.232993,44.915107 -11.048585,48.158252 -8.282805,50.028863 C -7.12897,50.809251 -6.184922,51.51822 -6.184922,51.604353 C -6.184922,51.970111 -7.837409,51.644877 -9.418902,50.967859 z M -3.909962,40.977684 C -5.786922,39.745114 -6.339222,38.106483 -5.722188,35.600955 C -5.480602,34.619974 -5.529536,34.50106 -6.174798,34.50106 C -8.169711,34.50106 -10.015432,32.526537 -10.015432,30.39241 C -10.015432,28.853946 -9.254354,27.597309 -7.780525,26.702292 C -5.71814,25.44986 -3.220357,26.236348 -2.05884,28.503903 C -1.392621,29.804521 -1.370187,30.571184 -1.945246,32.385876 C -2.159333,33.061463 -2.069836,33.147342 -1.1517,33.147342 C -0.448984,33.147342 0.262411,33.503588 1.064853,34.257328 L 2.246559,35.367314 L 3.46268,34.257328 C 4.469236,33.338618 4.948762,33.147342 6.245401,33.147342 C 8.234861,33.147342 9.522955,34.030402 10.279163,35.912711 C 10.80908,37.231751 10.810201,37.436339 10.294879,38.780239 C 9.071622,41.970338 5.304832,42.590341 3.074716,39.968657 L 2.310159,39.069856 L 1.545601,39.968657 C 0.061434,41.713416 -2.163062,42.124848 -3.909962,40.977684 z M -1.451942,38.236718 C -0.517978,37.738895 0.070512,36.068908 -0.3876,35.216379 C -1.203731,33.697591 -2.555569,33.599165 -4.061152,34.948912 C -6.043648,36.726209 -3.836305,39.507628 -1.451942,38.236718 z M 7.003331,37.872168 C 8.044095,36.90647 8.017955,35.031904 6.954044,34.337621 C 6.316434,33.921532 5.948254,33.89404 5.074801,34.197296 C 3.922279,34.597443 2.795177,36.258865 3.197466,36.964612 C 4.18133,38.690629 5.724625,39.058647 7.003331,37.872168 z M -4.91066,30.577508 C -3.965766,29.524293 -3.938643,28.615952 -4.825709,27.732472 C -5.744107,26.817787 -7.059048,26.88015 -8.069286,27.886303 C -9.090211,28.903101 -9.140103,30.204109 -8.194295,31.146093 C -7.311314,32.025504 -6.007131,31.799675 -4.91066,30.577508 z M 4.493102,27.091112 C 1.906233,25.920954 1.296378,22.892614 3.195029,20.645318 C 6.255327,17.023065 12.316039,20.716577 10.237894,24.937372 C 9.554091,26.326199 7.709596,27.736664 6.592399,27.725039 C 6.199531,27.720951 5.254847,27.435684 4.493102,27.091112 z M 6.851677,23.985185 C 8.446627,22.735671 7.751133,19.948596 5.844376,19.948596 C 4.929625,19.948596 3.470821,21.170777 3.181175,22.179818 C 2.91041,23.123084 4.155439,24.686607 5.177324,24.686607 C 5.605785,24.686607 6.359244,24.370967 6.851677,23.985185 z "
       id="path4534" />
    <path
       style="fill:#713737"
       d="M -9.418902,50.967859 C -12.854023,49.497323 -14.224343,48.572321 -16.778351,46.000024 C -24.383984,38.339935 -25.691617,26.225668 -19.962081,16.505098 C -17.071938,11.601764 -11.855457,7.3822887 -6.465131,5.5877683 C 0.425308,3.2938379 6.692476,3.7589702 13.013961,7.0334537 C 17.210021,9.206984 22.35855,15.02784 22.35855,17.598322 C 22.35855,18.194765 21.972306,17.963922 20.078539,16.235642 C 15.225424,11.806624 10.153762,9.547439 4.348978,9.228869 C -2.251718,8.866618 -7.815181,11.00058 -12.483693,15.685329 C -16.326024,19.541023 -17.89717,22.694371 -18.764291,28.290724 C -19.440759,32.656619 -18.234026,38.183053 -15.657679,42.517961 C -14.232993,44.915107 -11.048585,48.158252 -8.282805,50.028863 C -7.12897,50.809251 -6.184922,51.51822 -6.184922,51.604353 C -6.184922,51.970111 -7.837409,51.644877 -9.418902,50.967859 z M -2.927611,41.299064 C -2.851557,41.222176 -3.251327,40.879448 -3.815989,40.537442 C -5.434368,39.557228 -5.86169,37.560833 -5.0072,34.972262 C -4.797998,34.338507 -4.932108,34.237538 -6.209785,34.066859 C -8.160908,33.806216 -9.267223,32.657006 -9.493728,30.655585 C -9.889605,27.157571 -6.18502,25.191656 -3.363224,27.402307 C -2.417351,28.143323 -1.189456,31.206894 -1.762126,31.397013 C -1.954291,31.460809 -2.025085,31.652292 -1.919445,31.82253 C -1.813805,31.992768 -1.898332,32.132054 -2.107283,32.132054 C -2.316235,32.132054 -2.392691,32.284347 -2.277185,32.470483 C -2.161679,32.656619 -2.229111,32.808913 -2.427032,32.808913 C -2.624954,32.808913 -2.78689,32.961206 -2.78689,33.147342 C -2.78689,33.333478 -2.228024,33.485771 -1.544965,33.485771 C -0.532699,33.485771 -0.057549,33.742792 1.024495,34.875658 C 2.280864,36.191036 2.377652,36.231855 2.829992,35.637124 C 3.092871,35.291493 3.312818,34.927319 3.318762,34.82785 C 3.346469,34.364168 5.42802,33.485771 6.499106,33.485771 C 7.984799,33.485771 9.646807,34.792365 9.958399,36.205309 C 10.080793,36.760309 10.321404,37.127938 10.493087,37.02226 C 10.664772,36.916582 10.80524,37.067546 10.80524,37.357735 C 10.80524,37.647925 10.63597,37.885353 10.429081,37.885353 C 10.222195,37.885353 10.136106,38.101244 10.237772,38.365114 C 10.42586,38.853282 8.471381,41.171056 8.002544,41.015825 C 7.862001,40.969291 7.747011,41.05286 7.747011,41.201528 C 7.747011,41.3502 7.150612,41.46442 6.42168,41.45535 C 5.692748,41.446284 5.152763,41.346911 5.221713,41.234528 C 5.290664,41.122143 4.977681,40.862564 4.526197,40.657689 C 4.074713,40.452811 3.450275,39.897512 3.138558,39.423698 C 2.505493,38.461421 1.970356,38.299334 1.970356,39.069856 C 1.970356,39.34906 1.80842,39.5775 1.610498,39.5775 C 1.412577,39.5775 1.334437,39.712537 1.436855,39.877582 C 1.668108,40.250244 0.802221,41.008715 0.494927,40.702663 C 0.371954,40.580185 0.271339,40.666641 0.271339,40.894786 C 0.271339,41.122931 0.118428,41.215471 -0.068464,41.100433 C -0.255356,40.985394 -0.408267,41.0219 -0.408267,41.181557 C -0.408267,41.341212 -1.006233,41.46442 -1.73708,41.45535 C -2.467926,41.446284 -3.003666,41.375955 -2.927611,41.299064 z M -1.451942,38.236718 C -0.517978,37.738895 0.070512,36.068908 -0.3876,35.216379 C -1.203731,33.697591 -2.555569,33.599165 -4.061152,34.948912 C -6.043648,36.726209 -3.836305,39.507628 -1.451942,38.236718 z M 7.003331,37.872168 C 8.044095,36.90647 8.017955,35.031904 6.954044,34.337621 C 6.316434,33.921532 5.948254,33.89404 5.074801,34.197296 C 3.922279,34.597443 2.795177,36.258865 3.197466,36.964612 C 4.18133,38.690629 5.724625,39.058647 7.003331,37.872168 z M -4.91066,30.577508 C -3.965766,29.524293 -3.938643,28.615952 -4.825709,27.732472 C -5.744107,26.817787 -7.059048,26.88015 -8.069286,27.886303 C -9.090211,28.903101 -9.140103,30.204109 -8.194295,31.146093 C -7.311314,32.025504 -6.007131,31.799675 -4.91066,30.577508 z M 5.782373,27.214746 C 3.97106,26.676323 3.350932,26.172843 2.757475,24.75884 C 2.399957,23.906997 2.374418,23.336756 2.648402,22.323373 C 3.131146,20.537846 4.378888,19.610167 6.297702,19.610167 C 7.570153,19.610167 8.001389,19.795831 8.970302,20.760826 C 9.605735,21.393689 10.125633,22.164144 10.125633,22.472946 C 10.125633,22.781749 10.245778,22.960453 10.39262,22.870066 C 10.539466,22.779679 10.65961,22.99913 10.65961,23.357737 C 10.65961,23.716343 10.523105,24.009749 10.356268,24.009749 C 10.189428,24.009749 10.140938,24.238188 10.248517,24.517393 C 10.356091,24.796597 10.295994,25.025037 10.11497,25.025037 C 9.933944,25.025037 9.821326,25.139257 9.864712,25.278859 C 9.987126,25.672771 8.679947,27.042332 8.366003,26.849089 C 8.212449,26.75457 8.086814,26.847506 8.086814,27.055613 C 8.086814,27.26372 7.946963,27.347905 7.776033,27.242692 C 7.605104,27.137479 7.413965,27.185459 7.351279,27.349315 C 7.288594,27.51317 6.582586,27.452614 5.782373,27.214746 z M 6.851677,23.985185 C 8.446627,22.735671 7.751133,19.948596 5.844376,19.948596 C 4.929625,19.948596 3.470821,21.170777 3.181175,22.179818 C 2.91041,23.123084 4.155439,24.686607 5.177324,24.686607 C 5.605785,24.686607 6.359244,24.370967 6.851677,23.985185 z "
       id="path4532" />
    <path
       style="fill:#0503d1"
       d="M -3.729819,40.591367 C -5.434487,39.556233 -5.877328,37.60821 -5.0072,34.972262 C -4.797998,34.338507 -4.932108,34.237538 -6.209785,34.066859 C -8.160908,33.806216 -9.267223,32.657006 -9.493728,30.655585 C -9.701281,28.821623 -9.106878,27.691257 -7.499655,26.86349 C -4.402164,25.268191 -0.647353,28.99305 -2.247112,32.074134 C -2.972831,33.471846 -2.965905,33.485771 -1.544965,33.485771 C -0.532699,33.485771 -0.057549,33.742792 1.024495,34.875658 C 2.280864,36.191036 2.377652,36.231855 2.829992,35.637124 C 3.092871,35.291493 3.312818,34.927319 3.318762,34.82785 C 3.346469,34.364168 5.42802,33.485771 6.499106,33.485771 C 8.698939,33.485771 10.657388,36.055856 10.214774,38.361869 C 9.968841,39.643179 7.962944,41.269925 6.630826,41.268382 C 5.36018,41.266909 3.536766,40.257019 2.999497,39.25718 C 2.505924,38.338659 2.182747,38.380672 1.615038,39.437157 C 0.645457,41.24151 -1.792248,41.767927 -3.729819,40.591367 z M -1.451942,38.236718 C -0.517978,37.738895 0.070512,36.068908 -0.3876,35.216379 C -1.203731,33.697591 -2.555569,33.599165 -4.061152,34.948912 C -6.043648,36.726209 -3.836305,39.507628 -1.451942,38.236718 z M 7.003331,37.872168 C 8.044095,36.90647 8.017955,35.031904 6.954044,34.337621 C 6.316434,33.921532 5.948254,33.89404 5.074801,34.197296 C 3.922279,34.597443 2.795177,36.258865 3.197466,36.964612 C 4.18133,38.690629 5.724625,39.058647 7.003331,37.872168 z M -4.91066,30.577508 C -3.965766,29.524293 -3.938643,28.615952 -4.825709,27.732472 C -5.744107,26.817787 -7.059048,26.88015 -8.069286,27.886303 C -9.090211,28.903101 -9.140103,30.204109 -8.194295,31.146093 C -7.311314,32.025504 -6.007131,31.799675 -4.91066,30.577508 z M -19.549548,39.181034 C -21.653717,35.562446 -22.573414,30.038758 -21.845491,25.391622 C -20.404291,16.190849 -13.083228,8.338186 -3.976201,6.2247986 C -0.696551,5.4637194 4.791476,5.6842187 7.557294,6.6881944 C 10.861542,7.887617 10.570918,8.065471 5.643003,7.85969 C -0.035455,7.622568 -2.863223,8.175413 -7.310449,10.392166 C -13.132807,13.294364 -17.642676,18.908539 -19.336899,25.363466 C -20.193736,28.627982 -20.106507,34.267705 -19.146453,37.676607 C -18.733201,39.143952 -18.463181,40.412328 -18.546407,40.495216 C -18.629634,40.578107 -19.081047,39.986722 -19.549548,39.181034 z M 4.688782,26.801265 C 2.990721,25.956418 2.155863,24.145127 2.639689,22.355597 C 3.653084,18.607353 8.866258,18.686299 10.119687,22.46887 C 10.625936,23.996618 9.885073,25.783741 8.362114,26.708508 C 6.982172,27.546434 6.224932,27.565556 4.688782,26.801265 z M 6.851677,23.985185 C 8.446627,22.735671 7.751133,19.948596 5.844376,19.948596 C 4.929625,19.948596 3.470821,21.170777 3.181175,22.179818 C 2.91041,23.123084 4.155439,24.686607 5.177324,24.686607 C 5.605785,24.686607 6.359244,24.370967 6.851677,23.985185 z "
       id="path4530" />
    <path
       style="fill:#0c06a1"
       d="M -3.729819,40.591367 C -5.03192,39.800688 -5.589863,38.570649 -5.409128,36.889176 L -5.279757,35.685562 L -5.222635,36.902219 C -5.101861,39.474611 -2.178606,40.307462 -0.365213,38.286128 C 0.835747,36.947457 0.905864,35.571661 -0.175315,34.560052 C -1.287338,33.519585 -3.00945,33.585695 -4.192196,34.714255 C -4.999827,35.484887 -5.101286,35.514054 -4.948362,34.931636 C -4.797626,34.357551 -4.982504,34.230806 -6.209785,34.066859 C -8.160908,33.806216 -9.267223,32.657006 -9.493728,30.655585 C -9.701281,28.821623 -9.106878,27.691257 -7.499655,26.86349 C -4.402164,25.268191 -0.647353,28.99305 -2.247112,32.074134 C -2.972831,33.471846 -2.965905,33.485771 -1.544965,33.485771 C -0.532699,33.485771 -0.057549,33.742792 1.024495,34.875658 C 2.28436,36.194696 2.377045,36.23351 2.84278,35.637124 C 3.286663,35.06872 3.299424,35.103531 2.976402,36.001612 C 2.195196,38.173563 4.255019,40.118926 6.399315,39.234319 C 7.663886,38.712634 8.76642,37.374982 8.76642,36.362421 C 8.76642,35.101678 7.5389,33.879628 6.123998,33.731775 L 4.858683,33.599553 L 6.276776,33.542662 C 8.679833,33.446256 10.686846,35.902379 10.214774,38.361869 C 9.968841,39.643179 7.962944,41.269925 6.630826,41.268382 C 5.36018,41.266909 3.536766,40.257019 2.999497,39.25718 C 2.505924,38.338659 2.182747,38.380672 1.615038,39.437157 C 0.645457,41.24151 -1.792248,41.767927 -3.729819,40.591367 z M -5.196501,31.978799 C -3.202163,30.951656 -3.004165,28.132595 -4.853742,27.098652 C -6.669705,26.083499 -9.243152,27.735785 -9.243152,29.916879 C -9.243152,32.120137 -7.34693,33.086333 -5.196501,31.978799 z M -19.549548,39.181034 C -21.653717,35.562446 -22.573414,30.038758 -21.845491,25.391622 C -20.404291,16.190849 -13.083228,8.338186 -3.976201,6.2247986 C -0.696551,5.4637194 4.791476,5.6842187 7.557294,6.6881944 C 10.861542,7.887617 10.570918,8.065471 5.643003,7.85969 C -0.035455,7.622568 -2.863223,8.175413 -7.310449,10.392166 C -13.132807,13.294364 -17.642676,18.908539 -19.336899,25.363466 C -20.193736,28.627982 -20.106507,34.267705 -19.146453,37.676607 C -18.733201,39.143952 -18.463181,40.412328 -18.546407,40.495216 C -18.629634,40.578107 -19.081047,39.986722 -19.549548,39.181034 z M 4.79938,26.900229 C 3.5935,26.377818 2.81259,25.356634 2.4596,23.840534 L 2.223212,22.825246 L 3.042174,24.009749 C 4.479081,26.088015 7.429343,25.730789 8.415714,23.359106 C 8.94548,22.085307 8.436261,20.560514 7.29807,20.012469 C 6.731244,19.739539 6.690977,19.650607 7.126284,19.633071 C 8.007942,19.597555 9.699119,21.19969 10.119687,22.46887 C 10.625936,23.996618 9.885073,25.783741 8.362114,26.708508 C 7.052601,27.503668 6.287354,27.544849 4.79938,26.900229 z M 2.663263,22.206961 C 2.646041,21.406429 4.453516,19.606262 5.257299,19.623413 C 5.642755,19.631638 5.455061,19.819722 4.762184,20.119556 C 4.075485,20.416717 3.459787,21.029926 3.161419,21.713849 C 2.860368,22.403924 2.671521,22.590859 2.663263,22.206961 z "
       id="path4528" />
    <path
       style="fill:#512828"
       d="M -3.684273,40.618952 C -5.117319,39.748664 -5.525848,39.036105 -4.200378,39.718761 C -2.826735,40.426227 -1.813361,40.391569 -0.60108,39.59566 C 1.252834,38.378492 1.859126,36.077383 0.696093,34.672386 C 0.369033,34.277281 0.5984,34.483206 1.205798,35.129996 C 1.813197,35.776786 2.310159,36.595203 2.310159,36.948699 C 2.310159,37.302196 2.466609,37.882568 2.657825,38.238416 C 2.925833,38.73717 2.901518,38.84567 2.551701,38.711977 C 2.294198,38.613562 1.891796,38.922122 1.621396,39.425326 C 0.655637,41.222565 -1.785892,41.771843 -3.684273,40.618952 z M 4.471005,40.618952 C 3.883999,40.262464 3.278267,39.76808 3.124934,39.520323 C 2.952042,39.240963 3.191559,39.294817 3.75551,39.662108 C 5.465227,40.775618 7.752276,40.128974 8.890265,38.210303 C 9.647676,36.933291 9.587936,35.79399 8.702596,34.631307 L 7.959164,33.654986 L 8.817931,34.42439 C 9.819321,35.321575 10.454607,37.112347 10.214774,38.361869 C 10.12228,38.843779 9.523873,39.695172 8.884981,40.253855 C 7.510615,41.455685 6.048001,41.576667 4.471005,40.618952 z M -19.549548,39.181034 C -21.653717,35.562446 -22.573414,30.038758 -21.845491,25.391622 C -20.404291,16.190849 -13.083228,8.338186 -3.976201,6.2247986 C -0.696551,5.4637194 4.791476,5.6842187 7.557294,6.6881944 C 10.861542,7.887617 10.570918,8.065471 5.643003,7.85969 C -0.035455,7.622568 -2.863223,8.175413 -7.310449,10.392166 C -13.132807,13.294364 -17.642676,18.908539 -19.336899,25.363466 C -20.193736,28.627982 -20.106507,34.267705 -19.146453,37.676607 C -18.733201,39.143952 -18.463181,40.412328 -18.546407,40.495216 C -18.629634,40.578107 -19.081047,39.986722 -19.549548,39.181034 z M -6.171731,34.097611 C -7.126859,33.932209 -8.006797,33.502243 -8.550353,32.93534 L -9.413053,32.035584 L -8.572888,32.591463 C -8.110796,32.897197 -7.139809,33.147342 -6.415137,33.147342 C -5.369778,33.147342 -4.858849,32.909604 -3.942221,31.996682 C -2.620412,30.680217 -2.406716,29.116896 -3.358058,27.723167 L -3.929226,26.886398 L -3.185222,27.533747 C -2.77602,27.889789 -2.265815,28.764173 -2.051432,29.476824 C -1.727347,30.55415 -1.758868,30.987278 -2.238434,32.046467 C -3.032461,33.800185 -4.243222,34.431576 -6.171731,34.097611 z M 4.858552,26.925008 C 4.297804,26.681611 3.620342,26.220054 3.35308,25.899325 C 2.893451,25.347746 2.932901,25.34741 4.081912,25.89312 C 5.638292,26.632305 6.830732,26.343726 8.310726,24.869716 C 9.517155,23.668166 9.751303,22.505351 9.050591,21.195457 C 8.697326,20.535072 8.713591,20.50424 9.203112,20.906348 C 9.504487,21.153908 9.919332,21.864241 10.124988,22.484866 C 10.625589,23.99557 9.877258,25.788486 8.362114,26.708508 C 7.064881,27.496212 6.285471,27.544375 4.858552,26.925008 z "
       id="path4526" />
    <path
       style="fill:#160b5e"
       d="M -3.296726,40.786857 C -3.857474,40.551026 -4.545576,40.082765 -4.825841,39.746275 C -5.314666,39.159388 -5.291134,39.157276 -4.247928,39.694418 C -2.827361,40.425862 -1.824215,40.398696 -0.60108,39.59566 C 1.252834,38.378492 1.859126,36.077383 0.696093,34.672386 C 0.369033,34.277281 0.5984,34.483206 1.205798,35.129996 C 1.813197,35.776786 2.310159,36.595203 2.310159,36.948699 C 2.310159,37.302196 2.460417,37.871048 2.644067,38.212814 C 2.921393,38.728906 2.869363,38.805915 2.337022,38.667267 C 1.903527,38.554364 1.626185,38.719626 1.480158,39.177856 C 1.017968,40.628202 -1.587365,41.505759 -3.296726,40.786857 z M 4.858552,40.786857 C 4.297804,40.551026 3.609702,40.070853 3.329437,39.719806 C 2.834363,39.099702 2.846112,39.098227 3.742367,39.667949 C 5.478642,40.771652 7.753069,40.127638 8.890265,38.210303 C 9.645135,36.937575 9.588462,35.797185 8.712404,34.631307 L 7.978781,33.654986 L 8.919539,34.545833 C 9.587334,35.1782 9.910351,35.878992 10.032816,36.961106 C 10.189041,38.341505 10.09724,38.597893 9.061125,39.674863 C 7.755548,41.031928 6.334999,41.407801 4.858552,40.786857 z M -6.171731,34.097611 C -7.126859,33.932209 -8.006797,33.502243 -8.550353,32.93534 L -9.413053,32.035584 L -8.572888,32.591463 C -8.110796,32.897197 -7.139809,33.147342 -6.415137,33.147342 C -5.369778,33.147342 -4.858849,32.909604 -3.942221,31.996682 C -2.633208,30.692962 -2.409897,29.145683 -3.325443,27.723167 C -3.797318,26.99 -3.755247,27.003964 -2.98564,27.835951 C -2.502544,28.358205 -2.089675,29.119672 -2.068154,29.528098 C -2.003647,30.752273 -2.147727,31.605442 -2.476466,31.945918 C -2.647199,32.122747 -2.787857,32.50348 -2.789038,32.791991 C -2.792906,33.736391 -4.485388,34.389639 -6.171731,34.097611 z M 3.773271,26.201214 L 2.819864,25.346814 L 4.058269,25.908436 C 5.645326,26.628172 6.837524,26.336962 8.310726,24.869716 C 9.502642,23.682619 9.742825,22.545832 9.087038,21.195457 C 8.769632,20.541871 8.813058,20.553788 9.461909,21.29833 C 10.546555,22.542941 10.228485,24.83784 8.794468,26.113953 C 7.354713,27.395173 5.148373,27.433515 3.773271,26.201214 z "
       id="path4524" />
  </g>
</svg>
