/* XPM */
static char *original_data[] = {
/* width height ncolors chars_per_pixel */
"16 16 4 1",
/* colors */
"0 c #AAAAAA",
"1 c #000000",
"2 c #FFFFFF",
"3 c #6688BB",
/* pixels */
"0000222222230000",
"0000222222230000",
"0022211211222330",
"0022211211222330",
"0221111111112233",
"0221111111112233",
"0211211211222233",
"0211211211222233",
"0221111111112233",
"0221111111112233",
"0222211211211233",
"0222211211211233",
"0021111111112330",
"0021111111112330",
"0000211211233000",
"0000211211233000",
};
