/* XPM */
static char *original_data[] = {
/* width height ncolors chars_per_pixel */
"16 16 4 1",
/* colors */
"0 c #AAAAAA",
"1 c #000000",
"2 c #FFFFFF",
"3 c #6688BB",
/* pixels */
"3333222222203333",
"3333222222203333",
"3322211211222033",
"3322211211222033",
"3221111111112203",
"3221111111112203",
"3211211211222203",
"3211211211222203",
"3221111111112203",
"3221111111112203",
"3222211211211203",
"3222211211211203",
"3321111111112033",
"3321111111112033",
"3333211211203333",
"3333211211203333",
};
