/* XPM */
static char *original_data[] = {
/* width height ncolors chars_per_pixel */
"16 16 4 1",
/* colors */
"0 c #AAAAAA",
"1 c #000000",
"2 c #FFFFFF",
"3 c #6688BB",
/* pixels */
"2222222222222221",
"2222222222222221",
"2230303030303011",
"2230303030303011",
"2203030303030311",
"2203030303030311",
"2230303030303011",
"2230303030303011",
"2203030303030311",
"2203030303030311",
"2230303030303011",
"2230303030303011",
"2203030303030311",
"2203030303030311",
"2111111111111111",
"2111111111111111",
};
