/* XPM */
static char *original_data[] = {
/* width height ncolors chars_per_pixel */
"16 16 4 1",
/* colors */
"  c none",
"1 c #000000",
"2 c #FFFFFF",
"3 c #6688BB",
/* pixels */
"  1111    1111  ",
"  1111    1111  ",
" 122221  122221 ",
" 122221  122221 ",
"1333222113332221",
"1333222113332221",
"1333222113332221",
"1333222113332221",
"1333222113332221",
"1333222113332221",
" 122221  122221 ",
" 122221  122221 ",
"  1111    1111  ",
"  1111    1111  ",
"                ",
"                ",
};
