/* XPM */
static char * atom_p1_n4_xpm[] = {
"38 38 3 1",
" 	c black",
".	c blue",
"X	c white",
"                                      ",
"                                      ",
"                                      ",
"                                      ",
"                                      ",
"                                      ",
"                                      ",
"                                      ",
"                                      ",
"                                      ",
"                                      ",
"                .....                 ",
"              .........               ",
"             ..XX.......              ",
"            ..X..........             ",
"            .X...........             ",
"           ..X........ ...            ",
"           ..........  ...            ",
"           ......... . ...            ",
"           .........    ..            ",
"           ........... ...            ",
"            .......... ..             ",
"            .............             ",
"             ...........              ",
"              .........               ",
"                .....                 ",
"                                      ",
"                                      ",
"                                      ",
"                                      ",
"                                      ",
"                                      ",
"                                      ",
"                                      ",
"                                      ",
"                                      ",
"                                      ",
"                                      "};
