/* XPM */
static char * explode_xpm[] = {
"38 38 10 1",
" 	c None",
".	c grey90",
"X	c yellow",
"o	c orange",
"O	c red",
"+	c white",
"@	c grey",
"#	c grey70",
"$	c grey40",
"%	c grey80",
"                                      ",
"                                      ",
"         .               .            ",
"      .           .X  o      X .      ",
"       Xo      .     oOoX  .          ",
"      X XX       X X  o               ",
"       oOo++++                X       ",
"      +@oX@@@@+             XoX       ",
"     +@@@@@@@@@+ +    +++++++X  .     ",
"     +@@@@@@@@@++#++++.......+        ",
"     +@@@@@@@X@+X###+..+++....+       ",
"     +@@@@@@@@@+X##+..+###+X.oX+      ",
"     +@@@@@@@@@+o#+...+###+.X.X.+     ",
"     X@@@@@@@@XooX+...+###+Xoo..+     ",
"     +X@@@@@@@ooOoX+...+++.oOoX.+     ",
"   X  o@@@@@X@+#oo##+......XoX..+     ",
"     XoX+++XoX#XoOo##+.....X....+     ",
"   . oOo+$XoOo#XoooX#X......X...+     ",
"    XXoX$$$XooX##X###oX.........+     ",
" . XoOo$$$$$$X#######OoXo......+      ",
"    XoX$$$$$$+######XoX..X....+       ",
"    Xo+$$$$$$$+#####+++......+        ",
"  X XX+$$$$$$$$XoOOoX%%++++++  X .    ",
"    o++$+++$$$$$XooX%%%%+%%%+         ",
"    X+X+@@@+$$$o$$+X%%%%+%%%%+ X.     ",
"   . o+@@@@@+$XX$X+%%%%%+X%oX+        ",
"     X+@@@@@+$$$$+%+%%%+XoXX%+        ",
"      +@@@@@+$$$++%%+++XoOo%%X  .     ",
"       +@@@+++++++%%XoOoXoX%%+        ",
"        ++++ XooX X%%XoX%%%%+         ",
"            XoOXX  +%%XoXo%+          ",
"            oOXo    +%%%X%+           ",
"          X Xo oX    +++++            ",
"         .   oX  .       .            ",
"                                      ",
"                                      ",
"                                      ",
"                                      "};
