/* XPM */
static char * oneatom_xpm[] = {
"38 38 2 1",
" 	c white",
".	c red",
"                                      ",
"                                      ",
"                                      ",
"                                      ",
"                                      ",
"                                      ",
"                                      ",
"                                      ",
"                                      ",
"                                      ",
"                                      ",
"                .....                 ",
"              .........               ",
"             ..  .......              ",
"            .. ..........             ",
"            . ...........             ",
"           .. ............            ",
"           ...............            ",
"           ...............            ",
"           ...............            ",
"           ...............            ",
"            .............             ",
"            .............             ",
"             ...........              ",
"              .........               ",
"                .....                 ",
"                                      ",
"                                      ",
"                                      ",
"                                      ",
"                                      ",
"                                      ",
"                                      ",
"                                      ",
"                                      ",
"                                      ",
"                                      ",
"                                      "};
