/* XPM */
static char *jsoko2_icons[] = {
/* width height ncolors chars_per_pixel */
"16 16 6 1",
/* colors */
"  c none",
"0 c #000000",
"4 c #848452",
"5 c #DE0000",
"a c #FFDE52",
"d c #FFFFFF",
/* pixels */
"                ",
"     00         ",
"    0550000     ",
"    0555ddd0    ",
"    000000d0    ",
"    00004a0     ",
"   000000a0     ",
"   00000aaa0    ",
"   0000a0a0     ",
"    444a4a0     ",
"    000000d0    ",
"    0555ddd0    ",
"    0550000     ",
"     00         ",
"                ",
"                ",
};
