/* XPM */
static char *jsoko2_icons[] = {
/* width height ncolors chars_per_pixel */
"16 16 8 1",
/* colors */
"0 c #000000",
"1 c #212121",
"2 c #393939",
"3 c #636363",
"4 c #848452",
"7 c #9C9C9C",
"c c #D6D6D6",
"d c #FFFFFF",
/* pixels */
"0cc77c7c7c7cccc3",
"313773777c77733c",
"c37023347423232c",
"770c2330003373cc",
"7730c744733773d7",
"73207c7c7cc7737c",
"77317c7c7cc41037",
"7c407ccdddd401cc",
"c770777dddd30037",
"c7403ccdddd4203d",
"43333ccdddd40477",
"c733774434473137",
"473777100203d0cc",
"c34333010030077c",
"232cd73c234377cc",
"0ccc7c7c7c7cccc3",
};
