/* XPM */
static char *jsoko2_icons[] = {
/* width height ncolors chars_per_pixel */
"16 16 6 1",
/* colors */
"  c none",
"0 c #000000",
"4 c #848452",
"5 c #DE0000",
"a c #FFDE52",
"d c #FFFFFF",
/* pixels */
"                ",
"                ",
"                ",
"      000       ",
"  00000004000   ",
" 0550000040550  ",
" 0550000040550  ",
"  050000aa050   ",
"  0d040a040d0   ",
"  0d0aaaaa0d0   ",
"  0dd00a00dd0   ",
"   00  0  00    ",
"                ",
"                ",
"                ",
"                ",
};
