/* XPM */
static char *jsoko16_icons[] = {
/* width height ncolors chars_per_pixel */
"16 16 7 1",
/* colors */
"0 c #000000",
"4 c #848452",
"6 c #B58400",
"8 c #FFB500",
"9 c #FFDE00",
"b c #FFFF52",
"c c #D6D6D6",
/* pixels */
"cccccccccccccccc",
"ccccc000000ccccc",
"ccc000bb96000ccc",
"cc00bb90988600cc",
"cc0bbb00096660cc",
"c00bb0b09096600c",
"c0bbb0b09986660c",
"c0bbbb009968660c",
"c09b9b900866640c",
"c099b9908066440c",
"c00990906066400c",
"cc099800066440cc",
"cc006860664400cc",
"ccc0006444000ccc",
"ccccc000000ccccc",
"cccccccccccccccc",
};
