/* XPM */
static char *jsoko16_icons[] = {
/* width height ncolors chars_per_pixel */
"16 16 12 1",
/* colors */
"0 c #000000",
"1 c #212121",
"2 c #393939",
"3 c #636363",
"4 c #848452",
"6 c #B58400",
"7 c #9C9C9C",
"8 c #FFB500",
"9 c #FFDE00",
"b c #FFFF52",
"c c #D6D6D6",
"d c #FFFFFF",
/* pixels */
"0cc77c7c7c7cccc3",
"313770000007733c",
"c37000bb9600032c",
"7700bb90988600cc",
"770bbb00096660d7",
"700bb0b09096600c",
"70bbb0b099866607",
"70bbbb009968660c",
"c09b9b9008666407",
"c099b9908066440d",
"4009909060664007",
"c709980006644037",
"47006860664400cc",
"c34000644400077c",
"232cd000000377cc",
"0ccc7c7c7c7cccc3",
};
