/* XPM */
static char *jsoko2_icons[] = {
/* width height ncolors chars_per_pixel */
"16 16 6 1",
/* colors */
"0 c #000000",
"1 c #212121",
"2 c #393939",
"3 c #636363",
"4 c #848452",
"7 c #9C9C9C",
/* pixels */
"2333333333333332",
"3101012222011010",
"3071071042072040",
"3112212212212210",
"3001122222222020",
"3172221222222240",
"3121122222221220",
"3202212222222010",
"3241211221222330",
"3122212222121220",
"3002122221222020",
"3171212222122240",
"3122212222122220",
"3002021022012020",
"3171242132242230",
"2000000000000000",
};
