/* XPM */
static char *jsoko2_icons[] = {
/* width height ncolors chars_per_pixel */
"16 16 6 1",
/* colors */
"  c none",
"0 c #000000",
"4 c #848452",
"5 c #DE0000",
"a c #FFDE52",
"d c #FFFFFF",
/* pixels */
"                ",
"                ",
"         00     ",
"     0000550    ",
"    0ddd5550    ",
"    0d000000    ",
"     0a4a444    ",
"     0a0a0000   ",
"    0aaa00000   ",
"     0a000000   ",
"     0a40000    ",
"    0d000000    ",
"    0ddd5550    ",
"     0000550    ",
"         00     ",
"                ",
};
