/* XPM */
static char *icons-40-128[] = {
/* width height ncolors chars_per_pixel */
"20 20 12 2",
/* colors */
"`g c #7D4B32",
"`u c #865741",
"`x c #CC9275",
"bc c #7C4B32",
"bp c #926740",
"br c #7E4C33",
"cf c #573423",
"cp c #B77F63",
"cq c #5E3926",
"cz c #643C28",
"da c #C78E72",
"dn c #BE8A6F",
/* pixels */
"`x`x`xbc`g`g`g`g`g`g`g`g`g`g`g`g`gcqcfbp",
"`x`x`xbc`g`g`g`g`g`g`g`g`g`g`g`g`gcqbp`x",
"dndndnbc`g`g`g`g`g`g`g`g`g`g`g`g`g`ucpdn",
"brbrbr`g`g`g`g`g`g`g`g`g`g`g`g`g`gbr`g`g",
"`g`g`g`g`g`g`g`g`g`g`g`g`g`g`g`g`g`g`g`g",
"`g`g`g`g`g`g`g`g`g`g`g`g`g`g`g`g`g`g`g`g",
"`g`g`g`g`g`g`g`g`g`g`g`g`g`g`g`g`g`g`g`g",
"`g`g`g`g`g`g`g`g`g`g`g`g`g`g`g`g`g`g`g`g",
"`g`g`g`g`g`g`g`g`g`g`g`g`g`g`g`g`g`g`g`g",
"`g`g`g`g`g`g`g`g`g`g`g`g`g`g`g`g`g`g`g`g",
"`g`g`g`g`g`g`g`g`g`g`g`g`g`g`g`g`g`g`g`g",
"`g`g`g`g`g`g`g`g`g`g`g`g`g`g`g`g`g`g`g`g",
"`g`g`g`g`g`g`g`g`g`g`g`g`g`g`g`g`g`g`g`g",
"`g`g`g`g`g`g`g`g`g`g`g`g`g`g`g`g`g`g`g`g",
"`g`g`g`g`g`g`g`g`g`g`g`g`g`g`g`g`g`g`g`g",
"`g`g`g`g`g`g`g`g`g`g`g`g`g`g`g`g`g`g`g`g",
"`g`g`g`g`g`g`g`g`g`g`g`g`g`g`g`g`g`g`g`g",
"cfcfbp`g`g`g`g`g`g`g`g`g`g`g`g`g`gczcfcf",
"cfbpda`g`g`g`g`g`g`g`g`g`g`g`g`g`gczcfcf",
"bp`xda`g`g`g`g`g`g`g`g`g`g`g`g`g`gczcfcf",
};
