/* XPM */
static char *icons-40-128[] = {
/* width height ncolors chars_per_pixel */
"20 20 15 2",
/* colors */
"`e c #D9D98C",
"`o c #585856",
"ah c #595956",
"ap c #5C5C69",
"at c #DDDD8E",
"az c #5A5A56",
"bn c #DADA8D",
"ch c #DBDB8D",
"cl c #585855",
"cn c #D7D78C",
"ct c #545454",
"df c #D8D88C",
"dg c #D6D68A",
"dl c #555554",
"dp c #DFDF8F",
/* pixels */
"dlcndpdpdpatazctctctah`edpdpdpdfahctctct",
"ctdlcndpdpdpbnazctctctah`edpdpdpdfahctct",
"ctct`odfdpdpdpbnazctctctah`edpdpdpcnahct",
"ctctct`odfdpdpdpbnazctctctazbndpdpdpcnah",
"clctctct`odfdpdpdpdfazctctctazbndpdpdpdf",
"chazctctctahdfdpdpdpdfazctctctazbndpdpdp",
"dpatazctctctah`edpdpdpbnazctctctazbndpdp",
"dpdpchazctctctah`edpdpdpbnazctctctazbndp",
"dpdpdpbnazctctctah`edpdpdp`eahctctctazbn",
"atdpdpdpcnazctctctaz`edpdpdp`eahctctctaz",
"`ocndpdpdpbnazctctctaz`edpdpdpdfahctctct",
"ctdlcndpdpdpbnazctctctah`edpdpdpdfahctct",
"ctctazchdpdpdpbnazctctctah`edpdpdpcnahct",
"ctctctazchdpdpdpbnazctctctazbndpdpdpcnah",
"dlctctctazchdpdpdpcn`octctctazbndpdpdpdf",
"dg`octctctazchdpdpdpdgclctctctazbndpdpdp",
"dpdg`octctdlazchdpdpdpcn`octctctazbndpdp",
"dpdpdg`octctdlazchdpdpdpcn`octctctazbndp",
"dpdpdpdg`octctdlazatdpdpdpcn`octctctazbn",
"dpdpdpdpdgdlctctdlapdpdpdpdpdgdlctctctaz"

};
