/* XPM */
static char *icons-40-128[] = {
/* width height ncolors chars_per_pixel */
"20 20 10 2",
/* colors */
"`g c #7D4B32",
"`u c #865741",
"`x c #CC9275",
"bc c #7C4B32",
"bp c #926740",
"br c #7E4C33",
"cf c #573423",
"cp c #B77F63",
"cq c #5E3926",
"dn c #BE8A6F",
/* pixels */
"`x`x`xbr`g`g`g`g`g`g`g`g`g`g`g`g`gcqcfbp",
"`x`x`xbr`g`g`g`g`g`g`g`g`g`g`g`g`gcqbp`x",
"`x`x`xbr`g`g`g`g`g`g`g`g`g`g`g`g`g`ucpdn",
"`x`x`xbr`g`g`g`g`g`g`g`g`g`g`g`g`gbr`g`g",
"`x`x`xbr`g`g`g`g`g`g`g`g`g`g`g`g`g`g`g`g",
"`x`x`xbr`g`g`g`g`g`g`g`g`g`g`g`g`g`g`g`g",
"`x`x`xbr`g`g`g`g`g`g`g`g`g`g`g`g`g`g`g`g",
"`x`x`xbr`g`g`g`g`g`g`g`g`g`g`g`g`g`g`g`g",
"`x`x`xbr`g`g`g`g`g`g`g`g`g`g`g`g`g`g`g`g",
"`x`x`xbr`g`g`g`g`g`g`g`g`g`g`g`g`g`g`g`g",
"`x`x`xbr`g`g`g`g`g`g`g`g`g`g`g`g`g`g`g`g",
"`x`x`xbr`g`g`g`g`g`g`g`g`g`g`g`g`g`g`g`g",
"`x`x`xbr`g`g`g`g`g`g`g`g`g`g`g`g`g`g`g`g",
"`x`x`xbr`g`g`g`g`g`g`g`g`g`g`g`g`g`g`g`g",
"`x`x`xbr`g`g`g`g`g`g`g`g`g`g`g`g`g`g`g`g",
"`x`x`xbr`g`g`g`g`g`g`g`g`g`g`g`g`g`g`g`g",
"`x`x`xbrbcbcbcbcbcbcbcbcbcbcbcbcbcbcbcbc",
"`x`xbpcfcfcfcfcfcfcfcfcfcfcfcfcfcfcfcfcf",
"`xbpcfcfcfcfcfcfcfcfcfcfcfcfcfcfcfcfcfcf",
"`ucfcfcfcfcfcfcfcfcfcfcfcfcfcfcfcfcfcfcf",
};
