/* XPM */
static char *icons-40-128[] = {
/* width height ncolors chars_per_pixel */
"20 20 33 2",
/* colors */
"`b c #E6E51B",
"`j c #BE8A4A",
"`r c #525250",
"`x c #CC9275",
"`y c #8D6737",
"`z c #555042",
"aa c #9A723D",
"af c #5D5543",
"al c #CAC829",
"an c #B98747",
"ar c #7D603A",
"au c #514A33",
"az c #5A5A56",
"bl c #DAD741",
"bm c #58585D",
"bo c #565551",
"bw c #514B38",
"bx c #5F4A28",
"by c #614B4B",
"cc c #B18340",
"cd c #715336",
"cj c #C4A03B",
"cl c #585855",
"co c #AB7F40",
"ct c none",
"da c #C78E72",
"di c #BBB720",
"dk c #8F872D",
"dl c #555554",
"dm c #504E45",
"do c #605D4E",
"dq c #766B3F",
"dr c #98793C",
/* pixels */
"ctctctctctctctctctctctctctctctctctctctct",
"ctctctctctctctazda`j`jaaboctctctctctctct",
"ctctctctctctbmdr`yandrbxauctctctctctctct",
"ctctctctctctctcjdrar`yarcdctctctctctctct",
"ctctctctctctct`xcjccco`y`yctctctctctctct",
"ctctctctctctbybl`b`baldididoctctctctctct",
"ctctctctctbwaucc`bdialdidkau`zctctctctct",
"ctctctctctauauaadidididiaaauau`rctctctct",
"ctctctctctauau`y`jdidiccaaauaudmctctctct",
"ctctctct`rauau`y`jcccc`jccauaudmctctctct",
"ctctctctboauauaa`jan`j`janauaudmctctctct",
"ctctctctctauaucoccccccananauau`rctctctct",
"ctctctctct`zauaaaaaacococo`yauctctctctct",
"ctctctctctctar`y`y`y`y`y`y`ydoctctctctct",
"ctctctctctctctdoaa`y`y`y`ydoctctctctctct",
"ctctctctctctctafdibobodldkdqctctctctctct",
"ctctctctctctdldkdkboctctdqdkctctctctctct",
"ctctctctct`rdkdididoctdldqdidkdoctctctct",
"ctctctctctbo`rau`zafdodoaudqafdmdlctctct",
"ctctctctctctdldldldldldl`rcl`rdlctctctct",
};
