/* XPM */
static char *icons-40-128[] = {
/* width height ncolors chars_per_pixel */
"20 20 5 2",
/* colors */
"`g c #7D4B32",
"`x c #CC9275",
"br c #7E4C33",
"cf c #573423",
"cz c #643C28",
/* pixels */
"`x`x`xbr`g`g`g`g`g`g`g`g`g`g`g`g`gczcfcf",
"`x`x`xbr`g`g`g`g`g`g`g`g`g`g`g`g`gczcfcf",
"`x`x`xbr`g`g`g`g`g`g`g`g`g`g`g`g`gczcfcf",
"`x`x`xbr`g`g`g`g`g`g`g`g`g`g`g`g`gczcfcf",
"`x`x`xbr`g`g`g`g`g`g`g`g`g`g`g`g`gczcfcf",
"`x`x`xbr`g`g`g`g`g`g`g`g`g`g`g`g`gczcfcf",
"`x`x`xbr`g`g`g`g`g`g`g`g`g`g`g`g`gczcfcf",
"`x`x`xbr`g`g`g`g`g`g`g`g`g`g`g`g`gczcfcf",
"`x`x`xbr`g`g`g`g`g`g`g`g`g`g`g`g`gczcfcf",
"`x`x`xbr`g`g`g`g`g`g`g`g`g`g`g`g`gczcfcf",
"`x`x`xbr`g`g`g`g`g`g`g`g`g`g`g`g`gczcfcf",
"`x`x`xbr`g`g`g`g`g`g`g`g`g`g`g`g`gczcfcf",
"`x`x`xbr`g`g`g`g`g`g`g`g`g`g`g`g`gczcfcf",
"`x`x`xbr`g`g`g`g`g`g`g`g`g`g`g`g`gczcfcf",
"`x`x`xbr`g`g`g`g`g`g`g`g`g`g`g`g`gczcfcf",
"`x`x`xbr`g`g`g`g`g`g`g`g`g`g`g`g`gczcfcf",
"`x`x`xbr`g`g`g`g`g`g`g`g`g`g`g`g`gczcfcf",
"`x`x`xbr`g`g`g`g`g`g`g`g`g`g`g`g`gczcfcf",
"`x`x`xbr`g`g`g`g`g`g`g`g`g`g`g`g`gczcfcf",
"`x`x`xbr`g`g`g`g`g`g`g`g`g`g`g`g`gczcfcf",
"`x`x`xbr`g`g`g`g`g`g`g`g`g`g`g`g`gczcfcf",
"`x`x`xbr`g`g`g`g`g`g`g`g`g`g`g`g`gczcfcf",
"`x`x`xbr`g`g`g`g`g`g`g`g`g`g`g`g`gczcfcf",
"`x`x`xbr`g`g`g`g`g`g`g`g`g`g`g`g`gczcfcf"

};
