/* XPM */
static char *icons-40-128[] = {
/* width height ncolors chars_per_pixel */
"20 20 14 2",
/* colors */
"`g c #7D4B32",
"`u c #865741",
"`x c #CC9275",
"ae c #67402C",
"bc c #7C4B32",
"bp c #926740",
"bq c #804E35",
"br c #7E4C33",
"cf c #573423",
"cm c #CFBAB6",
"cn c #D7D78C",
"cp c #B77F63",
"cz c #643C28",
"dn c #BE8A6F",
/* pixels */
"cmcm`x`x`x`x`x`x`x`x`x`x`x`x`x`x`x`x`xbp",
"`xcmcm`x`x`x`x`x`x`x`x`x`x`x`x`x`x`xbpcf",
"`x`xcndncpcpcpcpcpcpcpcpcpcpcpcpcpbpcfcf",
"`x`x`xbq`g`g`g`g`g`g`g`g`g`g`g`gbcaecfcf",
"`x`x`xbr`g`g`g`g`g`g`g`g`g`g`g`g`gczcfcf",
"`x`x`xbr`g`g`g`g`g`g`g`g`g`g`g`g`gczcfcf",
"`x`x`xbr`g`g`g`g`g`g`g`g`g`g`g`g`gczcfcf",
"`x`x`xbr`g`g`g`g`g`g`g`g`g`g`g`g`gczcfcf",
"`x`x`xbr`g`g`g`g`g`g`g`g`g`g`g`g`gczcfcf",
"`x`x`xbr`g`g`g`g`g`g`g`g`g`g`g`g`gczcfcf",
"`x`x`xbr`g`g`g`g`g`g`g`g`g`g`g`g`gczcfcf",
"`x`x`xbr`g`g`g`g`g`g`g`g`g`g`g`g`gczcfcf",
"`x`x`xbr`g`g`g`g`g`g`g`g`g`g`g`g`gczcfcf",
"`x`x`xbr`g`g`g`g`g`g`g`g`g`g`g`g`gczcfcf",
"`x`x`xbr`g`g`g`g`g`g`g`g`g`g`g`g`gczcfcf",
"`x`x`xbr`g`g`g`g`g`g`g`g`g`g`g`g`gczcfcf",
"`x`x`xbrbcbcbcbcbcbcbcbcbcbcbcbcbcczcfcf",
"`x`xbpcfcfcfcfcfcfcfcfcfcfcfcfcfcfcfcfcf",
"`xbpcfcfcfcfcfcfcfcfcfcfcfcfcfcfcfcfcfcf",
"`ucfcfcfcfcfcfcfcfcfcfcfcfcfcfcfcfcfcfcf",
};
