/* XPM */
static char *icons-40-128[] = {
/* width height ncolors chars_per_pixel */
"20 20 14 2",
/* colors */
"`f c #7F4D34",
"`g c #7D4B32",
"`u c #865741",
"`x c #CC9275",
"bc c #7C4B32",
"bf c #AE7959",
"bp c #926740",
"br c #7E4C33",
"c` c #B27A5F",
"cf c #573423",
"cm c #CFBAB6",
"cu c #B47D63",
"da c #C78E72",
"dh c #7B4A31",
/* pixels */
"cmcm`x`x`x`x`x`x`x`x`x`x`x`x`x`x`x`x`x`x",
"`xcmcm`x`x`x`x`x`x`x`x`x`x`x`x`x`x`x`x`x",
"`x`xcmcuc`c`c`c`bfc`c`bfc`c`bfc`c`bfc`c`",
"`x`x`x`f`g`g`g`g`g`g`g`g`g`g`g`g`g`g`g`g",
"`x`x`xbr`g`g`g`g`g`g`g`g`g`g`g`g`g`g`g`g",
"`x`x`xbr`g`g`g`g`g`g`g`g`g`g`g`g`g`g`g`g",
"`x`x`xbr`g`g`g`g`g`g`g`g`g`g`g`g`g`g`g`g",
"`x`x`xbr`g`g`g`g`g`g`g`g`g`g`g`g`g`g`g`g",
"`x`x`xbr`g`g`g`g`g`g`g`g`g`g`g`g`g`g`g`g",
"`x`x`xbr`g`g`g`g`g`g`g`g`g`g`g`g`g`g`g`g",
"`x`x`xbr`g`g`g`g`g`g`g`g`g`g`g`g`g`g`g`g",
"`x`xdabc`g`g`g`g`g`g`g`g`g`g`g`g`g`g`g`g",
"`x`xda`g`g`g`g`g`g`g`g`g`g`g`g`g`g`g`g`g",
"`x`xda`g`g`g`g`g`g`g`g`g`g`g`g`g`g`g`g`g",
"`x`xdadh`g`g`g`g`g`g`g`g`g`g`g`g`g`g`g`g",
"`x`xdadh`g`g`g`g`g`g`g`g`g`g`g`g`g`g`g`g",
"`x`xdadhdhdhdhdhdhdhdhdhdhdhdhdhdhdhdhdh",
"`x`x`ucfcfcfcfcfcfcfcfcfcfcfcfcfcfcfcfcf",
"`xbpcfcfcfcfcfcfcfcfcfcfcfcfcfcfcfcfcfcf",
"bfcfcfcfcfcfcfcfcfcfcfcfcfcfcfcfcfcfcfcf",
};
