#define b44x22o_width 44
#define b44x22o_height 22
static unsigned char b44x22o_bits[] = {
 0x00,0x00,0x00,0x00,0x00,0x00,0x00,0x00,0xe0,0x00,0x00,0x00,0x00,0x00,0x10,
 0x01,0x00,0x00,0x00,0x00,0xe0,0x00,0x00,0x00,0x00,0x00,0x08,0x02,0x00,0x00,
 0x00,0x00,0x01,0x10,0x00,0x00,0x00,0x40,0x00,0x40,0x00,0x00,0x00,0x20,0x40,
 0x80,0x00,0x00,0x00,0x10,0xf8,0x03,0x01,0x00,0x00,0x10,0x40,0x00,0x01,0x00,
 0x00,0x10,0x40,0x00,0x01,0x00,0x00,0x20,0x00,0x80,0x00,0x00,0x00,0x40,0xfe,
 0x4f,0x00,0x00,0x00,0x80,0x00,0x20,0x00,0x00,0x00,0x40,0xfe,0x4f,0x00,0x00,
 0x00,0x40,0x00,0x40,0x00,0x00,0x00,0x00,0xff,0x1f,0x00,0x00,0x80,0xff,0x07,
 0xfc,0x3f,0x00,0x10,0x00,0x40,0x00,0x00,0x01,0xa0,0xff,0x07,0xfc,0xbf,0x00,
 0x00,0x00,0x00,0x00,0x00,0x00,0x00,0x00,0x00,0x00,0x00,0x00};
