#define b44x19o_width 44
#define b44x19o_height 19
static unsigned char b44x19o_bits[] = {
 0x00,0x00,0x00,0x00,0x00,0x00,0x00,0x00,0x10,0x01,0x00,0x00,0x00,0x00,0x10,
 0x01,0x00,0x00,0x00,0x00,0xa0,0x00,0x00,0x00,0x00,0x00,0x04,0x04,0x00,0x00,
 0x00,0x80,0x00,0x20,0x00,0x00,0x00,0x20,0x40,0x80,0x00,0x00,0x00,0x10,0x40,
 0x00,0x01,0x00,0x00,0x10,0x40,0x00,0x01,0x00,0x00,0x20,0x00,0x80,0x00,0x00,
 0x00,0x40,0x00,0x40,0x00,0x00,0x00,0x80,0x00,0x20,0x00,0x00,0x00,0x40,0x00,
 0x40,0x00,0x00,0x00,0x60,0x00,0xc0,0x00,0x00,0x00,0x00,0x40,0x00,0x00,0x00,
 0x00,0x00,0x08,0x02,0x00,0x00,0x30,0x00,0x18,0x03,0x80,0x01,0x00,0x00,0x00,
 0x00,0x00,0x00,0x00,0x00,0x00,0x00,0x00,0x00};
