#define k44x19o_width 44
#define k44x19o_height 19
static unsigned char k44x19o_bits[] = {
 0x00,0x00,0x00,0x00,0x00,0x00,0x00,0x00,0x40,0x00,0x00,0x00,0x00,0x00,0x40,
 0x00,0x00,0x00,0x00,0x00,0x40,0x00,0x00,0x00,0x00,0x00,0x10,0x01,0x00,0x00,
 0x00,0x00,0x08,0x02,0x00,0x00,0x80,0x81,0x09,0x32,0x30,0x00,0x20,0x00,0x14,
 0x05,0x80,0x00,0x10,0x00,0xb0,0x01,0x00,0x01,0x10,0x00,0xe0,0x00,0x00,0x01,
 0x20,0x00,0x40,0x00,0x80,0x00,0x80,0x00,0x40,0x00,0x20,0x00,0x00,0x0c,0x00,
 0x00,0x06,0x00,0x00,0xc4,0x01,0x70,0x04,0x00,0x00,0x04,0x00,0x00,0x04,0x00,
 0x00,0x7c,0x00,0xc0,0x07,0x00,0x00,0xe0,0x00,0xe0,0x00,0x00,0x00,0x00,0x00,
 0x00,0x00,0x00,0x00,0x00,0x00,0x00,0x00,0x00};
