#define n44x22o_width 44
#define n44x22o_height 22
static unsigned char n44x22o_bits[] = {
 0x00,0x00,0x00,0x00,0x00,0x00,0x00,0x10,0x30,0x00,0x00,0x00,0x00,0x90,0x48,
 0x00,0x00,0x00,0x00,0x20,0xc6,0x07,0x00,0x00,0x00,0x90,0x00,0x20,0x00,0x00,
 0x00,0x04,0x00,0x80,0x01,0x00,0x00,0x62,0x00,0x00,0x06,0x00,0x00,0x12,0x00,
 0x01,0x0c,0x00,0x00,0x01,0x00,0x01,0x18,0x00,0x80,0x00,0x00,0x01,0x30,0x00,
 0x40,0x00,0x80,0x00,0x20,0x00,0x20,0x00,0xb0,0x00,0x60,0x00,0x90,0x01,0x82,
 0x00,0xc0,0x00,0x10,0x44,0x40,0x00,0xc0,0x00,0xc0,0x13,0x10,0x00,0xc0,0x00,
 0x00,0x0c,0x04,0x00,0x80,0x01,0x00,0x00,0x01,0x00,0x80,0x01,0x00,0x80,0x00,
 0x00,0x80,0x01,0x00,0x40,0x00,0x00,0x80,0x01,0x00,0xc0,0xff,0xff,0xff,0x01,
 0x00,0x00,0x00,0x00,0x00,0x00,0x00,0x00,0x00,0x00,0x00,0x00};
