#define n44x19o_width 44
#define n44x19o_height 19
static unsigned char n44x19o_bits[] = {
 0x00,0x00,0x00,0x00,0x00,0x00,0x00,0x10,0x10,0x00,0x00,0x00,0x00,0x90,0x48,
 0x00,0x00,0x00,0x00,0x20,0x45,0x0e,0x00,0x00,0x00,0x08,0x00,0x60,0x00,0x00,
 0x00,0x24,0x00,0x00,0x03,0x00,0x00,0x14,0x00,0x00,0x0c,0x00,0x00,0x02,0x00,
 0x01,0x18,0x00,0x80,0x00,0x80,0x00,0x30,0x00,0x20,0x00,0xb0,0x00,0x60,0x00,
 0x90,0x01,0x81,0x00,0x60,0x00,0x10,0x20,0x40,0x00,0xc0,0x00,0x20,0x0a,0x10,
 0x00,0xc0,0x00,0x00,0x00,0x04,0x00,0x80,0x01,0x00,0x00,0x01,0x00,0x80,0x01,
 0x00,0x80,0x00,0x00,0x80,0x01,0x00,0x40,0x00,0x00,0x80,0x01,0x00,0x00,0x00,
 0x00,0x00,0x00,0x00,0x00,0x00,0x00,0x00,0x00};
