#define p44x19o_width 44
#define p44x19o_height 19
static unsigned char p44x19o_bits[] = {
 0x00,0x00,0x00,0x00,0x00,0x00,0x00,0x00,0x00,0x00,0x00,0x00,0x00,0x00,0x08,
 0x02,0x00,0x00,0x00,0x00,0x04,0x04,0x00,0x00,0x00,0x00,0x08,0x02,0x00,0x00,
 0x00,0x00,0x02,0x08,0x00,0x00,0x00,0x80,0x00,0x20,0x00,0x00,0x00,0x80,0x00,
 0x20,0x00,0x00,0x00,0x80,0x00,0x20,0x00,0x00,0x00,0x00,0x03,0x18,0x00,0x00,
 0x00,0x00,0x01,0x10,0x00,0x00,0x00,0x20,0x00,0x80,0x00,0x00,0x00,0x08,0x00,
 0x00,0x02,0x00,0x00,0x04,0x00,0x00,0x04,0x00,0x00,0x02,0x00,0x00,0x08,0x00,
 0x00,0x02,0x00,0x00,0x08,0x00,0x00,0x02,0x00,0x00,0x08,0x00,0x00,0x00,0x00,
 0x00,0x00,0x00,0x00,0x00,0x00,0x00,0x00,0x00};
