#define q44x22o_width 44
#define q44x22o_height 22
static unsigned char q44x22o_bits[] = {
 0x00,0x00,0x00,0x00,0x00,0x00,0x00,0x38,0xe0,0x80,0x03,0x00,0x00,0x44,0x10,
 0x41,0x04,0x00,0x00,0x34,0xe0,0x80,0x05,0x00,0x1c,0x30,0x40,0x80,0x01,0x07,
 0x22,0x30,0xa0,0x80,0x81,0x08,0x10,0x50,0xa0,0x40,0x01,0x01,0x60,0x90,0x10,
 0x21,0xc1,0x00,0xa0,0x90,0x10,0x21,0xa1,0x00,0x40,0x11,0x09,0x12,0x51,0x00,
 0x40,0x14,0x0a,0x0a,0x45,0x00,0x80,0x98,0xe4,0x24,0x23,0x00,0x80,0x00,0x00,
 0x00,0x20,0x00,0x00,0x01,0x00,0x00,0x10,0x00,0x00,0xe2,0xff,0xff,0x08,0x00,
 0x00,0x04,0x00,0x00,0x04,0x00,0x00,0xe4,0xff,0xff,0x04,0x00,0x00,0x04,0xff,
 0x1f,0x04,0x00,0x00,0x07,0x00,0x00,0x1c,0x00,0x00,0x01,0x00,0x00,0x10,0x00,
 0x00,0x80,0xff,0x3f,0x00,0x00,0x00,0x00,0x00,0x00,0x00,0x00};
