#define q44x19o_width 44
#define q44x19o_height 19
static unsigned char q44x19o_bits[] = {
 0x00,0x00,0x00,0x00,0x00,0x00,0x00,0x88,0x10,0x21,0x02,0x00,0x00,0x60,0xb0,
 0xc1,0x00,0x00,0x22,0x60,0x40,0xc0,0x80,0x08,0x32,0x60,0xa0,0xc0,0x80,0x09,
 0x30,0xa0,0x10,0xa1,0x80,0x01,0x60,0x20,0x11,0x91,0xc0,0x00,0xa0,0x10,0x0a,
 0x0a,0xa1,0x00,0x20,0x11,0x0a,0x0a,0x91,0x00,0x40,0x12,0x1c,0x07,0x49,0x00,
 0x40,0x54,0x00,0x40,0x45,0x00,0x80,0x32,0x00,0x80,0x29,0x00,0x00,0xf2,0x00,
 0xe0,0x09,0x00,0x00,0x04,0x00,0x00,0x04,0x00,0x00,0x7c,0x00,0xc0,0x07,0x00,
 0x00,0x7a,0x00,0xc0,0x0b,0x00,0x00,0x3f,0x00,0x80,0x1f,0x00,0x00,0x00,0x00,
 0x00,0x00,0x00,0x00,0x00,0x00,0x00,0x00,0x00};
