#define r44x19o_width 44
#define r44x19o_height 19
static unsigned char r44x19o_bits[] = {
 0x00,0x00,0x00,0x00,0x00,0x00,0x00,0x00,0x00,0x00,0x00,0x00,0x00,0x84,0x10,
 0x21,0x04,0x00,0x00,0x04,0x00,0x00,0x04,0x00,0x00,0x04,0x00,0x00,0x04,0x00,
 0x00,0x10,0x00,0x80,0x00,0x00,0x00,0x40,0x00,0x40,0x00,0x00,0x00,0x40,0x00,
 0x40,0x00,0x00,0x00,0x40,0x00,0x40,0x00,0x00,0x00,0x40,0x00,0x40,0x00,0x00,
 0x00,0x40,0x00,0x40,0x00,0x00,0x00,0x40,0x00,0x40,0x00,0x00,0x00,0x20,0x00,
 0x00,0x01,0x00,0x00,0x08,0x00,0x00,0x04,0x00,0x00,0x04,0x00,0x00,0x04,0x00,
 0x80,0x07,0x00,0x00,0x20,0x00,0x80,0x00,0x00,0x00,0x20,0x00,0x00,0x00,0x00,
 0x00,0x00,0x00,0x00,0x00,0x00,0x00,0x00,0x00};
