#define r44x22o_width 44
#define r44x22o_height 22
static unsigned char r44x22o_bits[] = {
 0x00,0x00,0x00,0x00,0x00,0x00,0x00,0x00,0x00,0x00,0x00,0x00,0x00,0xfc,0xf0,
 0xe1,0x07,0x00,0x00,0x84,0x1f,0x3f,0x04,0x00,0x00,0x04,0x00,0x00,0x04,0x00,
 0x00,0xfc,0xff,0xff,0x07,0x00,0x00,0xf0,0xff,0xff,0x00,0x00,0x00,0x40,0x00,
 0x40,0x00,0x00,0x00,0x40,0x00,0x40,0x00,0x00,0x00,0x40,0x00,0x40,0x00,0x00,
 0x00,0x40,0x00,0x40,0x00,0x00,0x00,0x40,0x00,0x40,0x00,0x00,0x00,0x40,0x00,
 0x40,0x00,0x00,0x00,0xc0,0xff,0x7f,0x00,0x00,0x00,0x20,0x00,0x00,0x01,0x00,
 0x00,0xfc,0xff,0xff,0x07,0x00,0x00,0x04,0x00,0x00,0x04,0x00,0x00,0xfc,0xff,
 0xff,0x3f,0x00,0x80,0x00,0x00,0x00,0x20,0x00,0x80,0xff,0xff,0xff,0x3f,0x00,
 0x00,0x00,0x00,0x00,0x00,0x00,0x00,0x00,0x00,0x00,0x00,0x00};
