/* XPM */
static char *xmono_icons[] = {
/* width height ncolors chars_per_pixel */
"30 30 2 1",
/* colors */
"0 c #000000",
"1 c #FFFFFF",
/* pixels */
"110000100000000000000001010111",
"110000100000000000000001101011",
"001000100000000000000001010100",
"000100100000000000000001101000",
"000010100000000000000001010000",
"000001100000000000000001100000",
"111111100000000000000001111111",
"000000000000000000000000000000",
"000000000000000000000000000000",
"000000000000000000000000000000",
"000000000000000000000000000000",
"000000000000000000000000000000",
"000000000000000000000000000000",
"000000000000000000000000000000",
"000000000000000000000000000000",
"000000000000000000000000000000",
"000000000000000000000000000000",
"000000000000000000000000000000",
"000000000000000000000000000000",
"000000000000000000000000000000",
"000000000000000000000000000000",
"000000000000000000000000000000",
"000000000000000000000000000000",
"111111100000000000000001111111",
"010101100000000000000001010101",
"101010100000000000000001111010",
"010100100000000000000001011101",
"101000100000000000000001101110",
"110000100000000000000001010111",
"110000100000000000000001101011",
};
