/* XPM */
static char *xmono_icons[] = {
/* width height ncolors chars_per_pixel */
"30 30 2 1",
/* colors */
"0 c #000000",
"1 c #FFFFFF",
/* pixels */
"111111111111111111111111111111",
"111111111111111111111111111111",
"000000000000000000000000000111",
"000000000000000000000000001011",
"000000000000000000000000010111",
"000000000000000000000000101011",
"111111111111111111111111010111",
"000000000000000000000001101011",
"000000000000000000000001010111",
"000000000000000000000001101011",
"000000000000000000000001010111",
"000000000000000000000001101011",
"000000000000000000000001010111",
"000000000000000000000001101011",
"000000000000000000000001010111",
"000000000000000000000001101011",
"000000000000000000000001010111",
"000000000000000000000001101011",
"000000000000000000000001010111",
"000000000000000000000001101011",
"000000000000000000000001010111",
"000000000000000000000001101011",
"000000000000000000000001010111",
"111111111111111111111111101011",
"010101010101010101010101110111",
"101010101010101010101010111011",
"010101010101010101010101011111",
"101010101010101010101010101111",
"111111111111111111111111111111",
"111111111111111111111111111111",
};
