/* XPM */
static char *xmono_icons[] = {
/* width height ncolors chars_per_pixel */
"30 30 2 1",
/* colors */
"1 c #000000",
"0 c #FFFFFF",
/* pixels */
"100000100000100000100000100000",
"010001010001010001010001010001",
"001010001010001010001010001010",
"000100000100000100000100000100",
"001010001010001010001010001010",
"010001010001010001010001010001",
"100000100000100000100000100000",
"010001010001010001010001010001",
"001010001010001010001010001010",
"000100000100000100000100000100",
"001010001010001010001010001010",
"010001010001010001010001010001",
"100000100000100000100000100000",
"010001010001010001010001010001",
"001010001010001010001010001010",
"000100000100000100000100000100",
"001010001010001010001010001010",
"010001010001010001010001010001",
"100000100000100000100000100000",
"010001010001010001010001010001",
"001010001010001010001010001010",
"000100000100000100000100000100",
"001010001010001010001010001010",
"010001010001010001010001010001",
"100000100000100000100000100000",
"010001010001010001010001010001",
"001010001010001010001010001010",
"000100000100000100000100000100",
"001010001010001010001010001010",
"010001010001010001010001010001",
};

