/* XPM */
static char *xmono_icons[] = {
/* width height ncolors chars_per_pixel */
"30 30 2 1",
/* colors */
"0 c #000000",
"1 c #FFFFFF",
/* pixels */
"110000100000000000000001010111",
"110000100000000000000001101011",
"110000100000000000000001010100",
"110000100000000000000001101000",
"110000100000000000000001010000",
"110000100000000000000001100000",
"110000100000000000000001111111",
"110000100000000000000000000000",
"110000100000000000000000000000",
"110000100000000000000000000000",
"110000100000000000000000000000",
"110000100000000000000000000000",
"110000100000000000000000000000",
"110000100000000000000000000000",
"110000100000000000000000000000",
"110000100000000000000000000000",
"110000100000000000000000000000",
"110000100000000000000000000000",
"110000100000000000000000000000",
"110000100000000000000000000000",
"110000100000000000000000000000",
"110000100000000000000000000000",
"110000100000000000000000000000",
"110000111111111111111111111111",
"110001010101010101010101010101",
"110010101010101010101010101010",
"110101010101010101010101010101",
"111010101010101010101010101010",
"111111111111111111111111111111",
"111111111111111111111111111111",
};
