/* XPM */
static char *xmono_icons[] = {
/* width height ncolors chars_per_pixel */
"30 30 3 1",
/* colors */
"  c none",
"1 c #000000",
"0 c #FFFFFF",
/* pixels */
"                              ",
"            111111            ",
"           10000001           ",
"           10000001           ",
"          1000000001          ",
"          1011001101          ",
"          1000000001          ",
"           10111101           ",
"          1100110011          ",
"         111101101111         ",
"         101101101101         ",
"         101110011101         ",
"        10011111111001        ",
"        10011111111001        ",
"       1000111111110001       ",
"       1000111111110001       ",
"       1000111111110001       ",
"        10011111111001        ",
"        10011111111001        ",
"        10111111111101        ",
"         111111111111         ",
"          1111111111          ",
"           11111111           ",
"          101    101          ",
"         11111  11111         ",
"        111111  111111        ",
"       1111111  1111111       ",
"      11 11 11  11 11 11      ",
"                              ",
"                              ",
};
