/* XPM */
static char *xmono_icons[] = {
/* width height ncolors chars_per_pixel */
"30 30 2 1",
/* colors */
"0 c #000000",
"1 c #FFFFFF",
/* pixels */
"111111111111111111111111111111",
"111111111111111111111111111111",
"111000000000000000000000000111",
"110100000000000000000000001011",
"110010000000000000000000010111",
"110001000000000000000000101011",
"110000111111111111111111010111",
"110000100000000000000001101011",
"110000100000000000000001010111",
"110000100000000000000001101011",
"110000100000000000000001010111",
"110000100000000000000001101011",
"110000100000000000000001010111",
"110000100000000000000001101011",
"110000100000000000000001010111",
"110000100000000000000001101011",
"110000100000000000000001010111",
"110000100000000000000001101011",
"110000100000000000000001010111",
"110000100000000000000001101011",
"110000100000000000000001010111",
"110000100000000000000001101011",
"110000100000000000000001010111",
"110000100000000000000001101011",
"110000100000000000000001010111",
"110000100000000000000001101011",
"110000100000000000000001010111",
"110000100000000000000001101011",
"110000100000000000000001010111",
"110000100000000000000001101011",
};
