/* XPM */
static char *xmono_icons[] = {
/* width height ncolors chars_per_pixel */
"30 30 2 1",
/* colors */
"0 c #000000",
"1 c #FFFFFF",
/* pixels */
"110000100000000000000001010111",
"110000100000000000000001101011",
"110000100000000000000001010111",
"110000100000000000000001101011",
"110000100000000000000001010111",
"110000100000000000000001101011",
"110000100000000000000001010111",
"110000100000000000000001101011",
"110000100000000000000001010111",
"110000100000000000000001101011",
"110000100000000000000001010111",
"110000100000000000000001101011",
"110000100000000000000001010111",
"110000100000000000000001101011",
"110000100000000000000001010111",
"110000100000000000000001101011",
"110000100000000000000001010111",
"110000100000000000000001101011",
"110000100000000000000001010111",
"110000100000000000000001101011",
"110000100000000000000001010111",
"110000100000000000000001101011",
"110000100000000000000001010111",
"110000111111111111111111101011",
"110001010101010101010101110111",
"110010101010101010101010111011",
"110101010101010101010101011111",
"111010101010101010101010101111",
"111111111111111111111111111111",
"111111111111111111111111111111",
};
