/* XPM */
static char *xmono_icons[] = {
/* width height ncolors chars_per_pixel */
"30 30 2 1",
/* colors */
"1 c #000000",
"0 c #FFFFFF",
/* pixels */
"100000100000100000100000100000",
"010001010001010001010001010001",
"001010001010111111101010001010",
"000100000111111111111100000100",
"001010001111000101011110001010",
"010001011100000010100011010001",
"100000110100000101010001100000",
"010001101010111110101000110001",
"001011100111111100010101111010",
"000111000111101000001010111100",
"001011001111010000000101011010",
"010110001010101000001010101101",
"100111000101010100010101011100",
"010110101010001010101000101101",
"001111010100000101010000011110",
"000110101000000010100000001100",
"001111011100000101010000011110",
"010110101110001010101000101101",
"100011001111010100010101011000",
"010011000111101000001010111001",
"001011100011110000000101111010",
"000101100011111000001010110100",
"001010110101011110010101101010",
"010001011110001010101111010001",
"100000101111000101011110100000",
"010001010011111111111001010001",
"001010001010111111101010001010",
"000100000100000100000100000100",
"001010001010001010001010001010",
"010001010001010001010001010001",
};