/* XPM */
static char *xmono_icons[] = {
/* width height ncolors chars_per_pixel */
"30 30 2 1",
/* colors */
"0 c #000000",
"1 c #FFFFFF",
/* pixels */
"111111111111111111111111111111",
"111111111111111111111111111111",
"111000000000000000000000000000",
"110100000000000000000000000000",
"110010000000000000000000000000",
"110001000000000000000000000000",
"110000111111111111111111111111",
"110000100000000000000000000000",
"110000100000000000000000000000",
"110000100000000000000000000000",
"110000100000000000000000000000",
"110000100000000000000000000000",
"110000100000000000000000000000",
"110000100000000000000000000000",
"110000100000000000000000000000",
"110000100000000000000000000000",
"110000100000000000000000000000",
"110000100000000000000000000000",
"110000100000000000000000000000",
"110000100000000000000000000000",
"110000100000000000000000000000",
"110000100000000000000000000000",
"110000100000000000000000000000",
"110000100000000000000001111111",
"110000100000000000000001010101",
"110000100000000000000001111010",
"110000100000000000000001011101",
"110000100000000000000001101110",
"110000100000000000000001010111",
"110000100000000000000001101011",
};
