/* XPM */
static char *xmono_icons[] = {
/* width height ncolors chars_per_pixel */
"30 30 2 1",
/* colors */
"0 c #000000",
"1 c #FFFFFF",
/* pixels */
"111111111111111111111111111111",
"111111111111111111111111111111",
"000000000000000000000000000111",
"000000000000000000000000001011",
"000000000000000000000000010111",
"000000000000000000000000101011",
"111111111111111111111111010111",
"000000000000000000000001101011",
"000000000000000000000001010111",
"000000000000000000000001101011",
"000000000000000000000001010111",
"000000000000000000000001101011",
"000000000000000000000001010111",
"000000000000000000000001101011",
"000000000000000000000001010111",
"000000000000000000000001101011",
"000000000000000000000001010111",
"000000000000000000000001101011",
"000000000000000000000001010111",
"000000000000000000000001101011",
"000000000000000000000001010111",
"000000000000000000000001101011",
"000000000000000000000001010111",
"111111100000000000000001101011",
"010101100000000000000001010111",
"101010100000000000000001101011",
"010100100000000000000001010111",
"101000100000000000000001101011",
"110000100000000000000001010111",
"110000100000000000000001101011",
};
