/* XPM */
static char *xmono_icons[] = {
/* width height ncolors chars_per_pixel */
"30 30 2 1",
/* colors */
"0 c #000000",
"1 c #FFFFFF",
/* pixels */
"110000100000000000000001010111",
"110000100000000000000001101011",
"110000100000000000000001010111",
"110000100000000000000001101011",
"110000100000000000000001010111",
"110000100000000000000001101011",
"110000100000000000000001010111",
"110000100000000000000001101011",
"110000100000000000000001010111",
"110000100000000000000001101011",
"110000100000000000000001010111",
"110000100000000000000001101011",
"110000100000000000000001010111",
"110000100000000000000001101011",
"110000100000000000000001010111",
"110000100000000000000001101011",
"110000100000000000000001010111",
"110000100000000000000001101011",
"110000100000000000000001010111",
"110000100000000000000001101011",
"110000100000000000000001010111",
"110000100000000000000001101011",
"110000100000000000000001010111",
"110000100000000000000001101011",
"110000100000000000000001010111",
"110000100000000000000001101011",
"110000100000000000000001010111",
"110000100000000000000001101011",
"110000100000000000000001010111",
"110000100000000000000001101011",
};
