/* XPM */
static char *xmono_icons[] = {
/* width height ncolors chars_per_pixel */
"30 30 2 1",
/* colors */
"0 c #000000",
"1 c #FFFFFF",
/* pixels */
"111111111111111111111111111111",
"110000000000000000000000000011",
"101000000000000000000000000101",
"100100000000000000000000001001",
"100010000000000000000000010001",
"100001000000000000000000100101",
"100000101111111111111101001001",
"100000010000000000000010010001",
"100000101001001001001001000001",
"100000100010010010010001001001",
"100000100100100100100101010001",
"100000101001000000001001000001",
"100000100010000000000001000001",
"100000100100000000000101000001",
"100000101000000000000001000001",
"100000100010000000000001000001",
"100000100100000000000001000001",
"100000101000000000000001000001",
"100000100010000000000001000001",
"100000100100000000000001000001",
"100000101001000000000001000001",
"100000100010010000000001000001",
"100000010000000000000010000001",
"100000101111111111111101000001",
"100001000000000000000000100001",
"100010010010000000000000010001",
"100100100100000000000000001001",
"101001000000000000000000000101",
"110000000000000000000000000011",
"111111111111111111111111111111",
};
