/* XPM */
static char *xmono_icons[] = {
/* width height ncolors chars_per_pixel */
"30 30 2 1",
/* colors */
"0 c #000000",
"1 c #FFFFFF",
/* pixels */
"110000100000000000000001010111",
"110000100000000000000001101011",
"110000100000000000000001010100",
"110000100000000000000001101000",
"110000100000000000000001010000",
"110000100000000000000001100000",
"110000100000000000000001111111",
"110000100000000000000000000000",
"110000100000000000000000000000",
"110000100000000000000000000000",
"110000100000000000000000000000",
"110000100000000000000000000000",
"110000100000000000000000000000",
"110000100000000000000000000000",
"110000100000000000000000000000",
"110000100000000000000000000000",
"110000100000000000000000000000",
"110000100000000000000000000000",
"110000100000000000000000000000",
"110000100000000000000000000000",
"110000100000000000000000000000",
"110000100000000000000000000000",
"110000100000000000000000000000",
"110000100000000000000001111111",
"110000100000000000000001010101",
"110000100000000000000001111010",
"110000100000000000000001011101",
"110000100000000000000001101110",
"110000100000000000000001010111",
"110000100000000000000001101011",
};
