/* XPM */
static char *shamrock[]={
"26 26 9 1",
"# c #000000",
"c c #00381c",
"b c #00fc00",
"a c #347004",
"f c #7c0000",
"g c #90b828",
"e c #e8c498",
"d c #fcf8f0",
". c #fcfcfc",
"..........................",
".######aaa###############.",
".######aaa###############.",
".####aaaaaaa#############.",
".####aaaaaaa#############.",
".####aaaaaaa#############.",
".######aaa###############.",
".#######aa###############.",
".#######aaabbb###########.",
".#######aaabbbb##########.",
".#######baaabbbb#########.",
".######cccccccccc########.",
".#####bbbbbbbbbbbb#######.",
".#######dddeeeee#########.",
".#####dd##ddeeeee########.",
".######ddddeeeeee########.",
".#######eeeeeeeee########.",
".#######fffeeeee#########.",
".#######eeeaaaee#########.",
".#####dd#aaaaaaaa########.",
".######ddaaaaaaaadd######.",
".######ddagggaaaadd######.",
".######dd#gggg#aadd######.",
".#########gggg##dd#######.",
".########bbbbb###########.",
".........................."};
