/* XPM */
static char * bomb_xpm[] = {
"20 30 3 1",
" 	c None",
".	c #D8C4B4",
"+	c #FF4C00",
"        ...         ",
"        ....        ",
"           ..       ",
"           ..       ",
"          ..        ",
"          ..        ",
"         ..         ",
"         ..         ",
"        ++++        ",
"        ++++        ",
"        ++++        ",
"      ++++++++      ",
"    ++++++++++++    ",
"   ++++++++++++++   ",
"  ++++++++++  ++++  ",
"  ++++++++++++ +++  ",
" ++++++++++++++ +++ ",
" ++++++++++++++ +++ ",
"++++++++++++++++ +++",
"++++++++++++++++ +++",
"++++++++++++++++++++",
"++++++++++++++++++++",
" ++++++++++++++++++ ",
" ++++++++++++++++++ ",
"  ++++++++++++++++  ",
"  ++++++++++++++++  ",
"   ++++++++++++++   ",
"    ++++++++++++    ",
"      ++++++++      ",
"        ++++        "};
