/* XPM */
static char * spider_down_0_xpm[] = {
"30 30 2 1",
" 	c None",
".	c #CC8408",
"                              ",
"                              ",
"                              ",
"                              ",
"   ...                  ...   ",
"     ..                ..     ",
"      ..    ......    ..      ",
"       ..  ........  ..       ",
"        .. ........ ..        ",
"         ............         ",
"         ............         ",
"         ............         ",
"         ............         ",
"         ............         ",
"          ..........          ",
"    ...    ........    ...    ",
"      ...  ........  ...      ",
"        ..............        ",
"            ......            ",
"            ......            ",
"            ......            ",
"           ........           ",
"         ... .... ...         ",
"       ...   ....   ...       ",
"     ...              ...     ",
"   ...                  ...   ",
"                              ",
"                              ",
"          ..      ..          ",
"          ..      ..          "};
