#define arrangements_width 80
#define arrangements_height 24
static unsigned char arrangements_bits[] = {
   0x00, 0x00, 0x00, 0x00, 0x00, 0x00, 0x00, 0x00, 0x00, 0x00, 0xa4, 0xaa,
   0xaa, 0x82, 0x74, 0x27, 0x00, 0x00, 0x00, 0x00, 0x6e, 0xc6, 0x4c, 0x6c,
   0x24, 0x12, 0x00, 0x00, 0x00, 0x00, 0x04, 0x12, 0x48, 0x82, 0x4a, 0x39,
   0x00, 0x00, 0x00, 0x00, 0x00, 0x38, 0x00, 0x00, 0x00, 0x00, 0x00, 0x00,
   0x00, 0x00, 0x00, 0x28, 0x00, 0x14, 0x00, 0x08, 0x00, 0x00, 0x00, 0x00,
   0x00, 0x00, 0x00, 0x1c, 0x00, 0x10, 0x00, 0x00, 0x00, 0x00, 0x62, 0xe2,
   0x42, 0x49, 0xda, 0x3a, 0x00, 0x00, 0x00, 0x00, 0x4e, 0x4e, 0x72, 0x63,
   0x52, 0x02, 0x00, 0x00, 0x00, 0x00, 0xc8, 0x42, 0x47, 0x55, 0x56, 0x03,
   0x00, 0x00, 0x00, 0x00, 0x00, 0x00, 0x00, 0x00, 0x00, 0x00, 0x00, 0x00,
   0x00, 0x00, 0x00, 0x00, 0x00, 0x00, 0x00, 0x00, 0x00, 0x00, 0x00, 0x00,
   0xc8, 0x88, 0x50, 0x94, 0x3b, 0x00, 0x00, 0x00, 0x00, 0x00, 0x4e, 0xdc,
   0xdd, 0x9d, 0x20, 0x00, 0x00, 0x00, 0x00, 0x00, 0x62, 0x50, 0x88, 0x00,
   0x0a, 0x00, 0x00, 0x00, 0x00, 0x00, 0x00, 0x00, 0x00, 0x9c, 0x3b, 0x00,
   0x00, 0x00, 0x00, 0x00, 0x00, 0x00, 0x00, 0x14, 0x00, 0x00, 0x00, 0x00,
   0x00, 0x00, 0xc6, 0x44, 0xb6, 0xc1, 0x00, 0x00, 0x00, 0x00, 0x00, 0x00,
   0x6c, 0x6c, 0x14, 0x63, 0x00, 0x00, 0x00, 0x00, 0x00, 0x00, 0x44, 0xc6,
   0xb6, 0xc1, 0x00, 0x00, 0x00, 0x00, 0x00, 0x00, 0x00, 0x00, 0x00, 0x00,
   0x00, 0x00, 0x00, 0x00, 0x00, 0x00, 0x00, 0x00, 0x00, 0x00, 0x00, 0x00,
   0x00, 0x00, 0x00, 0x00, 0x00, 0x00, 0x00, 0x00, 0x00, 0x00, 0x00, 0x00,
   0x00, 0x00, 0x00, 0x00, 0x00, 0x00, 0x00, 0x00, 0x00, 0x00, 0x00, 0x80};
