/* XPM */
static char *rman_data[] = {
/* width height ncolors chars_per_pixel */
"16 16 5 1",
/* colors */
"  c none",
"a c #000000",
"b c #FFFFFF",
"c c #4843A7",
"d c #8786B8",
/* pixels */
"  aaaa    aaaa  ",
"  aaaa    aaaa  ",
" abbbba  abbbba ",
" abbbba  abbbba ",
"abbdccdaabbdccda",
"abbdccdaabbdccda",
"abbccccaabbcccca",
"abbccccaabbcccca",
"abbdccdaabbdccda",
"abbdccdaabbdccda",
" abbbba  abbbba ",
" abbbba  abbbba ",
"  aaaa    aaaa  ",
"  aaaa    aaaa  ",
"                ",
"                ",
};
