/* XPM */
static char *goal_data[] = {
/* width height ncolors chars_per_pixel */
"16 16 2 1",
/* colors */
"e c #545454",
"f c #DFDF8F",
/* pixels */
"ffffeeeeffffeeee",
"ffffeeeeffffeeee",
"effffeeeeffffeee",
"effffeeeeffffeee",
"eeffffeeeeffffee",
"eeffffeeeeffffee",
"eeeffffeeeeffffe",
"eeeffffeeeeffffe",
"eeeeffffeeeeffff",
"eeeeffffeeeeffff",
"feeeeffffeeeefff",
"feeeeffffeeeefff",
"ffeeeeffffeeeeff",
"ffeeeeffffeeeeff",
"fffeeeeffffeeeef",
"fffeeeeffffeeeef",
};
