/* XPM */
static char *object_data[] = {
/* width height ncolors chars_per_pixel */
"16 16 3 1",
/* colors */
"e c #545454",
"b c #FFFFFF",
"d c #8786B8",
/* pixels */
"eeedbbbbbbbddeee",
"eeedbbbbbbbddeee",
"edbbbddbddbbbdde",
"edbbbddbddbbbdde",
"dbbdddddddddbbdd",
"dbbdddddddddbbdd",
"dbddbddbddbbbbdd",
"dbddbddbddbbbbdd",
"dbbdddddddddbbdd",
"dbbdddddddddbbdd",
"dbbbbddbddbddbdd",
"dbbbbddbddbddbdd",
"edbdddddddddbdde",
"edbdddddddddbdde",
"eeedbddbddbddeee",
"eeedbddbddbddeee",
};
