/* XPM */
static char *treasure_data[] = {
/* width height ncolors chars_per_pixel */
"16 16 4 1",
/* colors */
"e c #545454",
"f c #DFDF8F",
"g c #C8B800",
"h c #887600",
/* pixels */
"fffhggggggghheee",
"fffhggggggghheee",
"ehggghhghhggghhe",
"ehggghhghhggghhe",
"hgghhhhhhhhhgghh",
"hgghhhhhhhhhgghh",
"hghhghhghhgggghh",
"hghhghhghhgggghh",
"hgghhhhhhhhhgghh",
"hgghhhhhhhhhgghh",
"hgggghhghhghhghh",
"hgggghhghhghhghh",
"fhghhhhhhhhhghhf",
"fhghhhhhhhhhghhf",
"fffhghhghhghheef",
"fffhghhghhghheef",
};
