/* XPM */
static char *wall_data[] = {
/* width height ncolors chars_per_pixel */
"16 16 3 1",
/* colors */
"h c #CC9275",
"i c #7D4B32",
"j c #573423",
/* pixels */
"hhhhhhhhhhhhhhhj",
"hhhhhhhhhhhhhhhj",
"iiiiiiiiiiiiiiij",
"iiiiiiiiiiiiiiij",
"iiiiiiiiiiiiiiij",
"iiiiiiiiiiiiiiij",
"iiiiiiiiiiiiiiij",
"iiiiiiiiiiiiiiij",
"iiiiiiiiiiiiiiij",
"iiiiiiiiiiiiiiij",
"iiiiiiiiiiiiiiij",
"iiiiiiiiiiiiiiij",
"iiiiiiiiiiiiiiij",
"iiiiiiiiiiiiiiij",
"hiiiiiiiiiiiiiij",
"hiiiiiiiiiiiiiij",
};
