/* XPM */
static char * player_xpm[] = {
"128 32 485 2",
"  	c None",
". 	c #65786F",
"+ 	c #809A89",
"@ 	c #779282",
"# 	c #667874",
"$ 	c #283F37",
"% 	c #1E3D2A",
"& 	c #1E3D27",
"* 	c #1F3F28",
"= 	c #1E3E28",
"- 	c #1D3C26",
"; 	c #16331F",
"> 	c #162A1C",
", 	c #ABD6C1",
"' 	c #9EA8A9",
") 	c #BAB6B9",
"! 	c #A0A0A4",
"~ 	c #AAC2C1",
"{ 	c #B3DFD8",
"] 	c #424657",
"^ 	c #518C78",
"/ 	c #5E787C",
"( 	c #5B6B74",
"_ 	c #4F5A5F",
": 	c #454D50",
"< 	c #454F52",
"[ 	c #454C50",
"} 	c #444C4F",
"| 	c #404B4B",
"1 	c #264B32",
"2 	c #1F2725",
"3 	c #4B474B",
"4 	c #554F55",
"5 	c #464344",
"6 	c #3A3F41",
"7 	c #9DC6B6",
"8 	c #B1BFC3",
"9 	c #464647",
"0 	c #EBEAEA",
"a 	c #AAA8A9",
"b 	c #60686F",
"c 	c #C5E1E6",
"d 	c #BAE0E3",
"e 	c #43494B",
"f 	c #433D41",
"g 	c #514B51",
"h 	c #454045",
"i 	c #3A3A4A",
"j 	c #61998E",
"k 	c #758C9C",
"l 	c #6B808D",
"m 	c #55676F",
"n 	c #3D484B",
"o 	c #2B2F31",
"p 	c #2B3033",
"q 	c #323839",
"r 	c #3B4243",
"s 	c #424B4D",
"t 	c #474E53",
"u 	c #2E4D39",
"v 	c #202626",
"w 	c #8EB58E",
"x 	c #E7EBE8",
"y 	c #A2ABA0",
"z 	c #3F4A44",
"A 	c #9BB8B7",
"B 	c #C1D5DA",
"C 	c #5C6466",
"D 	c #474444",
"E 	c #E6E6E6",
"F 	c #AEADAD",
"G 	c #393B3E",
"H 	c #95A9B0",
"I 	c #CCECF6",
"J 	c #C4EEF1",
"K 	c #4D5B54",
"L 	c #A5AEA5",
"M 	c #EBEFEB",
"N 	c #5D775E",
"O 	c #151216",
"P 	c #68AB9C",
"Q 	c #7F9BAC",
"R 	c #556770",
"S 	c #1C1D1E",
"T 	c #121314",
"U 	c #100E0E",
"V 	c #0C0909",
"W 	c #0B0A0A",
"X 	c #0C0B0B",
"Y 	c #0D0C0C",
"Z 	c #100E0F",
"` 	c #292D2E",
" .	c #485156",
"..	c #274B31",
"+.	c #243224",
"@.	c #B8BEB8",
"#.	c #818081",
"$.	c #1E1F1F",
"%.	c #86979C",
"&.	c #B4C9CF",
"*.	c #9CABB0",
"=.	c #232223",
"-.	c #545453",
";.	c #CACACA",
">.	c #9A9B9B",
",.	c #3B3C3F",
"'.	c #576065",
").	c #BFDAE5",
"!.	c #D2F4FB",
"~.	c #A1BFC8",
"{.	c #242426",
"].	c #848385",
"^.	c #9DAA9C",
"/.	c #242826",
"(.	c #212C27",
"_.	c #203E2C",
":.	c #9AD3BB",
"<.	c #E8FFFF",
"[.	c #E1FFFF",
"}.	c #95A3A3",
"|.	c #747E80",
"1.	c #302D35",
"2.	c #131313",
"3.	c #28262D",
"4.	c #24262A",
"5.	c #233D2C",
"6.	c #527F65",
"7.	c #6A9280",
"8.	c #84A89E",
"9.	c #557263",
"0.	c #0D1F0D",
"a.	c #0C1A0C",
"b.	c #200C20",
"c.	c #466B67",
"d.	c #7EA1AE",
"e.	c #6D8592",
"f.	c #1B1C1D",
"g.	c #18181A",
"h.	c #1B1C1E",
"i.	c #171818",
"j.	c #121212",
"k.	c #111111",
"l.	c #101010",
"m.	c #0D0B0B",
"n.	c #363D3E",
"o.	c #444E51",
"p.	c #1B3D24",
"q.	c #455E45",
"r.	c #6D6C6D",
"s.	c #201D1D",
"t.	c #5B6466",
"u.	c #AEC4C9",
"v.	c #AEC2C7",
"w.	c #596062",
"x.	c #211F1E",
"y.	c #4C4C4C",
"z.	c #979797",
"A.	c #787979",
"B.	c #3C3E40",
"C.	c #36393C",
"D.	c #98AEB8",
"E.	c #BFDDEA",
"F.	c #D8F4FB",
"G.	c #647176",
"H.	c #2B2C2D",
"I.	c #5E5D60",
"J.	c #27482B",
"K.	c #363E3A",
"L.	c #2A272A",
"M.	c #68767E",
"N.	c #D5F9FF",
"O.	c #C1E8FB",
"P.	c #C8EBFD",
"Q.	c #D7F4FD",
"R.	c #E5FEFE",
"S.	c #BECFCF",
"T.	c #838F8F",
"U.	c #E6F8F8",
"V.	c #EBFFFF",
"W.	c #D7FCFB",
"X.	c #B7F3EB",
"Y.	c #5F8A85",
"Z.	c #537276",
"`.	c #1C191F",
" +	c #172B1E",
".+	c #234B2F",
"++	c #395C47",
"@+	c #4C695C",
"#+	c #58726A",
"$+	c #5A7C6C",
"%+	c #537A66",
"&+	c #577D69",
"*+	c #657F78",
"=+	c #798B8F",
"-+	c #84959A",
";+	c #8A9BA2",
">+	c #9DB2B7",
",+	c #515659",
"'+	c #292526",
")+	c #3E3F3E",
"!+	c #302F3B",
"~+	c #73A9A5",
"{+	c #82A0B2",
"]+	c #323A40",
"^+	c #151616",
"/+	c #1E2123",
"(+	c #191B1C",
"_+	c #151615",
":+	c #0F0E0D",
"<+	c #151516",
"[+	c #424A4E",
"}+	c #364E41",
"|+	c #222327",
"1+	c #363434",
"2+	c #2F2F30",
"3+	c #9CAFB4",
"4+	c #A2B6BB",
"5+	c #9BAEB1",
"6+	c #262625",
"7+	c #272626",
"8+	c #363737",
"9+	c #666666",
"0+	c #525252",
"a+	c #323335",
"b+	c #2F3134",
"c+	c #646E77",
"d+	c #B7D5E0",
"e+	c #C3E5F3",
"f+	c #B6D6E5",
"g+	c #323233",
"h+	c #3F4043",
"i+	c #23201F",
"j+	c #67757C",
"k+	c #CCF2FA",
"l+	c #B4D6E7",
"m+	c #ADD0DE",
"n+	c #A9CCDD",
"o+	c #AECFE1",
"p+	c #BCDEEF",
"q+	c #C7E9F8",
"r+	c #D3F1FA",
"s+	c #D4EDFA",
"t+	c #C9E3F2",
"u+	c #B3D0E2",
"v+	c #98B9CC",
"w+	c #8BB4C2",
"x+	c #7DBAB6",
"y+	c #49736E",
"z+	c #1E4528",
"A+	c #354F42",
"B+	c #434D4E",
"C+	c #4A5356",
"D+	c #59656A",
"E+	c #677478",
"F+	c #6E7E82",
"G+	c #7B8B91",
"H+	c #7E8E93",
"I+	c #7F8F94",
"J+	c #829298",
"K+	c #87999D",
"L+	c #8A9B9F",
"M+	c #8DA1A4",
"N+	c #9DB2B8",
"O+	c #565C5E",
"P+	c #201B1A",
"Q+	c #85A6B7",
"R+	c #617682",
"S+	c #161415",
"T+	c #1F2224",
"U+	c #1C1E20",
"V+	c #1A1C1D",
"W+	c #131213",
"X+	c #101210",
"Y+	c #141314",
"Z+	c #0E0A0C",
"`+	c #2A2E2F",
" @	c #465054",
".@	c #626B6E",
"+@	c #A5BBC0",
"@@	c #A0B4B8",
"#@	c #6F7C7E",
"$@	c #171515",
"%@	c #222222",
"&@	c #262626",
"*@	c #444444",
"=@	c #313232",
"-@	c #26272A",
";@	c #2C2F30",
">@	c #3F454A",
",@	c #A5BEC9",
"'@	c #ADC8D3",
")@	c #CEEFF6",
"!@	c #606C72",
"~@	c #AAC8D6",
"{@	c #B9DCE9",
"]@	c #A7C4CF",
"^@	c #9CB6BF",
"/@	c #98AEB6",
"(@	c #98B0B9",
"_@	c #A2BFC9",
":@	c #6F818A",
"<@	c #899EA9",
"[@	c #ACC2D1",
"}@	c #A6BECC",
"|@	c #8BA1B0",
"1@	c #748C99",
"2@	c #7B97A6",
"3@	c #87A7BA",
"4@	c #434B4E",
"5@	c #353C3D",
"6@	c #313738",
"7@	c #313637",
"8@	c #333839",
"9@	c #363C3D",
"0@	c #323637",
"a@	c #464C4D",
"b@	c #91A4A8",
"c@	c #99A9AD",
"d@	c #95A5A9",
"e@	c #8EA0A4",
"f@	c #8CA0A4",
"g@	c #95A8AE",
"h@	c #92A5A9",
"i@	c #333A3F",
"j@	c #18191A",
"k@	c #1E2022",
"l@	c #1D1D1F",
"m@	c #171819",
"n@	c #151416",
"o@	c #10100E",
"p@	c #131312",
"q@	c #98ACAF",
"r@	c #9DB1B5",
"s@	c #3F4344",
"t@	c #161514",
"u@	c #202020",
"v@	c #1C1C1C",
"w@	c #272727",
"x@	c #201F20",
"y@	c #27292B",
"z@	c #2D2F32",
"A@	c #8FA5AE",
"B@	c #9EB6BF",
"C@	c #B8D8E5",
"D@	c #9FB9C1",
"E@	c #92A7AC",
"F@	c #94A3A7",
"G@	c #9DA9AC",
"H@	c #A9B4B6",
"I@	c #BBCFD4",
"J@	c #6B797E",
"K@	c #27282C",
"L@	c #758391",
"M@	c #788796",
"N@	c #4C545D",
"O@	c #25272B",
"P@	c #1D1F20",
"Q@	c #0D0D0D",
"R@	c #121010",
"S@	c #141313",
"T@	c #0E0E0E",
"U@	c #768082",
"V@	c #C8D7DA",
"W@	c #B2BEC1",
"X@	c #A2B0B3",
"Y@	c #9BAAAE",
"Z@	c #97A7AB",
"`@	c #93A3A9",
" #	c #1F2124",
".#	c #1F2123",
"+#	c #1B1D1F",
"@#	c #1A1B1C",
"##	c #151514",
"$#	c #151515",
"%#	c #161616",
"&#	c #141414",
"*#	c #93A5A9",
"=#	c #212322",
"-#	c #181616",
";#	c #191919",
">#	c #171717",
",#	c #181819",
"'#	c #1F2022",
")#	c #212224",
"!#	c #8A9CA7",
"~#	c #98ACB2",
"{#	c #99ABAD",
"]#	c #99A8AC",
"^#	c #9EACAE",
"/#	c #AFBCBF",
"(#	c #DAE3E5",
"_#	c #CEE3EA",
":#	c #2C3031",
"<#	c #5A646E",
"[#	c #6F7D88",
"}#	c #495159",
"|#	c #2B3034",
"1#	c #1A1A1A",
"2#	c #1D1D1D",
"3#	c #292A2B",
"4#	c #D7E3E7",
"5#	c #DEE5E9",
"6#	c #A8B5B9",
"7#	c #9CACB1",
"8#	c #8F9EA1",
"9#	c #8B9A9D",
"0#	c #26292C",
"a#	c #1F2324",
"b#	c #181919",
"c#	c #1A1A1B",
"d#	c #181818",
"e#	c #111011",
"f#	c #1A1B1B",
"g#	c #1D1F22",
"h#	c #9EAEB9",
"i#	c #717E8E",
"j#	c #758489",
"k#	c #B4C1C4",
"l#	c #DCE3E5",
"m#	c #EEF6F9",
"n#	c #525B5D",
"o#	c #3A3F45",
"p#	c #5C6771",
"q#	c #3C4147",
"r#	c #131311",
"s#	c #575B5C",
"t#	c #EEF3F5",
"u#	c #DCE4E7",
"v#	c #B3C1C5",
"w#	c #586466",
"x#	c #0D0E0F",
"y#	c #2E3134",
"z#	c #252628",
"A#	c #1B1B1B",
"B#	c #040404",
"C#	c #100F0F",
"D#	c #0F0F0F",
"E#	c #0F0D0C",
"F#	c #0C0C0D",
"G#	c #0A0A0C",
"H#	c #151A1D",
"I#	c #AFBEC1",
"J#	c #DEE6E8",
"K#	c #F2F9FB",
"L#	c #808C90",
"M#	c #232628",
"N#	c #464D53",
"O#	c #8B9293",
"P#	c #F2F8FA",
"Q#	c #DCE6E9",
"R#	c #A9B9BC",
"S#	c #0D0F0F",
"T#	c #33383B",
"U#	c #040505",
"V#	c #020303",
"W#	c #020202",
"X#	c #050606",
"Y#	c #9CA9AD",
"Z#	c #E2EAEC",
"`#	c #ECF8FA",
" $	c #A6B3B7",
".$	c #191818",
"+$	c #B3BCBE",
"@$	c #E9F7F8",
"#$	c #E0EAEB",
"$$	c #97A6AA",
"%$	c #232323",
"&$	c #474646",
"*$	c #5B5A5A",
"=$	c #2F2E2E",
"-$	c #8F9DA0",
";$	c #8C999D",
">$	c #8D9B9E",
",$	c #909EA1",
"'$	c #E4ECED",
")$	c #E4F3F8",
"!$	c #C9D3D7",
"~$	c #D5DCDE",
"{$	c #E2F1F5",
"]$	c #E1EBEC",
"^$	c #E5EBED",
"/$	c #E2EBED",
"($	c #E3EBED",
"_$	c #DFEFF3",
":$	c #DFEEF3",
"                                                                                                                                                                                                                                                                ",
"                              . + @ #                                                                                                                                                                                   $ % & * = - ; >                         ",
"                            , ' ) ! ~ {                                                                                                                                                                             ] ^ / ( _ : < [ } | 1 2                     ",
"                  3 4 5 6 7 8 9 0 a b c d e f g h                                                                                                                                                                 i j k l m n o p q r s t u v                   ",
"                w x y z A B C D E F G H I J K L M N                                                                                                                     O                                         P Q R S T U V W X Y Z `  ...                  ",
"              +.@.#.$.%.&.*.=.-.;.>.,.'.).!.~.{.].^./.                          (._.:.<.[.}.|.1.      2.                                                3.      4.5.6.7.8.9.0.a.b.                              c.d.e.f.g.h.i.j.2.k.2.l.m.n.o.p.                ",
"            b.q.r.s.t.u.v.w.x.y.z.A.B.C.D.E.F.G.H.I.J.                      /.J.K.L.M.N.O.P.Q.R.S.T.U.V.W.X.Y.Z.                              `. +.+++@+#+$+%+&+*+=+-+;+>+,+'+)+q.+.                          !+~+{+]+^+/+(+_+k.j.l.j.2.:+<+[+}+|+              ",
"            a.)+1+2+3+4+5+6+7+8+9+0+a+b+c+d+e+f+g+h+K.(.                  N ^.I.h+i+j+k+l+m+n+o+p+q+r+s+t+u+v+w+x+y+!+                    |+z+A+B+C+D+E+F+G+H+I+J+K+L+M+N+O+P+1+r.@.w                         y+Q+R+S+T+U+V+^+k.j.j.W+X+Y+Z+`+ @z+              ",
"            0.'+P+.@+@@@#@$@%@&@*@=@-@;@>@,@'@)@!@i+L._.                h M ].H.g+!@~@{@]@^@/@(@_@:@<@[@}@|@1@2@3@Q+~+c.                p.}+ @4@5@6@7@8@9@0@a@b@c@d@e@f@g@h@.@2+s.#.x 3                       x+3@i@j@k@l@m@n@k.k.j.l.W+l.o@p@4@A+`.            ",
"            9.,+O+h@q@r@s@t@u@v@w@u@x@y@z@A@B@C@~@j+M.:.                g L {.G.f+)@C@D@E@F@G@H@I@J@K@L@M@N@O@P@i@R+{+d.P i         v ..o.[+`+p@W Q@R@S@$@T@U@V@W@X@Y@Z@`@q@+@3+t.$.y 4                     Z.w+2@P@ #.#+#@#<+##$#%#&#j.2.j.W 5@B+ +            ",
"          O 8.>+N+g@`@*#=#-#;#%#>#$#,#'#)#!#~#D@{@k+N.<.                f K ~.F.e+'@B@~#{#]#^#/#(#_#:#<#[#}#|# #j@S+]+e.Q j ]     2 u  .n.<+Z+o@j.%#1#2#1#3#4#5#6#7#8#9#*#r@@@4+u.%.z 5                     Y.v+1@O@|#0#a#S b#c#1#>#$#d#&#%#Q@6@C+.+            ",
"            7.;+M+f@Z@9#e#>#%#2.$#$#2.f#g#h#{#E@]@l+O.[.                e J !.E.d+,@A@!#h#i#j#k#l#m#n#o#p#q#0#.#k@T+^+f.R k ^     1 t ` m.:+Y+l.2.&#;#2#r#s#t#u#v#w#x#e#=#s@#@5+v.&.A 6                     X.u+|@N@}#q#y#z#S ;#A#A#;#;#;#1#R@7@D+++            ",
"            6.-+L+e@Y@8#x#B#m.Q@C#D#E#F#G#i#]#F@^@m+P.}.                d I ).D.c+>@z@)#g#G#H#I#J#K#L#M#N#y#a#+#l@U+/+g.S l /   > | s Z l.2.X+W+j.d#;#2#U O#P#Q#R#S#B#>#-#t@$@6+w.*.B 7                     W.t+}@M@[#p#N#T#P@>#1#&#;#2#2#2#S@8@E+@+            ",
"            5.=+K+d@X@7#w#S#U#V#W#W#V#X#H#j#^#G@/@n+Q.|.              { c H '.C.b+;@y@'#f#F#X#Y#Z#`# $1#T#z#S @#m@V+(+h.T m (   ; } r Y 2.j.W+l.&#$#;#;#.$+$@$#$$$U#m.%#;#u@%@7+x.=.C 8 ,                 2.V.s+[@L@<#o#M#1#%$&$*$=$.$U r#1#$@9@F+#+3.          ",
"            4.*+J+c@W@6#v#R#$$-$;$>$,$Y#I#k#/#H@(@o+R.1.            # ~ b G ,.B.a+-@x@,#2.E#V#,$'$)$!$%$P@S b#<+n@^+_+i.U n _   - [ q X k.l.j.j.%#>#A#&#=$~${$]$-$V#Q@2.%#v@&@8+y.-.D 9 ' .                 U.r+<@K@:#n#L# $!$J#^$~$+$O#s#3#T@0@G+$+            ",
"              &+I+b@V@5#u#Q##$]$/$($'$Z#J#l#(#I@_@p+S.              @ ! a F >.A.0+=@u@$#$#D#W#>$($_$J#&$>#;#c###k.k.k.j.V o :   = < p W 2.j.j.k.$#1#A#1#*$^$:$/$;$W#C#$#>#w@*@9+z.;.E 0 ) +                 T.q+:@J@_#m#K#`#)$_$:${$@$P#t#4#U@a@H+%+            ",
"              %+H+a@U@4#t#P#@${$:$_$)$`#K#m#_#J@:@q+T.              + ) 0 E ;.z.9+*@w@>#$#C#W#;$/$:$^$*$1#A#1#$#k.j.j.2.W p <   * : o V j.k.k.k.##c#;#>#&$J#_$($>$W#D#$#$#u@=@0+A.>.F a ! @                 S.p+_@I@(#l#J#Z#'$($/$]$#$Q#u#5#V@b@I+&+            ",
"              $+G+0@T@3#s#O#+$~$^$J#!$ $L#n#:#K@<@r+U.              . ' 9 D -.y.8+&@v@%#2.Q@V#-$]${$~$=$&#A#>#%#j.j.l.k.X q [   & _ n U i._+^+n@<+b#S P@%$!$)$'$,$V#E#2.,#x@-@a+B.,.G b ~ #               1.R.o+(@H@/#k#I#Y#,$>$;$-$$$R#v#6#W@c@J+*+4.          ",
"            3.#+F+9@$@1#r#U .$=$*$&$%$1#M#o#<#L@[@s+V.2.              , 8 C =.x.7+%@u@;#%#m.U#$$#$@$+$.$;#;#$#&#l.W+j.2.Y r }   % ( m T h.(+V+m@@#S z#T#1# $`#Z#Y#X#F#f#'#y@;@b+C.'.H c {                 |.Q.n+/@G@^#j#H#X#V#W#W#V#U#S#w#7#X@d@K+=+5.          ",
"              @+E+8@S@2#2#2#;#&#1#>#P@T#N#p#[#M@}@t+W.                  7 B *.w.6+$@t@-#>#B#S#R#Q#P#O#U 2#;#d#j.W+X+2.l.Z s |   $ / l S g./+U+l@+#a#y#N#M#L#K#J#I#H#G#g#)#z@>@c+D.).I d                   }.P.m+^@F@]#i#G#F#E#D#C#Q@m.B#x#8#Y@e@L+-+6.          ",
"              ++D+7@R@1#;#;#;#A#A#;#S z#y#q#}#N@|@u+X.                  6 A &.v.5+#@s@=#e#x#w#v#u#t#s#r#2#;#&#2.l.Y+:+m.` t 1     ^ k R f.^+T+k@.#0#q#p#o#n#m#l#k#j#i#h#!#A@,@d+E.!.J e                   [.O.l+]@E@{#h#g#f#2.$#$#2.%#>#e#9#Z@f@M+;+7.          ",
"              .+C+6@Q@%#&#d#$#>#1#c#b#S a#0#|#O@1@v+Y.                  5 z %.u.4+@@r@*#9#8#7#6#5#4#3#1#2#1#%#j.o@Z+<+n. .u 2     ] j Q e.]+S+j@ #|#}#[#<#:#_#(#/#^#]#{#~#B@'@e+F.~.K f                   <.N.k+{@D@~#!#)#'#,#$#>#%#;#-#=#*#`@g@N+>+8.O         ",
"               +B+5@W j.2.j.&#%#$###<+@#+#.# #P@2@w+Z.                  4 y $.t.3++@q@`@Z@Y@X@W@V@U@T@$@S@R@Q@W p@`+[+o...v         i P d.{+R+i@P@O@N@M@L@K@J@I@H@G@F@E@D@C@)@f+G.{.L g                   :.M.j+~@C@B@A@z@y@x@u@w@v@u@t@s@r@q@h@O+,+9.          ",
"              `.A+4@p@o@l.W+l.j.k.k.n@m@l@k@j@i@3@x+                    3 x #.s.2+.@h@g@f@e@d@c@b@a@0@9@8@7@6@5@4@ @}+p.                c.~+Q+3@2@1@|@}@[@<@:@_@(@/@^@]@{@~@!@g+H.].M h                   _.L.i+!@)@'@,@>@;@-@=@*@&@%@$@#@@@+@.@P+'+0.          ",
"                z+ @`+Z+Y+X+W+j.j.k.^+V+U+T+S+R+Q+y+                      w @.r.1+P+O+N+M+L+K+J+I+H+G+F+E+D+C+B+A+z+|+                    !+y+x+w+v+u+t+s+r+q+p+o+n+m+l+k+j+i+h+I.^.N                     (.K.h+g+f+e+d+c+b+a+0+9+8+7+6+5+4+3+2+1+)+a.          ",
"                |+}+[+<+:+2.j.l.j.k._+(+/+^+]+{+~+!+                        +.q.)+'+,+>+;+-+=+*+&+%+$+#+@+++.+ +`.                              Z.Y.X.W.V.U.T.S.R.Q.P.O.N.M.L.K.J./.                        J.I.H.G.F.E.D.C.B.A.z.y.x.w.v.u.t.s.r.q.b.          ",
"                  p.o.n.m.l.2.k.2.j.i.h.g.f.e.d.c.                            b.a.0.9.8.7.6.5.4.      3.                                                2.      1.|.}.[.<.:._.(.                            /.^.].{.~.!.).'.,.>.;.-.=.*.&.%.$.#.@.+.            ",
"                    .. .` Z Y X W V U T S R Q P                                       O                                                                                                                       N M L K J I H G F E D C B A z y x w               ",
"                    v u t s r q p o n m l k j i                                                                                                                                                                 h g f e d c b a 0 9 8 7 6 5 4 3                 ",
"                      2 1 | } [ < : _ ( / ^ ]                                                                                                                                                                             { ~ ! ) ' ,                           ",
"                          > ; - = * & % $                                                                                                                                                                                   # @ + .                             ",
"                                                                                                                                                                                                                                                                "};
