/* XPM */
static char * fontnum_xpm[] = {
"320 48 15 1",
" 	c None",
".	c #396DA1",
"+	c #FFFFFF",
"@	c #9CB6D0",
"#	c #EFF3F7",
"$	c #CEDBE7",
"%	c #DEE7EF",
"&	c #BDCEE0",
"*	c #ADC2D8",
"=	c #7B9EC0",
"-	c #6B92B8",
";	c #8CAAC8",
">	c #4A7AA8",
",	c #296199",
"'	c #5A86B0",
"                                                                                                                                                                                                                                                                                                                                ",
"                                                                                                                                                                                                                                                                                                                                ",
"        .+@ #$ #%   .+++&               .#*.+@ #+++=   ##               .#* %%   -+=-+++%               .+++%   .+@.#* $#               .#@.+++% -+=   $%                 #++# ;+.-+-   #%              .+*   *#.=+-.#++#               .#*   @+.=+++* #%               .+@   =+++;.+* #%                %+++.*#.  .#* #%       ",
"        >+& ++ ++   >++++               >+&>+& ++++=   ++               >+& ++   =+==++++               >++++   >+&>+& ++               >+&>++++ =+=   ++                >++++ &+>=+=   ++              >+&   &+>=+=>++++               >+&   &+>=+++& ++               >+&   &+++&>+& ++                ++++>&+>  >+& ++       ",
"        >+& ++ ++   >++++               >+&>+& ++++=   ++               >+= ++   =+==++++               >++++   >+&>+& ++               >+&>++++ =+=   ++                >++++ &+>=+=   ++              >+&   &+>=+=>++++               >+&   &+>=+++& ++               >+&   &+++&>+& ++                ++++>&+>  >+& ++       ",
"        >+& ++ ++   >++++               >+&>+& %+++=   ++               >+= ++   =+==++++               >++++   >+&>+& ++               >+&>++++ =+=   ++                >++++ &+>=+=   ++              >+&   &+>=+=>++++               >+&   &+>=+++& ++               >+&   &+++&>+& ++                ++++>&+>  >+& ++       ",
"        >+& ++ ++   >++++               >+&>+& &+++=   ++               >+= ++   =+==++++               >++++   >+&>+& ++               >+&>++++ =+=   ++                >++++ &+>=+=   ++              >+&   &+>=+=>++++               >+&   &+>=+++& ++               >+&   &+++&>+& ++                ++++>&+>  >+& ++       ",
"        >+& ++ ++   >++++               >+&>+& &+++=   ++               >+= ++   =+==++++               >++++   >+&>+& ++               >+&>++++ =+=   ++                >++++ &+>=+=   ++              >+&   &+>=+=>++++               >+&   &+>=+++& ++               >+&   &+++&>+& ++                ++++>&+>  >+& ++       ",
"        >+& ++ ++   >++++               >+&>+& &+++=   ++               >+= ++   =+==++++               >++++   >+&>+& ++               >+&>++++ =+=   ++                >++++ &+>=+=   ++              >+&   &+>=+=>++++               >+&   &+>=+++& ++               >+&   &+++&>+& ++                ++++>&+>  >+& ++       ",
"        >+& ++ ++   >++++               >+&>+& &+++=   ++               >+= ++   =+==++++               >++++   >+&>+& ++               >+&>++++ =+=   ++                >++++ &+>=+=   ++              >+&   &+>=+=>++++               >+&   &+>=+++& ++               >+&   &+++&>+& ++                ++++>&+>  >+& ++       ",
"        >+& ++ ++   >++++               >+&>+& &+++=   ++               >+= ++   =+==++++               >++++   >+&>+& ++               >+&>++++ =+=   ++                >++++ &+>=+=   ++              >+&   &+>=+=>++++               >+&   &+>=+++& ++               >+&   &+++=>+& ++                ++++>&+>  >+& ++       ",
"        >+& ++ ++   >++++               >+&>+& &+++=   ++               >+= ++   =+==++++               >++++   >+&>+& ++               >+&>++++ =+=   ++                >++++ &+>=+=   ++              >+&   &+>=+=>++++               >+&   &+>=+++& ++               >+&   &+++=>+& ++                ++++>&+>  >+& ++       ",
"        >+& ++ ++   >++++               >+&>+& &+++=   ++               >+= ++   =+==++++               >++++   >+&>+& ++               >+&>++++ =+=   ++                >++++ &+>=+=   ++              >+&   &+>=+=>++++               >+&   &+>=+++& ++               >+&   &+++=>+& ++                ++++>&+>  >+& ++       ",
"        >+& ++ ++   >++++               >+&>+& &+++=   ++               >+= ++   =+==++++               >++++   >+&>+& ++               >+&>++++ =+=   ++                >++++ &+>=+=   ++              >+&   &+>=+=>++++               >+&   &+>=+++& ++               >+&   &+++=>+& ++                ++++>&+>  >+& ++       ",
"        >+& ++ ++   >++++               >+&>+& &+++=   ++               >+= ++   =+==++++               >++++   >+&>+& ++               >+&>++++ =+=   ++                >++++ &+>=+=   ++              >+&   &+>=+=>++++               >+&   &+>=+++& ++               >+&   &+++=>+& ++                ++++>&+>  >+& ++       ",
"        >+& ++ ++   >++++               >+&>+& &+++=   ++               >+= ++   =+==++++               >++++   >+&>+& ++               >+&>++++ =+=   ++                >++++ &+>=+=   ++              >+&   &+>=+=>++++               >+&   &+>=+++& ++               >+&   &+++=>+& ++                ++++>&+>  >+& ++       ",
"        >+& ++ ++   >++++               >+&>+& &+++=   ++               >+= ++   =+==++++               >++++   >+&>+& ++               >+&>++++ =+=   ++                >++++ &+>=+=   ++              >+&   &+>=+=>++++               >+&   &+>=+++& ++               >+&   &+++=>+& ++                ++++>&+>  >+& ++       ",
"        >+& ++ ++   >++++               >+&>+& &+++=   ++               >+= ++   =+==++++               >++++   >+&>+& ++               >+&>++++ =+=   ++                >++++ &+>=+=   ++              >+&   &+>=+=>++++               >+&   &+>=+++& ++               >+&   &+++=>+& ++                ++++>&+>  >+& ++       ",
"        >+& ++ ++   >++++               >+&>+& &+++=   ++               >+= ++   =+==++++               >++++   >+&>+& ++               >+&>++++ =+=   ++                >++++ &+>=+=   ++              >+&   &+>=+=>++++               >+&   &+>=+++& ++               >+&   &+++=>+& ++                ++++>&+>  >+& ++       ",
"        >+& ++ ++   >++++               >+&>+& &+++=   ++               >+= ++   =+==++++               >++++   =+&>+= ++               >+&>++++ =+=   ++                >++++ &+>=+=   ++              >+&   &+>=+=>++++               >+&   &+>=+++& ++               >+&   &+++=>+& ++                ++++>&+>  >+& ++       ",
"        >+& ++ ++   >++++               >+&>+& &+++=   ++               >+= ++   =+==++++               >++++   =+&>+= ++               >+&>++++ =+=   ++                >++++ &+>=+=   ++              >+&   &+>=+=>++++               >+&   &+>=+++& ++               >+&   &+++=>+& ++                ++++>&+>  >+& ++       ",
"        >+& ++ ++   >++++               >+&>+& &+++=   ++               >+= ++   =+==++++               >++++   =+&>+= ++               >+&>++++ =+=   ++                >++++ &+>=+=   ++              >+&   &+>=+=>++++               >+&   &+>=+++& ++               >+&   &+++=>+& ++                ++++>&+>  >+& ++       ",
"        >+& ++ ++   >++++               >+&>+& &+++=   ++               >+= ++   =+==+++&               >++++   =+&>+= ++               >+&>++++ =+=   ++                >++++ &+>=+=   ++              >+&   &+>=+=>++++               >+&   &+>=+++& ++               >+&   &+++=>+& ++                ++++>&+>  >+& ++       ",
"        >+& ++ ++   >++++               >+&>+& &+++=   ++               >+= ++   =+==+++&               >++++   =+&>+= ++               >+&>++++ =+=   ++                >++++ &+>=+=   ++              >+&   &+>=+=>++++               >+&   &+>=+++& ++               >+&   &+++=>+& ++                ++++>&+>  >+& ++       ",
"        >+& ++ ++   >++++               >+&>+& &+++=   ++               >+= ++   =+==+++&               >++++   =+&>+= ++               >+&>++++ =+=   ++                >++++ &+>=+=   ++              >+&   &+>=+=>++++               >+&   &+>=+++& ++               >+&   &+++=>+& ++                ++++>&+>  >+& ++       ",
"        >+& ++ ++   >++++               >+&>+& &+++=   ++               >+= ++   =+==+++&               >++++   =+&>+= ++               >+&>++++ =+=   ++                >++++ &+>=+=   ++              >+&   &+>=+=>++++               >+&   &+>=+++& ++               >+&   &+++=>+& ++                ++++>&+>  >+& ++       ",
"        >+& ++ ++   >++++               >+&>+& &+++=   ++               >+= ++   =+==+++$               >++++   =+&>+= ++               >+&>++++ =+=   ++                >++++ &+>=+=   ++              >+&   &+>=+=>++++               >+&   &+>=+++& ++               >+&   &+++=>+& ++                ++++>&+>  >+& ++       ",
"        >+& ++ ++   >++++               >+&>+& &+++=   ++               >+& ++   =+==++++               >++++   =+&>+= ++               >+&>++++ =+=   ++                >++++ &+>=+=   ++              >+&   &+>=+=>++++               >+&   &+>=+++& ++               >+&   &+++=>+& ++                ++++>&+>  >+& ++       ",
"        >+& ++ ++   >++++               >+&>+& &+++=   ++               >+& ++   =+==++++               >++++   =+&>+= ++               >+&>++++ =+=   ++                >++++ &+>=+=   ++              >+&   &+>=+=>++++               >+&   &+>=+++& ++               >+&   &+++=>+& ++                ++++>&+>  >+& ++       ",
"        >+& ++ ++   >++++               >+&>+& &+++=   ++               >+& ++   =+==++++               >++++   -+&>+@ ++               >+&>++++ =+=   ++                >++++ &+>=+=   ++              >+&   &+>=+=>++++               >+&   &+>=+++& ++               >+&   &+++=>+& ++                ++++>&+>  >+& ++       ",
"        ,%= &# #&   ,%++#               ,%*,$@ *++#'   %*               .#@ #%   =#''#++%               .#++#   .#;,#@ *%               .%=,&%+% =#'   #&                .#++# @#.=#'   %@              .#=   =%.-%' &$+%               .+=   -%.>+++@ &#               .+=   =#++-,$@ %*                %++%,*%,  .+= %*       ",
"                                                                                                                                                                                                                                                                                                                                ",
"                                                                                                                                                                                                                                                                                                                                ",
"               .>>,                             >=                             '==,                          ,>>>>                              '-                                                               -'                                                             >>                              .>,             ",
"              @++++=                           ;++=                          -#+++#-                         #+++++#,                          ,++                             $++++#,                          @++                          $++++++=                         =#++%>                          =#+++@            ",
"             -+#&&++,                         @+++=                          &+&=@+#                         ;+++#++.                          @+&                             +#%++%,                         =++-                          $++++++&                        >++&$+#                         '++$&++-           ",
"             *+'  ;+=                        =++&+=                          ,>   $+>                           @++@                          ,++'                             +*                             .++=                               ,#+-                        =+;  $+>                        *+=  >+&           ",
"             %+   >+*                        '$-=+=                              ,#+>                          =++;                           &+%                             >+#&@.                          &+#=.                              $+&                         -++@&++,                        &+>   ++           ",
"             ++   >+&                           =+=                             >#+%                           +++&.                         >++-''                           >+++++-                        >+++++;                            ;+$                           $++++-                         &+=  >++           ",
"             ++   >+&                           =+=                            =++#.                           =%++#,                        @+% ++                            '==*++                        *+%=;++-                          >+#,                           $++++@                         '++$&++*           ",
"             ++   >+&                           =+=                           @++&                                *+@                       ,++;-++=.                              $+>                       #+,  =+*                          &+-                           @+$,>#+=                         =+++++>           ",
"             #+   =+@                           =+=                          -++=                                 >+&                       .+++++++&                              %+.                       ++   >+&                          +#                            ++   '+&                           =++*            ",
"             &+'  @+=                           =+=                          *+@                             ,.   *+@                        -===$+;.                             @+%                        $+>  =+@                         >+&                            ++.  =+&                           %+#             ",
"             -+#&&+#                            =+=                          &+%&&&@                         #+#&#+#,                            &+                           .&%+++'                        '++&$++,                         >+&                            @++&$++-                          &++'             ",
"              @+++#-                            -+=                          @++++++.                        @++++&.                             ##                           =+++$'                          ;+++%'                          .+*                             &+++#=                           #+-              ",
"               ,>>                               >                            >>>>>.                           >>,                               ,,                            >>                              ,>.                             .                               .>.                             ,,               ",
"                                                                                                                                                                                                                                                                                                                                ",
"                                                                                                                                                                                                                                                                                                                                "};
