/* XPM */
static char *noname[]={
"64 32 4 1",
"  c None",
"# c #ffdd88",
"* c #ccaa66",
"+ c #998844",
"                                            #      #            ",
"                                          ##**    **##          ",
"                                        ##**++    ++**##        ",
"                                      ##**++        ++**##      ",
"                                    ##**++            ++**##    ",
"                                    **++                ++**    ",
" #                            #      +                    +     ",
" *##                        ##*                                 ",
"****##                    ##****                                ",
"******##                ##******                                ",
"++******##            ##******++                                ",
"  ++******##        ##******++                                  ",
"    ++******##    ##******++                                    ",
"      ++******####******++                                      ",
"        ++************++                                        ",
"          ++********++                                          ",
"          ##********##                                          ",
"        ##************##                                        ",
"      ##******++++******##                                      ",
"    ##******++    ++******##                                    ",
"  ##******++        ++******##                                  ",
"##******++            ++******##                                ",
"******++                ++******                                ",
"****++                    ++****                                ",
" *++                        ++*                                 ",
" +                            +      #                    #     ",
"                                    **##                ##**    ",
"                                    ++**##            ##**++    ",
"                                      ++**##        ##**++      ",
"                                        ++**##    ##**++        ",
"                                          ++**    **++          ",
"                                            +      +            "};

