/* XPM */
static char *noname[]={
"64 32 7 1",
"  c None",
"# c #dddddd",
"* c #aaaaaa",
"+ c #777777",
"$ c #ffdd88",
"% c #ccaa66",
"- c #998844",
"                     #**                           $            ",
"                     #***+                        %%$$          ",
"                    #***+                         --%%$$        ",
"                    #***+                           --%%$$      ",
"                   #***+            #*                --%%$$    ",
"                   #***+            #*+                 --%%    ",
" $                #***+            #*+                    -     ",
" %$$              #***+            #*+                          ",
"%%%%$$           #***+            #*+                           ",
"%%%%%%$$         #***+            #*+                           ",
"--%%%%%%$$      #***+            #*+                            ",
"  --%%%%%%$$    #***+            #*+                            ",
"    --%%%%%%$$ #***+            #*+                             ",
"      --%%%%%%$#***+             *+                             ",
"        --%%%%%***+                                             ",
"          --%%%%*%$$                                            ",
"            --%*%%%%$$                                          ",
"             #***%%%%%$$                                        ",
"            #***+-%%%%%%$$                                   #* ",
"            #***+ --%%%%%%$$                                 #*+",
"           #***+    --%%%%%%$$                              #*+ ",
"           #***+      --%%%%%%$$                            #*+ ",
"          #***+         --%%%%%%                           #*+  ",
"          #***+           --%%%%                           #*+  ",
"         #***+              --%                           #*+   ",
"         #***+                -      $                    #*+   ",
"        #***+                       %%$$                 #*+    ",
"        #***+                       --%%$$                *+    ",
"       #***+                          --%%$$                    ",
"       #***+                            --%%$$                  ",
"      #***+                               --%%                  ",
"        **+                                 -                   "};

