/* XPM */
static char *noname[]={
"32 64 4 1",
"  c None",
"# c #dddddd",
"* c #aaaaaa",
"+ c #777777",
"        **+          #**        ",
"      #***+          #***+      ",
"       #***+        #***+       ",
"       #***+        #***+       ",
"        #***+      #***+        ",
"        #***+      #***+        ",
"         #***+    #***+         ",
"         #***+    #***+         ",
"          #***+  #***+          ",
"          #***+  #***+          ",
"           #***+#***+           ",
"           #***+#***+           ",
"            #******+            ",
"            #******+            ",
"             #****+             ",
"             #****+             ",
"             #****+             ",
"             #****+             ",
"            #******+            ",
"            #******+            ",
"           #***+#***+           ",
"           #***+#***+           ",
"          #***+  #***+          ",
"          #***+  #***+          ",
"         #***+    #***+         ",
"         #***+    #***+         ",
"        #***+      #***+        ",
"        #***+      #***+        ",
"       #***+        #***+       ",
"       #***+        #***+       ",
"      #***+          #***+      ",
"        **+          #**        ",
"                                ",
"                                ",
"                                ",
"                                ",
"    #*                    *+    ",
"    #*+                  #*+    ",
"   #*+                    #*+   ",
"   #*+                    #*+   ",
"  #*+                      #*+  ",
"  #*+                      #*+  ",
" #*+                        #*+ ",
" #*+                        #*+ ",
"#*+                          #*+",
" *+                          #* ",
"                                ",
"                                ",
"                                ",
"                                ",
" *+                          #* ",
"#*+                          #*+",
" #*+                        #*+ ",
" #*+                        #*+ ",
"  #*+                      #*+  ",
"  #*+                      #*+  ",
"   #*+                    #*+   ",
"   #*+                    #*+   ",
"    #*+                  #*+    ",
"    #*                    *+    ",
"                                ",
"                                ",
"                                ",
"                                "};

