/* XPM */
static char * noname[] = {
"64 32 6 1",
"  c None",
"# c #000000",
". c #80ff80",
"1 c #40e040",
"2 c #50f050",
"3 c #30ff50",
"                                                                ",
"                                                                ",
"                                                                ",
"                                                                ",
"              ####                                              ",
"            ##.33.##                                            ",
"          ##...33...##                                          ",
"         #....3333....#                   ############          ",
"        #.....3333.....#                 #22222..11111#         ",
"        #.....3333.....#                #222222..111111#        ",
"       #.....333333.....#               #222222..111111#        ",
"       #.....333333.....#               #222222..111111#        ",
"      #......333333......#              #222222..111111#        ",
"      #.###.33####33.###.#              #222222..111111#        ",
"      ##   #3# #  #3#   ##          ####................####    ",
"      #     #  #   #     #         #........................#   ",
"               #                  #..........................#  ",
"               #                  #..........................#  ",
"               #                  #..........................#  ",
"               #                  #..........................#  ",
"               #                  #..........................#  ",
"               #                  #.....1111........2222.....#  ",
"               #  #                ####.1111.######.2222.####   ",
"                ##                     #1111#      #2222#       ",
"                                       #1111#      #2222#       ",
"                                        ####        ####        ",
"                                                                ",
"                                                                ",
"                                                                ",
"                                                                ",
"                                                                ",
"                                                                "};
