/* XPM */
static char * noname[] = {
"64 32 2 1",
"  c None",
"# c #704000",
"                                                                ",
"                                                                ",
"                                                                ",
"                                                                ",
"                                                                ",
"           ######                                               ",
"          ########                                     ###      ",
"         ##      ##                                   ####      ",
"         ##      ##                                  #####      ",
"        ##        ##                                ### ##      ",
"        ##        ##                               ###  ##      ",
"        ##        ##                              ###   ##      ",
"        ##        ##                               #    ##      ",
"        ##        ##                                    ##      ",
"        ##        ##                                    ##      ",
"        ##        ##              ############          ##      ",
"        ##        ##              ############          ##      ",
"        ##        ##                                    ##      ",
"        ##        ##                                    ##      ",
"        ##        ##                                    ##      ",
"        ##        ##                                    ##      ",
"        ##        ##                                    ##      ",
"        ##        ##                                    ##      ",
"         ##      ##                                     ##      ",
"         ##      ##                                     ##      ",
"          ########                                      ##      ",
"           ######                                       ##      ",
"                                                                ",
"                                                                ",
"                                                                ",
"                                                                ",
"                                                                "};
