/* XPM */
static char *jsoko2_icons[] = {
/* width height ncolors chars_per_pixel */
"16 16 3 1",
/* colors */
"  c none",
"0 c #000000",
"1 c #FFFFFF",
/* pixels */
"                ",
"     00         ",
"    0110000     ",
"    01101110    ",
"    00000010    ",
"    0000110     ",
"   00000010     ",
"   000001110    ",
"   00001010     ",
"    1110110     ",
"    00000010    ",
"    01101110    ",
"    0110000     ",
"     00         ",
"                ",
"                ",
};
