/* XPM */
static char *jsoko2_icons[] = {
/* width height ncolors chars_per_pixel */
"16 16 2 1",
/* colors */
"0 c #000000",
"1 c #FFFFFF",
/* pixels */
"0111111111111110",
"1001111111111001",
"1000001111000001",
"1100000000000011",
"1100001111000011",
"1100011111100011",
"1110111111110111",
"1110111111110111",
"1110111111110111",
"1110111111110111",
"1100011111100011",
"1100001111000011",
"1100000000000011",
"1000001111000001",
"1001111111111001",
"0111111111111110",
};
