/* XPM */
static char *jsoko2_icons[] = {
/* width height ncolors chars_per_pixel */
"16 16 3 1",
/* colors */
"  c none",
"0 c #000000",
"1 c #FFFFFF",
/* pixels */
"                ",
"                ",
"                ",
"      000       ",
"  00000001000   ",
" 0110000010110  ",
" 0110000010110  ",
"  00000011000   ",
"  01010101010   ",
"  01011111010   ",
"  01100100110   ",
"   00  0  00    ",
"                ",
"                ",
"                ",
"                ",
};
