/* XPM */
static char *jsoko2_icons[] = {
/* width height ncolors chars_per_pixel */
"16 16 2 1",
/* colors */
"0 c #000000",
"1 c #FFFFFF",
/* pixels */
"0111111111111110",
"1001100000011001",
"1000001111000001",
"1100111011100011",
"1101110001110011",
"1001101010101001",
"1011101011110101",
"1011110011101001",
"1011111001110101",
"1011111010101001",
"1001101010010001",
"1101110000101011",
"1100111011010011",
"1000001010000001",
"1000100000011001",
"0111111111111110",
};
