/* XPM */
static char *jsoko2_icons[] = {
/* width height ncolors chars_per_pixel */
"16 16 2 1",
/* colors */
"0 c #000000",
"1 c #FFFFFF",
/* pixels */
"0000000000000000",
"0111111111111110",
"0101010101010100",
"0110101010101000",
"0101010101010100",
"0110101010101000",
"0101010101010100",
"0110101010101000",
"0101010101010100",
"0110101010101000",
"0101010101010100",
"0110101010101000",
"0101010101010100",
"0110101010101000",
"0100000000000000",
"0000000000000000",
};
