/* XPM */
static char *jsoko2_icons[] = {
/* width height ncolors chars_per_pixel */
"16 16 3 1",
/* colors */
"  c none",
"0 c #000000",
"1 c #FFFFFF",
/* pixels */
"                ",
"                ",
"         00     ",
"     0000110    ",
"    01110110    ",
"    01000000    ",
"     0111111    ",
"     01010000   ",
"    011100000   ",
"     01000000   ",
"     0110000    ",
"    01000000    ",
"    01110110    ",
"     0000110    ",
"         00     ",
"                ",
};
