/* XPM */
static char * noname[] = {
"96 32 17 1",
"  c None",
"A c None",
"B c None",
"C c #7777FF",
"D c #6F6FEE",
"E c #7777FF",
"F c #6666DD",
"G c #5E5ECC",
"H c #6666DD",
"I c #7777FF",
"J c #6F6FEE",
"K c #7777FF",
"L c #5555BB",
"M c #4D4DAA",
"N c #5555BB",
"O c #444499",
"P c #3C3C88",
"PONMLKJIHGFEDCBAABCDEFGHIJKLMNOP                                ONMLKJIHGFEDCBA  ABCDEFGHIJKLMNO",
"OPONMLKJIHGFEDCBBCDEFGHIJKLMNOPO               AA               NMLKJIHGFEDCBA    ABCDEFGHIJKLMN",
"NOPONMLKJIHGFEDCCDEFGHIJKLMNOPON              ABBA              MLKJIHGFEDCBA      ABCDEFGHIJKLM",
"MNOPONMLKJIHGFEDDEFGHIJKLMNOPONM             ABCCBA             LKJIHGFEDCBA        ABCDEFGHIJKL",
"LMNOPONMLKJIHGFEEFGHIJKLMNOPONML            ABCDDCBA            KJIHGFEDCBA          ABCDEFGHIJK",
"KLMNOPONMLKJIHGFFGHIJKLMNOPONMLK           ABCDEEDCBA           JIHGFEDCBA            ABCDEFGHIJ",
"JKLMNOPONMLKJIHGGHIJKLMNOPONMLKJ          ABCDEFFEDCBA          IHGFEDCBA              ABCDEFGHI",
"IJKLMNOPONMLKJIHHIJKLMNOPONMLKJI         ABCDEFGGFEDCBA         HGFEDCBA                ABCDEFGH",
"HIJKLMNOPONMLKJIIJKLMNOPONMLKJIH        ABCDEFGHHGFEDCBA        GFEDCBA                  ABCDEFG",
"GHIJKLMNOPONMLKJJKLMNOPONMLKJIHG       ABCDEFGHIIHGFEDCBA       FEDCBA                    ABCDEF",
"FGHIJKLMNOPONMLKKLMNOPONMLKJIHGF      ABCDEFGHIJJIHGFEDCBA      EDCBA                      ABCDE",
"EFGHIJKLMNOPONMLLMNOPONMLKJIHGFE     ABCDEFGHIJKKJIHGFEDCBA     DCBA                        ABCD",
"DEFGHIJKLMNOPONMMNOPONMLKJIHGFED    ABCDEFGHIJKLLKJIHGFEDCBA    CBA                          ABC",
"CDEFGHIJKLMNOPONNOPONMLKJIHGFEDC   ABCDEFGHIJKLMMLKJIHGFEDCBA   BA                            AB",
"BCDEFGHIJKLMNOPOOPONMLKJIHGFEDCB  ABCDEFGHIJKLMNNMLKJIHGFEDCBA  A                              A",
"ABCDEFGHIJKLMNOPPONMLKJIHGFEDCBA ABCDEFGHIJKLMNOONMLKJIHGFEDCBA                                 ",
"ABCDEFGHIJKLMNOPPONMLKJIHGFEDCBA ABCDEFGHIJKLMNOONMLKJIHGFEDCBA                                 ",
"BCDEFGHIJKLMNOPOOPONMLKJIHGFEDCB  ABCDEFGHIJKLMNNMLKJIHGFEDCBA  A                              A",
"CDEFGHIJKLMNOPONNOPONMLKJIHGFEDC   ABCDEFGHIJKLMMLKJIHGFEDCBA   BA                            AB",
"DEFGHIJKLMNOPONMMNOPONMLKJIHGFED    ABCDEFGHIJKLLKJIHGFEDCBA    CBA                          ABC",
"EFGHIJKLMNOPONMLLMNOPONMLKJIHGFE     ABCDEFGHIJKKJIHGFEDCBA     DCBA                        ABCD",
"FGHIJKLMNOPONMLKKLMNOPONMLKJIHGF      ABCDEFGHIJJIHGFEDCBA      EDCBA                      ABCDE",
"GHIJKLMNOPONMLKJJKLMNOPONMLKJIHG       ABCDEFGHIIHGFEDCBA       FEDCBA                    ABCDEF",
"HIJKLMNOPONMLKJIIJKLMNOPONMLKJIH        ABCDEFGHHGFEDCBA        GFEDCBA                  ABCDEFG",
"IJKLMNOPONMLKJIHHIJKLMNOPONMLKJI         ABCDEFGGFEDCBA         HGFEDCBA                ABCDEFGH",
"JKLMNOPONMLKJIHGGHIJKLMNOPONMLKJ          ABCDEFFEDCBA          IHGFEDCBA              ABCDEFGHI",
"KLMNOPONMLKJIHGFFGHIJKLMNOPONMLK           ABCDEEDCBA           JIHGFEDCBA            ABCDEFGHIJ",
"LMNOPONMLKJIHGFEEFGHIJKLMNOPONML            ABCDDCBA            KJIHGFEDCBA          ABCDEFGHIJK",
"MNOPONMLKJIHGFEDDEFGHIJKLMNOPONM             ABCCBA             LKJIHGFEDCBA        ABCDEFGHIJKL",
"NOPONMLKJIHGFEDCCDEFGHIJKLMNOPON              ABBA              MLKJIHGFEDCBA      ABCDEFGHIJKLM",
"OPONMLKJIHGFEDCBBCDEFGHIJKLMNOPO               AA               NMLKJIHGFEDCBA    ABCDEFGHIJKLMN",
"PONMLKJIHGFEDCBAABCDEFGHIJKLMNOP                                ONMLKJIHGFEDCBA  ABCDEFGHIJKLMNO"};
