/* XPM */
static char *noname[]={
"32 32 10 1",
"  c None",
"1 c #bbbbbb",
"2 c #999999",
"3 c #777777",
"4 c #555555",
"5 c #666666",
"6 c #888888",
"7 c #aaaaaa",
"8 c #dddddd",
"9 c #cccccc",
"                                ",
"                                ",
"          811111111111          ",
"         88111111111112         ",
"        8888111111111222        ",
"       888881111111112222       ",
"      88888881111111222222      ",
"     8888888899999992222222     ",
"    888888889999999992222222    ",
"   88888888999999999992222222   ",
"  8888888899999999999992222222  ",
"  7788888999999999999999222233  ",
"  7777889999999999999999923333  ",
"  7777799999999999999999933333  ",
"  7777799999999999999999933333  ",
"  7777799999999999999999933333  ",
"  7777799999999999999999933333  ",
"  7777799999999999999999933333  ",
"  7777799999999999999999933333  ",
"  7777799999999999999999933333  ",
"  7777669999999999999999443333  ",
"  7766666999999999999994444433  ",
"   66666669999999999994444444   ",
"    666666699999999994444444    ",
"     6666666999999994444444     ",
"      66666665555555444444      ",
"       666665555555554444       ",
"        6666555555555444        ",
"         66555555555554         ",
"          655555555555          ",
"                                ",
"                                "};
