/* XPM */
static char * noname[] = {
"64 128 9 1",
"  c None",
"# c #000000",
". c #6060ff",
"1 c #8080ff",
"2 c #5080ff",
"3 c #6040ff",
"4 c #8090e0",
"5 c #4040ff",
"6 c #9070ff",
"                                                                ",
"             ##                              ##                 ",
"            #.#                             #.#                 ",
"                                                                ",
"                                                                ",
"                                                                ",
"                                                                ",
"                                                                ",
"                                                                ",
"                                                                ",
"                                                                ",
"                                                                ",
"                                                                ",
"                                                                ",
"                                                                ",
"                               ##                               ",
" ##                          ##..##                          ## ",
" #.                          ......                          .# ",
"  #                          ##..##                          #  ",
"                               ##                               ",
"                                                                ",
"                                                                ",
"                                                                ",
"                                                                ",
"                                                                ",
"                                                                ",
"                                                                ",
"                                                                ",
"                                                                ",
"            #.#                             #.#                 ",
"            #.#                             #.#                 ",
"           #...#                           #...#                ",
"           #...#                           #...#                ",
"            #.#                             #.#                 ",
"            #.#                             #.#                 ",
"                                                                ",
"                                                                ",
"                                                                ",
"                                                                ",
"                                                                ",
"                                                                ",
"                                                                ",
"                                                                ",
"                                                                ",
"                                                                ",
"                                                                ",
"                                                                ",
"                               ##                               ",
" ##                          ##..##                          ## ",
" #.                          ......                          .# ",
"  #                          ##..##                          #  ",
"                               ##                               ",
"                                                                ",
"                                                                ",
"                                                                ",
"                                                                ",
"                                                                ",
"                                                                ",
"                                                                ",
"                                                                ",
"                                                                ",
"            #.#                             #.#                 ",
"             ##                              ##                 ",
"                                                                ",
"                                                                ",
"                                                                ",
"                                                                ",
"            #.#                             #.#                 ",
"            #.#                              #.#                ",
"            #.#                          ##  #.#                ",
"             #.#                        #33# #..#               ",
"             #.#                        #333#333#               ",
"             #.#   ##                    #3333333#              ",
"              #.# #11#              ##   #3333333#              ",
"              #.##1111#            #22# #333333333#             ",
"               #111111#            #222#2233333333#             ",
"              #111111#              ##2222233333333#            ",
"             #111111#                #22222233333333##          ",
"            #1111111.##             #222222223333333..###       ",
"       #####1111111##..###         #..2222222##33333##...####   ",
"   ####.....111111#  ##...###      ..##222222# #333#  ###....   ",
"   ....#####11111#     ###...      .#  #22222#  #...##   ####   ",
"   ####     #111#         ###      #    #22222#  ##...##        ",
"             #.#                        #22222#    ##...##      ",
"             #.#                         #2222.#     ##...#     ",
"             #.#                         #..##..#      ##.#     ",
"             #.#                          #.# #..#       #      ",
"             #.#                          #.#  #.#              ",
"            #.#                            #.# #..#             ",
"            #.#                            #.#  #.#             ",
"            #.#                             #.# #..#            ",
"            #.#                             #.#  ##             ",
"            #.#                             #.#                 ",
"                                                                ",
"                                                                ",
"                                                                ",
"  #                                                             ",
" #.#    ##                                                      ",
" #..#  #44#                                                     ",
"  #..# #44# #.#      ##                                         ",
"   #..#4444#..#     #66#   ###                                  ",
"    #.444444.#      #66# ##..#                                  ",
"     #444444#        #66#..##                                   ",
"      #44444#      ##666.##                                     ",
"      #44444#    ##..666#                                       ",
"      #4444#   ##..##6666#                                      ",
"     #44444#  #..##  #666#                                      ",
"     #44444#  ###    #666#                                      ",
"    #..444#         #66666#                                     ",
"    #..#..#    ##   #.666.#                                     ",
"    #.##..#   #55#  #..##.#                                     ",
"   #..##..#   #55#  #.# #..#                                    ",
"   ..# #######5555# #.## #..#                                   ",
"   .#  #.....55555####..# #..                                   ",
"   #   ######55555..#.##   ##                                   ",
"       #.#  #55555###.#                                         ",
"       #.#  #5555#  #.#                                         ",
"       ##   #5555#   ##                                         ",
"           #.555#                                               ",
"         ##..##.#                                               ",
"       ##..## #.#                                               ",
"      #..##  #.#                                                ",
"       ##    #.#                                                ",
"            #.#                                                 ",
"            #.#                                                 ",
"                                                                ",
"                                                                ",
"                                                                "};
