/* XPM */
static char * bigrock0_xpm[] = {
"60 35 3 1",
" 	c None",
".	c #FF9270",
"+	c #000000",
"                          ................                  ",
"                      ............................          ",
"           .................+........................       ",
"      ......................+++.......................      ",
"    ..........................++++++++++++++++.......       ",
"...........+++++++++................................        ",
"...........+....+++.................................        ",
" ..........+..........................................      ",
"   ........+..............+...........+++++..............   ",
"    ......................++++++..........+++++++.........  ",
"      .........................+++++++..................... ",
"       ...........+++..............................+........",
"     ...........+++................................++.......",
"   ...........+++...................................++..... ",
"  ............+......................................++...  ",
" ..................++++...............................++..  ",
"  .....+++............++++++++++++++++++..............++....",
"   ......+++...........................+++++................",
"    .......+++.............................+................",
"      .......++.............................................",
"        ......+++.................................+.......  ",
"          ......++...++..+++++...................++.......  ",
"          .......+..++.......+++................++........  ",
"       ...........++...........+++............+++.........  ",
"    ..............................++........+++...........  ",
" ...........+............................++++............   ",
"............+...................................++........  ",
"............++.................................++...........",
"    .........++........+++....................++............",
"       .......++.........++++++++++++......++++............ ",
"        .......++.+.....................................    ",
"        .........++.................................        ",
"         ......................................             ",
"           .................      ...........               ",
"                  ......            ......                  "};
