/* XPM */
static char * question1_xpm[] = {
"21 21 2 1",
" 	c None",
".	c #00FFFF",
"      .........      ",
"    .............    ",
"  .................  ",
" ................... ",
".......       .......",
"......         ......",
".....          ......",
"              ...... ",
"            .......  ",
"           .......   ",
"          ......     ",
"         .....       ",
"        .....        ",
"        .....        ",
"        .....        ",
"                     ",
"                     ",
"        .....        ",
"        .....        ",
"        .....        ",
"        .....        "};
