/* XPM */
static char * saucer0_xpm[] = {
"61 38 3 1",
" 	c None",
".	c #FFFFFF",
"+	c #000000",
"   .....                .............                .....   ",
"  .......              ...............              .......  ",
" .........            .................            ......... ",
"...........          ...................          ...........",
"............         ...................         ............",
".............        ...................        .............",
"..............       ...................       ..............",
" ..............      ...................      .............. ",
"  ..............     ...................     ..............  ",
"   .............     ...................     .............   ",
"         .......     ...................     .......         ",
"         ...........................................         ",
"         ...........................................         ",
"     ...................................................     ",
"    .....................................................    ",
"   .......................................................   ",
"  .........................................................  ",
" ........................................................... ",
".............................................................",
".............................................................",
"..........+++++++.........+++++++++.........+++++++..........",
".........+++++++++.......+++++++++++.......+++++++++.........",
"........+++++++++++.....+++++++++++++.....+++++++++++........",
"........+++++++++++.....+++++++++++++.....+++++++++++........",
"........+++++++++++.....+++++++++++++.....+++++++++++........",
"  .......+++++++++.......+++++++++++.......+++++++++.......  ",
"   .......+++++++.........+++++++++.........+++++++.......   ",
"    .....................................................    ",
"     ...................................................     ",
"     ...................................................     ",
"     ...................................................     ",
"     ...................................................     ",
"     ...................................................     ",
"     ..........    .......................    ..........     ",
"     .........      .....................      .........     ",
"      .......        ...................        .......      ",
"       .....          .................          .....       ",
"        ...            ...............            ...        "};
