/* XPM */
static char * smallspinner_vertical_xpm[] = {
"37 37 2 1",
" 	c None",
".	c #FFFFFF",
"               ......                ",
"              ........               ",
"             ..........              ",
"             ..........              ",
"             ..........              ",
"             ..........              ",
"             ..........              ",
"             ..........              ",
"             ..........              ",
"             ..........              ",
"         ..................          ",
"         ..................          ",
"         ..................          ",
"         ..................          ",
"         ..................          ",
"         .....        .....          ",
"         .....        .....          ",
"         .....        .....          ",
"         .....        .....          ",
"         .....        .....          ",
"         .....        .....          ",
"         .....        .....          ",
"         ..................          ",
"         ..................          ",
"         ..................          ",
"         ..................          ",
"         ..................          ",
"             ..........              ",
"             ..........              ",
"             ..........              ",
"             ..........              ",
"             ..........              ",
"             ..........              ",
"             ..........              ",
"             ..........              ",
"              ........               ",
"               ......                "};
